<svg xmlns="http://www.w3.org/2000/svg">
<defs>
<font id="GTSectraFine-Medium" horiz-adv-x="620" >
  <font-face 
    font-family="GT Sectra Fine Medium"
    font-weight="500"
    font-stretch="normal"
    units-per-em="1000"
    panose-1="0 0 6 0 0 0 0 0 0 0"
    ascent="750"
    descent="-250"
    x-height="472"
    cap-height="701"
    bbox="-445 -246 1200 932"
    underline-thickness="50"
    underline-position="-150"
    unicode-range="U+000D-FB02"
  />
<missing-glyph horiz-adv-x="625" 
d="M432 -28l-24 18h-14l-8 8l7 76l-4 47l-61 1l-3 -52l-2 -56v-20l-15 -6l-8 6l-30 -10h-32l-1 11l11 11l50 21l-6 96l-98 -6l-147 140l-4 115l-13 10l-10 36v26l15 8l-3 78l92 -62l9 47l10 36l22 35l28 35l39 29l78 29h22l-68 22l4 17h7l79 -20l-4 51l16 12h32l19 -5
l29 -25l32 -8l32 -10l15 -13v-20l-20 -31l30 -28l28 -32l18 -34l15 -41l9 -54l-3 -41l-8 -35l-12 -31l-3 -156l-21 -7l-50 70l-27 -7l-19 -140l-32 4l-7 -4l-4 -94l30 -19l16 -14l-3 -15zM213 540l36 24h32l18 -12l8 3l4 14l7 5l10 -4v-18h8l10 22l11 8l-5 6l-3 8l1 21
l-30 -10l-10 -8l-8 5l4 21l14 10l11 11l38 -2l12 13l-4 8h-49l-45 -13l-53 -26l-29 -23l-25 -34l29 12l13 -15l-17 -20l-10 -3l17 -3h5zM391 625l-7 17l-8 -9v-19l12 -6zM449 564l6 6l-9 18l17 28l-15 9v5l-25 7v-20l-13 -5v-9l-9 -6l-3 -12l5 -6l19 11l8 -2l6 -24h13z
M533 418h23l6 11l-18 6l-5 9l9 42h7l14 -20l17 -1l-8 37l-19 50l-20 36l-23 28l-34 21h-11l17 -19l25 -10l11 -11l3 -33l-25 13l-15 -29l12 -8v-19l15 3l-12 26l15 -5l10 -20l-5 -12l-8 -7h-23l-3 11l-12 2l1 -22h-14l14 -18l-7 -10l-21 5l-3 -27l41 6l8 17l22 -2l6 -28
l-16 -13v-15l8 -6zM463 521l-2 9l-8 -4v-9l8 -3zM243 510l-4 12l-55 -24zM369 495l-48 25l-4 -12l49 -17zM72 434l57 -32l7 10l-68 38v18l59 -34l43 -28l28 -14l3 10l-103 64l-13 7l-41 33l2 -78l19 -17v-5h-21l19 -14l1 -11l-20 7l18 -18l-4 -7l3 -97l11 -12v180zM238 437
l16 12l6 12l2 13l-22 -4l6 -10l-12 -13l-14 -1l-6 8l1 4l14 2l-13 6l2 7l-20 -1l3 -19l14 -15l12 -6zM347 440l6 9l5 20l-30 2l7 -5l1 -11l-7 -11h-12l-5 7l11 8l-15 2v6l-23 4l3 -17l8 -14l20 -9l13 -1zM219 134l2 40l41 -3l3 9l-44 6v16l48 -6l1 9l-47 7l1 22l43 -3l3 6

<glyph glyph-name="fi" unicode="fi" horiz-adv-x="602" 
d="M34 26l64 9v393h-74v10l17 25h57v11q0 43 12 74.5t42 61.5l101 100h270v-113h-19l-87 27h-181l-10 -18q-8 -19 -11 -42t-3 -69v-34h177l96 16l34 1v-443l63 -9l-2 -27l-117 2l-111 -2l-2 28l55 8v376l3 21l-19 -4h-177v-393l84 -8l-2 -27l-144 1l-113 -2z" />
    <glyph glyph-name="fl" unicode="fl" horiz-adv-x="602" 
d="M36 26l62 9v393h-74v10l17 25h57v11q0 45 12.5 76t41.5 60l101 100h153l70 2h48v-677l63 -9l-3 -27l-115 2l-115 -2l-3 27l58 9v393h-197v-393l89 -8l-2 -28l-148 2l-112 -2zM409 461v173l-29 -10h-144l-10 -18q-8 -17 -11 -40.5t-3 -70.5v-34h197z" />
    <glyph glyph-name="f_f" unicode="ff" horiz-adv-x="660" 
d="M34 26l64 9v393h-74v10l17 25h57v5q0 43 13.5 72.5t43.5 59.5l98 98h177l-87 -87h-108l-9 -18q-8 -17 -11 -40t-3 -69v-23h197v13q0 44 13 75.5t42 60.5l101 100h120v-86h-138l-10 -18q-7 -17 -10 -40.5t-3 -70.5v-34h125v-33h-125v-393l104 -8l-3 -28l-161 2l-107 -2
l-3 27l55 9v393h-197v-393l89 -8l-2 -28l-150 2l-112 -2z" />
    <glyph glyph-name="f_f_i" unicode="ffi" horiz-adv-x="914" 
d="M34 26l64 9v393h-74v10l17 25h57v5q0 43 13.5 72.5t43.5 59.5l98 98h177l-87 -87h-108l-9 -18q-8 -17 -11 -40t-3 -69v-23h197v13q0 44 13 75.5t42 60.5l101 100h270v-113h-20l-86 27h-181l-11 -18q-7 -17 -10 -40.5t-3 -70.5v-34h177l96 17h34v-443l63 -9l-2 -27l-117 2
l-111 -2l-2 28l55 8v376l3 21l-19 -4h-177v-393l84 -8l-2 -28l-141 2l-116 -2l-3 27l63 9v393h-197v-393l89 -8l-2 -28l-148 2l-114 -2z" />
    <glyph glyph-name="f_f_l" unicode="ffl" horiz-adv-x="913" 
d="M34 26l64 9v393h-74v10l17 25h57v5q0 43 13.5 72.5t43.5 59.5l98 98h179l-87 -87h-110l-9 -18q-8 -17 -11 -40t-3 -69v-23h197v13q0 44 13 75.5t42 59.5l101 101h156l53 2h61v-677l63 -9l-2 -27l-114 2l-117 -2l-2 27l58 9v393h-197v-393l89 -8l-3 -28l-147 2l-106 -2
l-3 27l55 9v393h-197v-393l89 -8l-2 -28l-149 2l-113 -2zM721 461v173l-29 -10h-145l-10 -19q-8 -17 -10.5 -39.5t-2.5 -70.5v-34h197z" />
    <glyph glyph-name="T_h.liga" unicode="Th" horiz-adv-x="1076" 
d="M138 26l100 10v630l-132 -2l-62 -159h-28v196h541l107 12h30v-329l164 103q53 0 81.5 -14.5t40.5 -48t12 -93.5v-296l67 -9l-3 -27l-120 2l-103 -2l-2 27l44 9v302q0 36 -14 53t-43 17q-21 0 -41.5 -9.5t-52.5 -29.5l-30 -18v-315l46 -9l-2 -27l-100 2l-114 -2l-3 27
l58 9v634l-21 -4l-193 1v-630l98 -10l-3 -27l-157 2l-163 -2z" />
    <glyph glyph-name="f_b.liga" unicode="fb" horiz-adv-x="883" 
d="M490.5 -4q-43.5 11 -81.5 30v608l-29 -10h-145l-10 -19q-7 -17 -10 -41t-3 -70v-33h122v-33h-122v-393l104 -8l-2 -28l-165 2l-112 -2l-3 27l64 9v393h-74v10l17 25h57v11q0 45 12.5 76t41.5 60l101 100h145l58 2h67v-322l140 97q50 0 92.5 -26.5t67.5 -76t25 -116.5
q0 -240 -255 -283q-59 0 -102.5 11zM691.5 76.5q33.5 55.5 33.5 150.5q0 86 -25.5 132t-71.5 46q-19 0 -37.5 -8.5t-43.5 -25.5l-24 -16v-296q29 -38 83 -38q52 0 85.5 55.5z" />
    <glyph glyph-name="f_f_b.liga" unicode="ffb" horiz-adv-x="1194" 
d="M721 26v608l-29 -10h-145l-10 -19q-8 -17 -10.5 -40t-2.5 -71v-33h122v-33h-122v-393l104 -8l-3 -28l-162 2l-108 -2l-2 27l56 9v393h-197v-393l89 -8l-2 -28l-148 2l-114 -2l-3 27l64 9v393h-74v10l17 25h57v5q0 43 13.5 72.5t43.5 59.5l98 98h177l-87 -87h-108l-9 -18
q-8 -17 -11 -40t-3 -69v-23h197v13q0 44 13 75.5t42 60.5l101 100h153l41 2h76v-322l140 97q50 0 92 -26.5t67 -76t25 -116.5q0 -240 -255 -283q-105 0 -183 41zM1003.5 76.5q33.5 55.5 33.5 150.5q0 86 -26 132t-72 46q-19 0 -37.5 -8.5t-43.5 -25.5l-23 -16v-296
q29 -38 82 -38t86.5 55.5z" />
    <glyph glyph-name="f_f_h.liga" unicode="ffh" horiz-adv-x="1217" 
d="M34 26l64 9v393h-74v10l17 25h57v5q0 43 13.5 72.5t43.5 59.5l98 98h177l-87 -87h-108l-9 -18q-8 -17 -11 -40t-3 -69v-23h197v13q0 44 13 75.5t42 60.5l101 100h153l41 2h76v-328l164 103q54 0 83 -15.5t40 -49t11 -91.5v-296l67 -9l-2 -27l-120 2l-104 -2l-2 27l44 9
v302q0 37 -14.5 53.5t-42.5 16.5q-21 0 -39.5 -9t-54.5 -30l-30 -18v-315l47 -9l-3 -27l-101 2l-113 -2l-2 27l58 9v599l-29 -10h-145l-10 -19q-8 -17 -10.5 -40t-2.5 -71v-33h122v-33h-122v-393l91 -8l-3 -28l-151 2l-106 -2l-2 27l56 9v393h-197v-393l89 -8l-2 -28l-150 2
l-112 -2z" />
    <glyph glyph-name="f_f_j.liga" unicode="ffj" horiz-adv-x="891" 
d="M595 -135h104l5 19q11 42 11 114v414l3 21l-19 -5h-175v-393l89 -8l-3 -28l-141 2l-114 -2l-2 27l56 9v393h-197v-393l89 -8l-2 -28l-149 2l-113 -2l-3 27l64 9v393h-74v10l17 25h57v5q0 43 13.5 72.5t43.5 59.5l98 98h177l-87 -87h-108l-9 -18q-8 -17 -11 -40t-3 -69
v-23h197v13q0 44 13 75.5t42 60.5l101 100h269v-113h-20l-87 27h-179l-11 -18q-7 -17 -10 -40.5t-3 -70.5v-34h176l96 16l34 1v-457q0 -52 -16.5 -86t-50.5 -70l-92 -101h-76v101z" />
    <glyph glyph-name="f_f_k.liga" unicode="ffk" horiz-adv-x="1188" 
d="M34 26l64 9v393h-74v10l17 25h57v4q0 44 13.5 73.5t43.5 59.5l98 98h177l-87 -87h-108l-9 -18q-8 -17 -11 -40t-3 -69v-23h197v13q0 44 13 75.5t41 60.5l101 100h155l116 2v-443l13 7l195 161l-56 8v27l89 -1l83 1l3 -27l-62 -8l-206 -164h55l192 -238l42 -9l-4 -27
l-90 2l-69 -2l-178 241l-7 16v-221l53 -9l-3 -27l-110 2l-114 -2l-2 27l61 9v599l-28 -10h-145l-11 -19q-7 -17 -10 -41t-3 -70v-33h122v-33h-122v-393l90 -8l-3 -28l-149 2l-111 -2l-3 27l62 9v393h-197v-393l89 -8l-2 -28l-152 2l-110 -2z" />
    <glyph glyph-name="f_h.liga" unicode="fh" horiz-adv-x="905" 
d="M34 26l64 9v393h-74v10l17 25h57v11q0 45 12.5 76t41.5 60l101 100h157l54 2h60v-328l164 103q54 0 82.5 -15.5t40 -49t11.5 -91.5v-296l67 -9l-3 -27l-118 2l-105 -2l-3 27l45 9v302q0 70 -57 70q-21 0 -40.5 -9t-54.5 -30l-29 -18v-315l46 -9l-2 -27l-100 2l-114 -2
l-3 27l58 9v599l-29 -10h-145l-10 -19q-7 -17 -10 -41t-3 -70v-33h122v-33h-122v-393l91 -8l-3 -28l-150 2l-113 -2z" />
    <glyph glyph-name="f_j.liga" unicode="fj" horiz-adv-x="579" 
d="M284 -135h103l5 19q11 42 11 114v414l4 21l-20 -5h-175v-393l89 -8l-2 -28l-143 2l-119 -2l-3 27l64 9v393h-74v10l17 25h57v11q0 45 12.5 76t41.5 59l101 101h269v-113h-20l-87 27h-179l-10 -19q-8 -17 -11 -40t-3 -70v-34h176l96 16l34 1v-457q0 -52 -16 -86t-51 -70
l-92 -101h-75v101z" />
    <glyph glyph-name="f_k.liga" unicode="fk" horiz-adv-x="877" 
d="M34 26l64 9v393h-74v10l17 25h57v11q0 45 12.5 76t41.5 60l101 100h155l116 2v-443l13 7l195 161l-56 8v27l87 -1l85 1l2 -27l-62 -8l-205 -164h55l192 -238l42 -9l-4 -27l-92 2l-67 -2l-179 241l-6 16v-221l53 -9l-3 -27l-109 2l-115 -2l-2 27l61 9v599l-29 -10h-145
l-10 -19q-7 -17 -10 -41t-3 -70v-33h122v-33h-122v-393l89 -8l-2 -28l-150 2l-112 -2z" />
    <glyph glyph-name="f_lcaron.liga" unicode="f&#x13e;" horiz-adv-x="692" 
d="M36 26l62 9v393h-74v10l17 25h57v11q0 45 12.5 76t41.5 60l101 100h153l70 2h48v-677l63 -9l-3 -27l-115 2l-115 -2l-3 27l58 9v393h-197v-393l89 -8l-2 -28l-148 2l-112 -2zM581 445q36 81 53 142l-22 -2l-37 5l-6 63l8 51l81 6l32 -6l6 -60l-8 -54l-82 -155zM409 461
v173l-29 -10h-144l-10 -18q-8 -17 -11 -40.5t-3 -70.5v-34h197z" />
    <glyph glyph-name="f_t.liga" unicode="ft" horiz-adv-x="672" 
d="M431 19q-31 34 -31 96v313h-188v-393l99 -8l-2 -28l-156 2l-116 -2l-3 27l64 9v393h-74v10l17 25h57v13q0 43 12.5 74t41.5 60l101 100h185l-89 -86h-114l-10 -19q-7 -17 -10 -40.5t-3 -70.5v-33h189v72l94 66h19v-139h139v-31h-139v-306q0 -30 14.5 -46.5t40.5 -16.5
q20 0 40 6t46 19l12 -25l-140 -75q-65 0 -96 34z" />
    <glyph glyph-name="f_y.liga" unicode="fy" horiz-adv-x="834" 
d="M373 -123h112l103 160l-83 -31l-164 433h-129v-404l104 -8l-2 -28l-163 2l-114 -2l-3 27l64 9v397h-74v10l17 25h57v11q0 42 12.5 72.5t41.5 59.5l101 100h120v-86h-138l-10 -19q-7 -17 -10 -40.5t-3 -66.5v-26h312l2 -27l-57 -8l122 -331l5 -39l126 370l-56 8l2 27
l83 -1l75 1l3 -27l-58 -8l-149 -406l-121 -266h-128v112z" />
    <glyph glyph-name="g_g.liga" unicode="gg" horiz-adv-x="1000" 
d="M70.5 -214q-52.5 30 -52.5 96v20l115 81q-48 13 -69 39t-21 64v16l102 72q-47 18 -74.5 54t-27.5 83q1 65 51 107t153 69q58 0 101 -22.5t64 -61.5l50 84h41l-4 -98h-60l-15 -11q8 -19 8 -41q-1 -67 -49.5 -109.5t-152.5 -69.5q-32 0 -59 8l-40 -44q0 -23 14 -34.5
t38 -11.5h168q58 0 89.5 -29t31.5 -74q0 -69 -67 -123.5t-182 -93.5q-100 0 -152.5 30zM566 -214q-53 30 -53 96v20l109 81q-52 13 -73 39t-21 64v16l101 72q-48 18 -75.5 54t-27.5 83q0 65 50 107t153 69q59 0 101.5 -22.5t64.5 -61.5l50 84h50v-98h-74l-15 -11
q8 -19 8 -41q-1 -67 -49.5 -109.5t-152.5 -69.5q-29 0 -58 8l-40 -44q0 -23 14 -34.5t38 -11.5h189q57 0 88.5 -29t31.5 -74q0 -69 -68.5 -123.5t-186.5 -93.5q-101 0 -154 30zM300.5 224q19.5 30 19.5 84q0 62 -21.5 102.5t-68.5 40.5q-36 0 -55.5 -31t-19.5 -86
q0 -60 21.5 -100t68.5 -40q36 0 55.5 30zM783 224q19 30 19 84q0 62 -21 102.5t-69 40.5q-36 0 -55.5 -31t-19.5 -86q0 -60 21.5 -100t69.5 -40q36 0 55 30zM313.5 -168q34.5 14 54 38t19.5 53q0 56 -79 56h-149q-24 -23 -32.5 -41t-8.5 -36q0 -37 31 -60.5t86 -23.5
q44 0 78.5 14zM814 -168q36 14 56 38t20 53q0 56 -78 56h-164q-21 -23 -28.5 -41t-7.5 -36q0 -37 31.5 -60.5t89.5 -23.5q45 0 81 14z" />
    <glyph glyph-name="k_y.liga" unicode="ky" horiz-adv-x="1019" 
d="M558 -123h112l103 160l-83 -31l-163 433l-53 -1l-205 -164l55 -1l192 -238l41 -8l-3 -28l-95 1l-65 -1l-178 241l-7 15v-220l53 -9l-2 -27l-109 2l-115 -2l-3 27l62 9v625l-61 -6l-4 27l144 31l35 1v-443l15 6l193 162l-56 10v24h348l2 -27l-57 -8l122 -331l5 -39
l126 370l-56 8l2 27l83 -1l75 1l3 -27l-58 -8l-150 -406l-120 -266h-128v112z" />
    <glyph glyph-name="t_t.liga" unicode="tt" horiz-adv-x="680" 
d="M119.5 18q-32.5 33 -32.5 97v314h-82v9l19 25h64v70l95 66h18v-139h202v73l94 66h19v-139h146v-31h-145v-306q0 -31 14.5 -47t40.5 -16q20 0 39.5 6t45.5 19l13 -25l-141 -75q-62 0 -94.5 33t-32.5 97v314h-200v-308q0 -29 13.5 -45t37.5 -16q20 0 39 5.5t43 18.5l12 -25
l-133 -74q-62 0 -94.5 33z" />
    <glyph glyph-name="t_y.liga" unicode="ty" horiz-adv-x="817" 
d="M356 -123h112l104 160l-83 -31l-164 434h-123v-318q0 -29 15 -45.5t40 -16.5q20 0 37.5 4.5t39.5 16.5l12 -25l-131 -71q-65 0 -96.5 34.5t-31.5 95.5v322h-82v8l19 25h64v63l95 66h18v-127h306l3 -27l-57 -8l122 -331l5 -39l125 370l-56 8l3 27l84 -1l74 1l2 -27l-57 -8
l-150 -406l-120 -266h-129v112z" />
    <glyph glyph-name=".notdef" horiz-adv-x="625" 
d="M432 -28l-24 18h-14l-8 8l7 76l-4 47l-61 1l-3 -52l-2 -56v-20l-15 -6l-8 6l-30 -10h-32l-1 11l11 11l50 21l-6 96l-98 -6l-147 140l-4 115l-13 10l-10 36v26l15 8l-3 78l92 -62l9 47l10 36l22 35l28 35l39 29l78 29h22l-68 22l4 17h7l79 -20l-4 51l16 12h32l19 -5
l29 -25l32 -8l32 -10l15 -13v-20l-20 -31l30 -28l28 -32l18 -34l15 -41l9 -54l-3 -41l-8 -35l-12 -31l-3 -156l-21 -7l-50 70l-27 -7l-19 -140l-32 4l-7 -4l-4 -94l30 -19l16 -14l-3 -15zM213 540l36 24h32l18 -12l8 3l4 14l7 5l10 -4v-18h8l10 22l11 8l-5 6l-3 8l1 21
l-30 -10l-10 -8l-8 5l4 21l14 10l11 11l38 -2l12 13l-4 8h-49l-45 -13l-53 -26l-29 -23l-25 -34l29 12l13 -15l-17 -20l-10 -3l17 -3h5zM391 625l-7 17l-8 -9v-19l12 -6zM449 564l6 6l-9 18l17 28l-15 9v5l-25 7v-20l-13 -5v-9l-9 -6l-3 -12l5 -6l19 11l8 -2l6 -24h13z
M533 418h23l6 11l-18 6l-5 9l9 42h7l14 -20l17 -1l-8 37l-19 50l-20 36l-23 28l-34 21h-11l17 -19l25 -10l11 -11l3 -33l-25 13l-15 -29l12 -8v-19l15 3l-12 26l15 -5l10 -20l-5 -12l-8 -7h-23l-3 11l-12 2l1 -22h-14l14 -18l-7 -10l-21 5l-3 -27l41 6l8 17l22 -2l6 -28
l-16 -13v-15l8 -6zM463 521l-2 9l-8 -4v-9l8 -3zM243 510l-4 12l-55 -24zM369 495l-48 25l-4 -12l49 -17zM72 434l57 -32l7 10l-68 38v18l59 -34l43 -28l28 -14l3 10l-103 64l-13 7l-41 33l2 -78l19 -17v-5h-21l19 -14l1 -11l-20 7l18 -18l-4 -7l3 -97l11 -12v180zM238 437
l16 12l6 12l2 13l-22 -4l6 -10l-12 -13l-14 -1l-6 8l1 4l14 2l-13 6l2 7l-20 -1l3 -19l14 -15l12 -6zM347 440l6 9l5 20l-30 2l7 -5l1 -11l-7 -11h-12l-5 7l11 8l-15 2v6l-23 4l3 -17l8 -14l20 -9l13 -1zM219 134l2 40l41 -3l3 9l-44 6v16l48 -6l1 9l-47 7l1 22l43 -3l3 6
l-45 9l3 94h74l11 10h-79l2 9h74l8 7h-82l2 22l117 4l140 -4v11l-4 7h-205l-66 -3l-7 -9l-6 -44l-48 20l-11 -4l57 -27l1 -45l-5 -73v-91zM534 386l5 7v7l-10 -4v-10h5zM403 336l4 30l-54 5l-3 -35h53zM172 291l4 40l-66 39v-7l-2 -13l1 -27v-48l64 -44zM518 302l20 15
l13 13l11 18l-7 5h-14l-10 3l-14 7l-17 -3l-6 -48q1 1 16 -12zM481 350l4 9h-48v-13zM461 221l4 36l-15 3l-1 8l20 1l5 3l-28 16l2 5l30 -6l-30 15l5 5l21 -5l4 10l3 19l-54 1l-1 -24v-6l-2 -31l19 -3l-8 -61l-48 3l-8 -6l51 -5l-2 -9h-49l-4 -5l53 -7l-6 -35l27 -1z
M364 302v10h-73v-10h73zM559 312l-6 -3l-33 -27l39 -48v78zM364 281l-72 7l-6 -13l78 -4v10zM354 250v6l-68 4v-10h68zM176 203l-74 50l20 -23l50 -41zM350 214l-64 4v-51l64 -6v53z" />
    <glyph glyph-name=".null" horiz-adv-x="0" 
 />
    <glyph glyph-name="nonmarkingreturn" unicode="&#xd;" horiz-adv-x="320" 
 />
    <glyph glyph-name="space" unicode=" " horiz-adv-x="238" 
 />
    <glyph glyph-name="exclam" unicode="!" horiz-adv-x="290" 
d="M92 401l-9 309h123l-8 -308l-32 -182h-42zM90 0l-6 60l7 50l79 6l29 -6l6 -58l-8 -52l-78 -5z" />
    <glyph glyph-name="quotedbl" unicode="&#x22;" horiz-adv-x="395" 
d="M49 636l12 69h102l12 -69l-53 -200h-19zM223 636l12 69h102l12 -69l-53 -200h-19z" />
    <glyph glyph-name="numbersign" unicode="#" 
d="M170 201h-130l5 40h131l21 172h-130l5 40h129l25 202h46l-25 -202h156l25 202h45l-25 -202h132l-5 -40h-131l-21 -172h130l-5 -40h-131l-24 -201h-45l24 201h-156l-24 -201h-46zM378 241l20 172h-156l-21 -172h157z" />
    <glyph glyph-name="dollar" unicode="$" horiz-adv-x="565" 
d="M311 -4v-76h-34v66l-14 -3q-59 0 -109 15.5t-98 48.5l-11 161h45l41 -103q31 -36 68.5 -55t77.5 -20v269l-94 51q-67 36 -96 75t-29 92q0 71 56 121t163 75v68h34v-64q98 -3 181 -49v-157h-36l-43 112q-45 45 -102 51v-246l73 -40q72 -37 103.5 -80t31.5 -103
q0 -145 -208 -209zM277 446v228q-50 -3 -79 -31t-29 -72q0 -36 21.5 -63t70.5 -53zM382 72q26 31 26 77q0 41 -23.5 72.5t-73.5 58.5v-247q45 8 71 39z" />
    <glyph glyph-name="percent" unicode="%" horiz-adv-x="810" 
d="M87 401.5q-42 46.5 -42 121.5q0 78 45.5 121.5t135.5 60.5q69 0 111 -46.5t42 -121.5q0 -78 -46 -122t-136 -60q-68 0 -110 46.5zM632 705h55l-494 -710h-56zM269.5 416.5q17.5 34.5 17.5 96.5q0 78 -21 121.5t-61 43.5q-34 0 -51.5 -34.5t-17.5 -96.5q0 -78 21 -121.5
t61 -43.5q34 0 51.5 34.5zM473 42.5q-42 46.5 -42 121.5q0 78 45.5 121.5t135.5 60.5q69 0 111 -47t42 -122q0 -78 -46 -121.5t-136 -59.5q-68 0 -110 46.5zM656 57q17 34 17 97q0 78 -21 121.5t-61 43.5q-34 0 -51.5 -34.5t-17.5 -96.5q0 -79 21 -122t61 -43q35 0 52 34z
" />
    <glyph glyph-name="ampersand" unicode="&#x26;" horiz-adv-x="712" 
d="M158 5q-52 22 -82.5 62t-30.5 92q0 50 22 88t54 64.5t82 57.5q-45 51 -66 78.5t-30 50t-9 49.5q0 62 49.5 101.5t159.5 69.5q56 0 96.5 -17.5t62 -47t21.5 -64.5q0 -54 -40 -94.5t-124 -91.5l161 -183l86 114l-56 7l2 26l85 -2l82 2l3 -26l-66 -8l-111 -140l138 -158
l49 -8l-3 -27l-95 1l-68 -1l-93 105q-70 -75 -164 -122q-63 0 -115 22zM358 497q16 37 16 84q0 43 -22.5 71t-60.5 28q-37 0 -59.5 -24t-22.5 -67q0 -31 22 -67.5t70 -93.5q41 32 57 69zM356 84.5q28 16.5 56 47.5l-185 211q-37 -27 -53 -60.5t-16 -76.5q0 -37 18 -69
t49 -50.5t69 -18.5q34 0 62 16.5z" />
    <glyph glyph-name="quotesingle" unicode="'" horiz-adv-x="217" 
d="M49 634l12 71h102l12 -71l-53 -198h-19z" />
    <glyph glyph-name="parenleft" unicode="(" horiz-adv-x="289" 
d="M131 -79q-46 70 -67 146.5t-21 177.5q0 102 21 178.5t67.5 146t127.5 153.5l17 -16q-77 -94 -110 -204.5t-33 -256.5q0 -142 33.5 -257.5t109.5 -208.5l-17 -16q-82 87 -128 157z" />
    <glyph glyph-name="parenright" unicode=")" horiz-adv-x="289" 
d="M13 -220q76 93 110 208.5t34 257.5q0 146 -33.5 256.5t-110.5 204.5l18 16q81 -83 127 -152.5t67 -146.5t21 -179t-21 -178t-66.5 -146t-127.5 -157z" />
    <glyph glyph-name="asterisk" unicode="*" horiz-adv-x="421" 
d="M78 458l107 91l-140 11l30 92l119 -73l-32 136h97l-32 -136l119 73l30 -93l-139 -10l106 -90l-78 -58l-55 128l-53 -128z" />
    <glyph glyph-name="plus" unicode="+" 
d="M285 230h-233v48h233v237h49v-237h233v-48h-233v-230h-49v230z" />
    <glyph glyph-name="comma" unicode="," horiz-adv-x="235" 
d="M86 -137q14 30 28.5 68.5t21.5 64.5l-19 -1l-37 5l-6 64l8 53l82 6l32 -6l6 -62l-8 -55l-81 -149z" />
    <glyph glyph-name="hyphen" unicode="-" horiz-adv-x="370" 
d="M34 305h302v-54h-302v54z" />
    <glyph glyph-name="period" unicode="." horiz-adv-x="236" 
d="M76 0l-6 64l8 53l83 6l31 -6l6 -62l-8 -55l-83 -5z" />
    <glyph glyph-name="slash" unicode="/" horiz-adv-x="481" 
d="M443 718h47l-451 -948h-49z" />
    <glyph glyph-name="zero" unicode="0" horiz-adv-x="584" 
d="M154.5 15.5q-53.5 30.5 -84 86t-30.5 125.5q0 109 69 171t200 89q67 0 120.5 -30.5t84 -86t30.5 -125.5q0 -209 -269 -260q-67 0 -120.5 30.5zM386.5 79.5q29.5 51.5 29.5 134.5q0 105 -34.5 167t-101.5 62q-56 0 -85.5 -51.5t-29.5 -134.5q0 -105 34.5 -167t101.5 -62
q56 0 85.5 51.5z" />
    <glyph glyph-name="one" unicode="1" horiz-adv-x="448" 
d="M32 26l142 12v354l3 9l-21 -10l-117 -34l-12 27l229 97h35v-443l140 -12l-3 -27l-194 2l-200 -2z" />
    <glyph glyph-name="two" unicode="2" horiz-adv-x="510" 
d="M20 28l145 112q83 63 118 111.5t35 98.5q0 44 -21 67.5t-59 23.5q-27 0 -59 -16l-32 -126h-92v109l205 79q90 0 136.5 -35.5t46.5 -93.5q0 -64 -51.5 -116t-157.5 -107l-104 -53l66 16h284v-24l-30 -74h-416z" />
    <glyph glyph-name="three" unicode="3" horiz-adv-x="489" 
d="M27 -129h229q34 27 50.5 57t16.5 69q0 60 -48.5 96t-128.5 35l-7 23l49 26q59 29 84.5 64.5t25.5 89.5q0 47 -23 76.5t-60 29.5q-27 0 -59 -15l-35 -124h-91v111l221 78q76 0 121.5 -35t45.5 -94q0 -111 -165 -170q55 -3 99 -24t69 -55t25 -75q0 -46 -18 -79.5t-60 -63.5
t-119 -65l-122 -56h-100v101z" />
    <glyph glyph-name="four" unicode="4" horiz-adv-x="557" 
d="M302 -11h-267l-24 33l314 452h125v-29l-382 -415l22 8h212v134l97 68h14v-202h132v-49h-132v-220h-111v220z" />
    <glyph glyph-name="five" unicode="5" horiz-adv-x="489" 
d="M43 -129h203q42 28 63.5 68t21.5 88q0 56 -31 91t-85 35q-30 0 -52.5 -6t-56.5 -22l-36 -17l-17 12l41 356h354v-19l-22 -80h-307l-27 -227l164 87q60 0 105.5 -22t69.5 -60t24 -85q0 -79 -47 -133t-157 -106l-123 -61h-85v101z" />
    <glyph glyph-name="six" unicode="6" horiz-adv-x="563" 
d="M432.5 422q41.5 -27 63.5 -73t22 -104q0 -199 -251 -260q-68 0 -118 36t-76 100t-26 145q0 154 95.5 273.5t285.5 181.5l9 -28q-98 -42 -153.5 -92t-80 -115t-27.5 -157l158 120q57 0 98.5 -27zM367 72q27 47 27 135q0 76 -24 118.5t-65 42.5q-20 0 -41 -11.5t-57 -39.5
l-31 -24q1 -129 31 -198.5t83 -69.5q50 0 77 47z" />
    <glyph glyph-name="seven" unicode="7" horiz-adv-x="494" 
d="M87 -202l304 571v4h-371v103h438l17 -19l-293 -687h-95v28z" />
    <glyph glyph-name="eight" unicode="8" horiz-adv-x="562" 
d="M479 279.5q34 -41.5 34 -95.5q0 -78 -59.5 -124.5t-183.5 -74.5q-61 1 -112 23.5t-80.5 63t-29.5 94.5q0 113 158 180l-24 18q-119 78 -119 171q0 67 55.5 111t167.5 69q99 -1 155.5 -42t56.5 -109q0 -109 -155 -172l38 -29q64 -42 98 -83.5zM208 652.5
q-25 -24.5 -25 -68.5t33 -83.5t93 -82.5l8 -6q34 29 48 62.5t14 77.5q0 56 -28 90.5t-78 34.5q-40 0 -65 -24.5zM360 52q31 28 31 84q0 48 -30.5 83.5t-95.5 80.5l-34 26q-31 -26 -48 -63t-17 -81q0 -48 17 -84t44.5 -55t58.5 -19q43 0 74 28z" />
    <glyph glyph-name="nine" unicode="9" horiz-adv-x="562" 
d="M402 452.5q50 -34.5 77.5 -97.5t27.5 -145q0 -157 -97.5 -273t-282.5 -177l-9 28q90 40 144.5 87.5t82 112t32.5 155.5l-155 -120q-55 0 -97 25.5t-65.5 72.5t-23.5 109q0 97 62 161t188 96q66 0 116 -34.5zM378 179v7q0 118 -29.5 189.5t-87.5 71.5q-47 0 -74.5 -47
t-27.5 -131q0 -77 25 -120.5t69 -43.5q19 0 36.5 9.5t53.5 37.5z" />
    <glyph glyph-name="colon" unicode=":" horiz-adv-x="253" 
d="M81 360l-6 63l8 53l83 6l31 -6l6 -61l-8 -55l-83 -6zM81 0l-6 64l8 53l83 6l31 -6l6 -62l-8 -55l-83 -5z" />
    <glyph glyph-name="semicolon" unicode=";" horiz-adv-x="273" 
d="M81 360l-6 63l8 53l83 6l31 -6l6 -61l-8 -55l-83 -6zM87 -137q14 30 28.5 68.5t21.5 64.5l-19 -1l-37 5l-6 64l8 53l82 6l32 -6l6 -62l-8 -55l-81 -149z" />
    <glyph glyph-name="less" unicode="&#x3c;" 
d="M50 267v38l520 236v-55l-454 -199l454 -199v-56z" />
    <glyph glyph-name="equal" unicode="=" 
d="M51 366h517v-49h-517v49zM51 173h517v-49h-517v49z" />
    <glyph glyph-name="greater" unicode="&#x3e;" 
d="M50 88l454 199l-454 199v55l520 -236v-38l-520 -235v56z" />
    <glyph glyph-name="question" unicode="?" horiz-adv-x="429" 
d="M127 348l38 26q91 63 91 172q0 58 -24.5 92.5t-75.5 37.5l-37 -105h-62v125l107 13q105 -9 159 -56t54 -115q0 -65 -37.5 -107t-105.5 -70l-47 -22l-8 -123h-40zM106 -1l-6 60l7 49l79 6l29 -6l6 -58l-8 -51l-78 -6z" />
    <glyph glyph-name="at" unicode="@" horiz-adv-x="920" 
d="M241 -66.5q-91 47.5 -141 131.5t-50 190q0 94 43.5 177t122 144.5t180.5 94.5l94 29q122 0 209 -37.5t131.5 -104t44.5 -151.5t-42.5 -157.5t-113.5 -116t-150 -46.5l-60 64l33 109l-145 -175q-35 2 -66 21t-49.5 53t-18.5 78q0 81 48 147.5t129 103.5l108 49l117 -64
l-80 -360q47 4 95 39.5t79 97.5t31 142q0 79 -35 140t-99.5 95t-149.5 34q-91 0 -175 -47t-136.5 -133.5t-52.5 -200.5q0 -112 49.5 -188.5t130 -114.5t173.5 -38q53 0 97.5 15t87.5 38l10 -20q-55 -31 -122.5 -54.5t-116.5 -31.5q-119 0 -210 47.5zM537 288l35 144l-82 53
q-72 -35 -104 -94.5t-32 -118.5q0 -45 19.5 -72.5t55.5 -33.5z" />
    <glyph glyph-name="A" unicode="A" horiz-adv-x="720" 
d="M7 26l68 10l236 646l93 31l240 -678l70 -9l-3 -27l-150 2l-134 -2l-2 27l80 10l-69 204h-242l-70 -204l82 -10l-2 -27l-106 2l-89 -2zM424 274l-102 305l-2 28l-114 -333h218z" />
    <glyph glyph-name="B" unicode="B" horiz-adv-x="638" 
d="M28 26l79 10v628l-79 10l3 27l134 -2l212 2q61 0 104 -21.5t64.5 -57t21.5 -75.5q0 -68 -53.5 -115t-138.5 -58q113 -4 171 -51.5t58 -121.5q0 -92 -70 -141.5t-193 -60.5l-181 2l-129 -2zM313 384q57 0 91 44.5t34 111.5q0 60 -30.5 95.5t-86.5 35.5l-87 -6v-281h79z
M435 77q39 48 39 120q0 73 -40.5 114.5t-107.5 41.5h-92v-318l78 -6q84 0 123 48z" />
    <glyph glyph-name="C" unicode="C" horiz-adv-x="694" 
d="M218.5 24q-82.5 41 -132 121t-49.5 191q0 168 100.5 263.5t279.5 117.5q123 0 233 -62v-163h-38l-50 121q-58 66 -154 66q-66 0 -118 -36.5t-82 -109t-30 -174.5q0 -91 28 -168t83 -122.5t133 -45.5q76 0 139 61l59 136h37l-11 -169q-121 -53 -248 -68q-97 0 -179.5 41z
" />
    <glyph glyph-name="D" unicode="D" horiz-adv-x="738" 
d="M28 26l82 10v628l-82 10l3 27l136 -2l196 2q159 0 248.5 -87.5t89.5 -246.5t-86.5 -257t-255.5 -111l-194 2l-134 -2zM461 70.5q49 41.5 76 116.5t27 171q0 142 -59.5 228t-175.5 85l-92 -6v-627l110 -8q65 -1 114 40.5z" />
    <glyph glyph-name="E" unicode="E" 
d="M28 26l79 10v628l-79 10l3 27l135 -2l410 2l5 -186h-28l-64 149l-255 2v-283l137 2l43 114h28l-5 -130l5 -133h-28l-43 112l-137 2v-316l263 2l68 154h29l-17 -191l-411 2l-135 -2z" />
    <glyph glyph-name="F" unicode="F" horiz-adv-x="594" 
d="M28 26l79 10v628l-79 10l3 27l136 -2l408 2l5 -191h-28l-66 154l-252 2v-297l137 2l43 118h28l-5 -135l5 -139h-28l-43 119l-137 2v-300l101 -10l-2 -27l-166 2l-136 -2z" />
    <glyph glyph-name="G" unicode="G" horiz-adv-x="736" 
d="M212 24.5q-80 41.5 -127.5 121t-47.5 189.5q0 169 99.5 264.5t280.5 117.5q70 0 130 -18.5t103 -44.5v-162h-36l-50 119q-25 30 -64 49t-91 19q-70 0 -122 -39.5t-80.5 -112t-28.5 -171.5q0 -91 27.5 -167t80 -121.5t124.5 -45.5q39 0 69.5 14t49.5 34v214l-83 11l2 28
l145 -1l118 1l3 -28l-58 -11v-231q-54 -24 -123.5 -43.5t-145.5 -26.5q-95 0 -175 41.5z" />
    <glyph glyph-name="H" unicode="H" horiz-adv-x="760" 
d="M28 26l79 10v628l-79 10l3 27l139 -2l136 2l2 -27l-74 -10v-282h293v282l-76 10l3 27l137 -2l138 2l2 -27l-77 -10v-628l77 -10l-2 -27l-138 2l-137 -2l-3 27l76 10v309h-293v-309l74 -10l-2 -27l-136 2l-139 -2z" />
    <glyph glyph-name="I" unicode="I" horiz-adv-x="341" 
d="M28 27l79 10v627l-79 10l3 27l140 -2l139 2l3 -27l-79 -10v-627l79 -10l-3 -28l-139 2l-140 -2z" />
    <glyph glyph-name="J" unicode="J" horiz-adv-x="355" 
d="M2 -72h111l5 22q7 21 9 50.5t2 92.5v571l-103 10l3 27l164 -2l136 2l3 -27l-76 -10v-540q0 -65 -22.5 -112t-61.5 -90l-89 -97h-81v103z" />
    <glyph glyph-name="K" unicode="K" horiz-adv-x="717" 
d="M28 26l79 10v628l-79 10l3 27l142 -2l131 2l2 -27l-72 -10v-294l14 9l301 285l-81 10l2 27l105 -2l105 2l2 -27l-82 -11l-303 -288l63 5l294 -345l54 -9l-3 -27l-98 2l-89 -2l-276 336l-8 17v-316l72 -10l-2 -27l-131 2l-142 -2z" />
    <glyph glyph-name="L" unicode="L" horiz-adv-x="581" 
d="M28 26l79 10v628l-79 10l3 27l137 -2l142 2l3 -27l-79 -10v-628l239 1l74 158h28l-18 -196l-389 2l-137 -2z" />
    <glyph glyph-name="M" unicode="M" horiz-adv-x="929" 
d="M30 26l75 10v627l-77 11l3 27l104 -2l119 2l213 -545l1 -35l216 580l95 -2l119 2l3 -27l-78 -10v-628l76 -10l-2 -27l-133 2l-138 -2l-3 27l75 10v547l6 59l-241 -645h-70l-227 590l-16 60v-611l76 -10l-2 -27l-95 2l-97 -2z" />
    <glyph glyph-name="N" unicode="N" horiz-adv-x="713" 
d="M162 586l-11 41v-591l80 -10l-3 -27l-98 2l-99 -2l-3 27l79 10v626l-77 12l2 27l110 -2l87 2l339 -490l12 -37v490l-79 10l2 27l97 -2l100 2l3 -27l-79 -10v-668h-63z" />
    <glyph glyph-name="O" unicode="O" horiz-adv-x="779" 
d="M200.5 28.5q-77.5 45.5 -120.5 126t-43 180.5q0 164 88 257t275 125q101 0 179 -45.5t121 -126t43 -180.5q0 -164 -88 -257t-276 -125q-101 0 -178.5 45.5zM552 111.5q50 85.5 50 220.5q0 92 -26.5 170t-78.5 125t-123 47q-95 0 -145.5 -85.5t-50.5 -220.5q0 -92 27 -170
t79 -125t123 -47q95 0 145 85.5z" />
    <glyph glyph-name="P" unicode="P" horiz-adv-x="598" 
d="M28 26l79 10v628l-79 10l3 27l137 -2l205 2q94 0 154 -46.5t60 -132.5q0 -90 -68.5 -138t-186.5 -77h-98v-271l100 -10l-3 -27l-162 2l-138 -2zM307 343q63 0 103.5 46.5t40.5 121.5q0 72 -34.5 116t-101.5 44l-81 -6v-322h73z" />
    <glyph glyph-name="Q" unicode="Q" horiz-adv-x="779" 
d="M657 -128l55 -12l-3 -27h-163l-167 150q-101 0 -178.5 45.5t-120.5 126t-43 180.5q0 164 88 257t275 125q101 0 179 -45.5t121 -126t43 -180.5q0 -154 -78 -246t-244 -128l119 -28zM205 198q27 -78 79 -125t123 -47q95 0 145 85.5t50 220.5q0 92 -26.5 170t-78.5 125
t-123 47q-95 0 -145.5 -85.5t-50.5 -220.5q0 -92 27 -170z" />
    <glyph glyph-name="R" unicode="R" horiz-adv-x="678" 
d="M673 26l-2 -27l-98 2l-76 -2l-196 321l-5 6h-62v-290l74 -10l-2 -27l-135 2l-140 -2l-3 27l79 10v628l-79 10l3 27l140 -2l200 2q92 0 153.5 -44t61.5 -130q0 -80 -65 -127.5t-173 -65.5l112 -37l165 -260zM234 360h58q72 0 114 43.5t42 116.5q0 71 -36.5 110.5
t-94.5 40.5l-83 -6v-305z" />
    <glyph glyph-name="S" unicode="S" horiz-adv-x="551" 
d="M147 -1.5q-50 15.5 -98 48.5l-11 161h45l41 -103q32 -37 70 -56t79 -19q58 0 93 32.5t35 86.5q0 42 -24.5 74t-77.5 60l-123 67q-67 36 -96 75t-29 92q0 75 61 126t179 74q107 0 194 -49v-157h-37l-42 112q-52 52 -122 52q-55 0 -88.5 -28.5t-33.5 -75.5
q0 -36 21.5 -63.5t70.5 -52.5l123 -67q72 -37 103.5 -80t31.5 -103q0 -81 -63.5 -136t-192.5 -86q-59 0 -109 15.5z" />
    <glyph glyph-name="T" unicode="T" horiz-adv-x="597" 
d="M135 26l100 10v630l-132 -1l-62 -160h-28v196l287 -2l284 2v-196h-28l-62 160l-132 1v-630l99 -10l-3 -27l-159 2l-162 -2z" />
    <glyph glyph-name="U" unicode="U" horiz-adv-x="699" 
d="M157.5 52.5q-66.5 69.5 -66.5 193.5v418l-78 10l2 27l134 -2l144 2l3 -27l-77 -10v-426q0 -92 44.5 -146t127.5 -54q76 0 120 55t44 146v425l-82 10l3 27l107 -2l101 2l3 -27l-78 -10v-421q0 -104 -52.5 -168t-188.5 -92q-144 0 -210.5 69.5z" />
    <glyph glyph-name="V" unicode="V" horiz-adv-x="713" 
d="M74 665l-69 9l3 27l145 -2l136 2l2 -27l-78 -10l183 -529l2 -32l192 561l-82 10l3 27l103 -2l92 2l2 -27l-71 -9l-232 -654l-84 -26z" />
    <glyph glyph-name="W" unicode="W" horiz-adv-x="1013" 
d="M68 665l-59 9l3 27l137 -2l130 2l3 -27l-79 -10l157 -502l1 -33l122 401l-45 135l-57 9l3 27l136 -2l129 2l2 -27l-78 -10l158 -502l1 -33l163 536l-84 9l3 27l100 -2l87 2l3 -27l-63 -9l-207 -655l-74 -21l-151 458l-1 32l-144 -469l-74 -21z" />
    <glyph glyph-name="X" unicode="X" horiz-adv-x="721" 
d="M10 27l89 9l206 290l-218 339l-66 9l2 27l135 -2l149 2l3 -27l-74 -10l147 -235l7 -20l171 255l-91 10l3 27l118 -2l106 2l2 -27l-85 -9l-197 -284l227 -345l63 -9l-3 -28l-129 2l-154 -2l-3 28l75 10l-153 239l-8 21l-178 -261l89 -9l-3 -28l-118 2l-109 -2z" />
    <glyph glyph-name="Y" unicode="Y" horiz-adv-x="705" 
d="M185 26l110 10v238l-220 391l-70 9l3 27l144 -2l144 2l3 -27l-81 -10l179 -325l2 -22l183 347l-86 10l2 27l109 -2l90 2l3 -27l-70 -9l-209 -385l1 -244l107 -10l-2 -27l-167 2l-172 -2z" />
    <glyph glyph-name="Z" unicode="Z" horiz-adv-x="579" 
d="M17 30l377 619l22 17l-270 -2l-66 -155h-32v191h498l5 -27l-377 -622l-22 -17l286 2l81 162h32l-17 -198h-511z" />
    <glyph glyph-name="bracketleft" unicode="[" horiz-adv-x="323" 
d="M81 715l71 -1l136 1v-27l-124 -8l-1 -116q-2 -186 -2 -289q0 -118 2 -336l1 -134l124 -9v-27l-136 2l-71 -2v946z" />
    <glyph glyph-name="backslash" unicode="\" horiz-adv-x="433" 
d="M-33 718h46l453 -948h-48z" />
    <glyph glyph-name="bracketright" unicode="]" horiz-adv-x="319" 
d="M35 -204l124 9q3 222 3 478q0 214 -3 397l-124 8v27l136 -1l67 1v-946l-66 2l-137 -2v27z" />
    <glyph glyph-name="asciicircum" unicode="^" horiz-adv-x="378" 
d="M175 705h28l125 -245h-56l-83 178l-84 -178h-55z" />
    <glyph glyph-name="underscore" unicode="_" horiz-adv-x="589" 
d="M17 -72h555v-43h-555v43z" />
    <glyph glyph-name="grave" unicode="`" horiz-adv-x="600" 
d="M146 710h112l51 -159h-35z" />
    <glyph glyph-name="a" unicode="a" horiz-adv-x="488" 
d="M69.5 18.5q-40.5 33.5 -40.5 92.5t48 101l220 71v64q0 49 -12.5 70t-54.5 21q-29 0 -62 -13l-19 -100h-104v79l195 83q67 0 104.5 -14.5t53.5 -47t16 -90.5v-207q0 -44 15 -82l50 3l4 -26l-155 -31l-27 82l-127 -89q-64 0 -104.5 33.5zM269 80l28 19v157l-117 -47
q-33 -28 -33 -77q0 -36 17 -56t42 -20q29 0 63 24z" />
    <glyph glyph-name="b" unicode="b" horiz-adv-x="548" 
d="M75 26v633l-61 -6l-4 28l145 31l34 1v-323l140 97q50 0 92.5 -26.5t67.5 -76t25 -116.5q0 -240 -256 -283q-105 0 -183 41zM357.5 76.5q33.5 55.5 33.5 150.5q0 86 -25.5 132t-71.5 46q-19 0 -38 -8.5t-44 -25.5l-23 -16v-296q29 -38 82 -38t86.5 55.5z" />
    <glyph glyph-name="c" unicode="c" horiz-adv-x="457" 
d="M144.5 13.5q-52.5 28.5 -82 81.5t-29.5 124q0 111 69.5 178t175.5 90q37 0 77 -15t67 -37v-106h-93l-30 108q-15 9 -39 9q-49 0 -81.5 -45.5t-32.5 -129.5q0 -56 20 -102t56.5 -72t84.5 -26q30 0 57 10.5t55 29.5l13 -24q-39 -34 -79 -58t-90 -44q-66 0 -118.5 28.5z" />
    <glyph glyph-name="d" unicode="d" horiz-adv-x="563" 
d="M127.5 15q-45.5 30 -70.5 82.5t-25 118.5q0 111 59.5 180.5t172.5 90.5q21 0 47 -8t46 -19v199l-61 -6l-4 27l142 32l37 2v-589q0 -27 3.5 -43.5t12.5 -35.5l55 3l3 -27l-155 -30l-29 88l-130 -95q-58 0 -103.5 30zM293.5 75q16.5 7 41.5 24l22 17v294q-13 16 -33.5 25.5
t-45.5 9.5q-59 0 -91 -52t-32 -142q0 -82 28 -132.5t74 -50.5q20 0 36.5 7z" />
    <glyph glyph-name="e" unicode="e" horiz-adv-x="478" 
d="M445 88q-41 -35 -82.5 -58.5t-97.5 -44.5q-64 0 -117 28t-84.5 81.5t-31.5 125.5q0 106 60.5 173.5t170.5 93.5q89 0 134.5 -50t45.5 -135v-41h-301q4 -87 48.5 -137.5t117.5 -50.5q60 0 124 40zM169.5 405q-25.5 -40 -27.5 -115l181 4v13q0 68 -18 103t-66 35
q-44 0 -69.5 -40z" />
    <glyph glyph-name="f" unicode="f" horiz-adv-x="350" 
d="M34 26l64 9v393h-74v10l17 25h57v11q0 45 12.5 76t41.5 60l101 100h120v-86h-138l-10 -19q-7 -17 -10 -41t-3 -70v-33h125v-33h-125v-393l104 -8l-2 -28l-163 2l-114 -2z" />
    <glyph glyph-name="g" unicode="g" horiz-adv-x="523" 
d="M73 -214q-55 30 -55 96v20l115 81q-48 13 -69 39t-21 64v16l102 72q-47 18 -74.5 54t-27.5 83q1 65 51 107t153 69q58 0 101 -22.5t64 -61.5l50 84h56v-98h-79l-15 -11q8 -19 8 -41q-1 -67 -49.5 -109.5t-152.5 -69.5q-32 0 -59 8l-40 -44q0 -23 14 -34.5t38 -11.5h189
q58 0 89.5 -29t31.5 -74q0 -69 -70 -123.5t-190 -93.5q-105 0 -160 30zM300.5 224q19.5 30 19.5 84q0 62 -21.5 102.5t-68.5 40.5q-36 0 -55.5 -31t-19.5 -86q0 -60 21.5 -100t68.5 -40q36 0 55.5 30zM329 -168q37 14 58 38t21 53q0 56 -79 56h-170q-24 -23 -32.5 -41
t-8.5 -36q0 -37 33.5 -60.5t93.5 -23.5q47 0 84 14z" />
    <glyph glyph-name="h" unicode="h" horiz-adv-x="591" 
d="M33 26l61 9v625l-61 -6l-4 27l145 31l35 1v-329l164 103q55 0 84 -17t39.5 -50.5t10.5 -88.5v-296l67 -9l-3 -27l-120 2l-103 -2l-3 27l45 9v302q0 37 -14.5 53.5t-42.5 16.5q-21 0 -41 -9.5t-53 -29.5l-30 -18v-315l46 -9l-2 -27l-102 2l-116 -2z" />
    <glyph glyph-name="i" unicode="i" horiz-adv-x="293" 
d="M94 583l-7 61l11 50l79 5l30 -5l6 -59l-11 -52l-80 -6zM34 26l62 9v390l-63 -9l-3 27l146 34l34 1v-443l63 -9l-2 -27l-118 2l-116 -2z" />
    <glyph glyph-name="j" unicode="j" horiz-adv-x="276" 
d="M98 583l-7 61l11 50l79 5l30 -5l6 -59l-11 -52l-80 -6zM-23 -135h104l5 19q11 42 11 114v427l-62 -9l-3 27l145 34l35 1v-457q0 -52 -16.5 -86t-50.5 -70l-92 -101h-76v101z" />
    <glyph glyph-name="k" unicode="k" horiz-adv-x="563" 
d="M34 26l61 9v624l-61 -6l-4 28l145 31l35 1v-444l13 6l196 162l-57 8v27l89 -1l83 1l3 -27l-63 -8l-205 -164h55l193 -238l41 -9l-3 -27l-93 2l-67 -2l-178 240l-7 17v-221l53 -9l-3 -27l-108 2l-116 -2z" />
    <glyph glyph-name="l" unicode="l" horiz-adv-x="287" 
d="M33 26l61 9v624l-61 -6l-4 28l145 31l34 1v-678l64 -9l-3 -27l-116 2l-118 -2z" />
    <glyph glyph-name="m" unicode="m" horiz-adv-x="872" 
d="M35 26l61 9v390l-63 -9l-3 27l144 34l33 1l2 -95l156 104q65 0 96 -25t36 -79l158 104q54 0 82.5 -15.5t39.5 -48.5t11 -91v-297l68 -9l-3 -27l-118 2l-105 -2l-3 27l44 9v301q0 37 -13.5 54t-40.5 17q-34 0 -89 -39l-28 -19v-314l42 -9l-3 -27l-96 2l-100 -2l-3 27l42 9
v301q0 37 -13.5 54t-40.5 17q-34 0 -89 -39l-28 -19v-314l44 -9l-3 -27l-100 2l-115 -2z" />
    <glyph glyph-name="n" unicode="n" horiz-adv-x="593" 
d="M35 26l61 9v389l-63 -9l-3 28l146 34l32 1l2 -95l165 104q54 0 83 -15t40 -47.5t11 -90.5v-299l67 -9l-2 -27l-120 2l-104 -2l-3 27l45 9v302q0 37 -14.5 53.5t-43.5 16.5q-22 0 -41 -9t-52 -30l-30 -19v-314l46 -9l-2 -27l-101 2l-117 -2z" />
    <glyph glyph-name="o" unicode="o" horiz-adv-x="537" 
d="M138.5 15.5q-50.5 30.5 -78.5 85t-28 123.5q0 113 66.5 175.5t185.5 87.5q64 0 114 -30.5t78.5 -85t28.5 -123.5q0 -113 -67 -176t-186 -87q-63 0 -113.5 30.5zM355.5 73.5q26.5 49.5 26.5 139.5q0 111 -35.5 172.5t-91.5 61.5q-49 0 -75.5 -49t-26.5 -140
q0 -70 16.5 -123t45.5 -82t65 -29q49 0 75.5 49.5z" />
    <glyph glyph-name="p" unicode="p" horiz-adv-x="550" 
d="M19 -204l62 9v620l-63 -9l-3 27l142 33l32 2l5 -89l136 98q54 0 97.5 -28t68 -79t24.5 -116q0 -233 -240 -279q-50 0 -85 23v-203l94 -9l-2 -27l-148 2l-118 -2zM365 77.5q32 53.5 32 143.5q0 85 -27.5 135t-74.5 50q-19 0 -34 -7.5t-45 -28.5l-21 -14v-289
q14 -20 36 -31.5t49 -11.5q53 0 85 53.5z" />
    <glyph glyph-name="q" unicode="q" horiz-adv-x="540" 
d="M263 -204l94 9v271l-127 -91q-57 0 -102 27.5t-70.5 79t-25.5 119.5q0 114 66 186t181 90q76 0 143 -37l31 32h19v-677l63 -9l-2 -27l-116 2l-151 -2zM294 71.5q14 5.5 32 17.5l31 21v290q-23 48 -78 48q-56 0 -90 -51.5t-34 -145.5q0 -82 28 -133.5t78 -51.5
q19 0 33 5.5z" />
    <glyph glyph-name="r" unicode="r" horiz-adv-x="400" 
d="M34 26l62 9v390l-63 -9l-3 27l140 34l30 1l6 -152l102 156h78v-118h-104q-11 -4 -36.5 -33t-27.5 -32l-8 -9v-254l97 -9l-3 -28l-149 2l-118 -2z" />
    <glyph glyph-name="s" unicode="s" horiz-adv-x="413" 
d="M117 -3.5q-44 12.5 -76 29.5l-9 133h38l43 -95q43 -40 91 -40q37 0 57 18.5t20 46.5q0 29 -15.5 46.5t-57.5 41.5l-81 48q-40 22 -63 49.5t-23 69.5q0 52 42.5 86t134.5 57q83 0 149 -37v-124h-34l-40 92q-35 32 -81 32q-32 0 -51.5 -16t-19.5 -43q0 -25 16.5 -41.5
t57.5 -39.5l82 -47q45 -25 65.5 -53.5t20.5 -68.5q0 -61 -45 -98.5t-139 -58.5q-38 0 -82 12.5z" />
    <glyph glyph-name="t" unicode="t" horiz-adv-x="358" 
d="M117.5 20q-30.5 35 -30.5 102v307h-82v9l19 25h64v70l95 66h18v-139h139v-31h-138v-306q0 -30 15 -46.5t40 -16.5q21 0 39.5 5.5t42.5 18.5l13 -25l-138 -74q-66 0 -96.5 35z" />
    <glyph glyph-name="u" unicode="u" horiz-adv-x="567" 
d="M128.5 0.5q-29.5 15.5 -41 47.5t-11.5 89v287l-61 -6l-3 29l143 28l38 2v-339q0 -38 15 -55.5t45 -17.5q18 0 37 8.5t48 26.5l28 18v306l-57 -6l-3 29l138 28l37 2v-346q0 -28 3 -46.5t10 -39.5l47 3l3 -27l-151 -28l-23 91l-156 -99q-56 0 -85.5 15.5z" />
    <glyph glyph-name="v" unicode="v" horiz-adv-x="541" 
d="M57 437l-52 9l3 26l120 -1l111 1l2 -26l-57 -9l120 -332l4 -38l124 370l-57 9l2 26l84 -1l72 1l3 -26l-57 -9l-154 -421l-93 -33z" />
    <glyph glyph-name="w" unicode="w" horiz-adv-x="843" 
d="M56 437l-51 9l3 26l113 -1l109 1l2 -26l-53 -9l112 -337l4 -34l104 304l-24 67l-45 9l3 26l109 -1l106 1l3 -26l-53 -9l112 -337l4 -34l122 371l-56 9l2 26l78 -1l75 1l3 -26l-57 -9l-146 -421l-98 -32l-111 310l-2 34l-107 -312l-99 -32z" />
    <glyph glyph-name="x" unicode="x" horiz-adv-x="553" 
d="M12 26l65 9l149 182l-151 220l-54 8l2 27l120 -1l108 1l3 -27l-38 -8l87 -133l4 -16l111 149l-60 8l3 27l84 -1l87 1l3 -27l-66 -8l-134 -169l160 -233l52 -9l-2 -27l-112 2l-115 -2l-3 27l40 9l-98 143l-5 15l-121 -158l64 -9l-3 -27l-92 2l-86 -2z" />
    <glyph glyph-name="y" unicode="y" horiz-adv-x="545" 
d="M86 -123h112l103 160l-82 -31l-162 431l-52 8l3 27l119 -1l112 1l2 -27l-57 -8l120 -331l5 -39l124 370l-56 8l3 27l83 -1l75 1l2 -27l-57 -8l-149 -406l-119 -266h-129v112z" />
    <glyph glyph-name="z" unicode="z" horiz-adv-x="476" 
d="M31 22l269 407l20 15l-176 -3l-55 -122h-30v153h382l8 -21l-267 -408l-18 -15l188 4l63 130h32l-14 -162h-395z" />
    <glyph glyph-name="braceleft" unicode="{" horiz-adv-x="345" 
d="M153.5 -191.5q-39.5 38.5 -39.5 101.5v286l-66 56v7q31 11 45 29.5t17.5 39.5t3.5 56v191q0 63 40.5 101.5t101.5 38.5h48v-27h-42q-30 0 -49 -25t-18 -82l3 -193q1 -42 -15 -73t-61 -52l76 -52l-3 -307q-1 -57 18.5 -82t50.5 -25h43v-27h-52q-62 0 -101.5 38.5z" />
    <glyph glyph-name="bar" unicode="|" horiz-adv-x="264" 
d="M110 718h44v-963h-44v963z" />
    <glyph glyph-name="braceright" unicode="}" horiz-adv-x="345" 
d="M41 -203h42q30 0 49 25t18 81l-3 223q-1 42 15 73.5t61 52.5l-76 52l3 277q1 57 -18.5 82t-50.5 25h-43v27h50q62 0 102.5 -38.5t40.5 -101.5v-256l66 -57v-7q-31 -11 -45 -29.5t-17.5 -39.5t-3.5 -56v-220q0 -63 -40 -101.5t-100 -38.5h-50v27z" />
    <glyph glyph-name="asciitilde" unicode="~" horiz-adv-x="669" 
d="M88 286l96 27l363 -60l45 64h27l-39 -86l-94 -26l-364 60l-45 -64h-27z" />
    <glyph glyph-name="uni00A0" unicode="&#xa0;" horiz-adv-x="238" 
 />
    <glyph glyph-name="exclamdown" unicode="&#xa1;" horiz-adv-x="277" 
d="M84 363l-6 58l8 51l79 6l29 -6l5 -59l-7 -50l-79 -6zM86 71l31 182h43l32 -181l8 -309h-123z" />
    <glyph glyph-name="cent" unicode="&#xa2;" horiz-adv-x="468" 
d="M286 -9v-71h-40v66q-91 8 -147.5 70.5t-56.5 162.5t57.5 164.5t149.5 93.5v70h39v-60q37 0 76.5 -15t66.5 -37v-106h-93l-30 108q-15 9 -39 9q-49 0 -81.5 -45.5t-32.5 -129.5q0 -56 20 -102t56.5 -72t84.5 -26q30 0 57 10.5t55 29.5l13 -24q-70 -61 -155 -96z" />
    <glyph glyph-name="sterling" unicode="&#xa3;" horiz-adv-x="563" 
d="M523 161l-13 -161l-336 1l-130 -1l-3 23l84 28v286h-81v9l21 27h60v121q0 92 57 142t174 79q98 0 140 -45v-128h-40l-32 99q-18 19 -35.5 27.5t-44.5 8.5q-53 0 -78.5 -38.5t-25.5 -98.5v-167h165v-36h-165v-170q0 -61 -10 -89t-26 -43l229 2l56 124h34z" />
    <glyph glyph-name="currency" unicode="&#xa4;" 
d="M83 162l63 63q-46 57 -46 131t46 131l-63 63l33 33l63 -64q58 47 131 47t131 -47l63 64l33 -33l-63 -63q46 -57 46 -131t-46 -131l63 -63l-33 -33l-63 64q-58 -47 -131 -47t-131 47l-63 -64zM395 209.5q38 22.5 59.5 61.5t21.5 85t-21.5 85t-59.5 61.5t-85 22.5
t-85 -22.5t-59.5 -61.5t-21.5 -85t21.5 -85t59.5 -61.5t85 -22.5t85 22.5z" />
    <glyph glyph-name="yen" unicode="&#xa5;" horiz-adv-x="686" 
d="M413 278v-7h129v-30h-129v-67h129v-31h-129v-107l107 -10l-2 -27l-165 2l-172 -2l-3 27l109 10v107h-123v31h123v67h-123v30h123v1l-197 393l-70 9l3 27l144 -2l144 2l2 -27l-80 -10l154 -329l3 -25l158 354l-86 10l2 27l108 -2l91 2l3 -27l-70 -9z" />
    <glyph glyph-name="brokenbar" unicode="&#xa6;" horiz-adv-x="264" 
d="M110 718h44v-430h-44v430zM110 185h44v-430h-44v430z" />
    <glyph glyph-name="section" unicode="&#xa7;" horiz-adv-x="547" 
d="M386 59l81 -54v-43q0 -77 -49.5 -128.5t-153.5 -78.5q-46 0 -94 15.5t-77 37.5v125h39l28 -89q49 -53 115 -53q45 0 74 33t29 85v16l-181 119q-76 52 -111 99.5t-35 100.5q0 49 28.5 87.5t81.5 63.5q-36 35 -52.5 68t-16.5 70q0 69 53 116t150 67q108 -1 155 -48v-118
h-39l-30 90q-33 41 -93 41q-49 0 -76 -25.5t-27 -71.5q0 -42 30 -79t109 -90l181 -123v-41q0 -129 -119 -192zM416 208l-170 118q-39 27 -63 49q-43 -29 -43 -83q0 -39 28.5 -72t104.5 -85l86 -58q57 41 57 116v15z" />
    <glyph glyph-name="dieresis" unicode="&#xa8;" horiz-adv-x="600" 
d="M110 584l-5 52l9 42l64 6l26 -6l6 -50l-10 -44l-63 -5zM291 584l-6 52l10 42l64 6l26 -6l6 -50l-11 -44l-63 -5z" />
    <glyph glyph-name="copyright" unicode="&#xa9;" horiz-adv-x="837" 
d="M234.5 30.5q-84.5 44.5 -134.5 128.5t-50 197q0 153 98 243.5t270 115.5q100 -1 184.5 -45.5t134.5 -128.5t50 -197q0 -153 -98 -243.5t-269 -115.5q-101 1 -185.5 45.5zM570 57q70 39 112 113t42 174q0 109 -48 185.5t-118.5 114.5t-137.5 38q-82 0 -152.5 -39.5
t-112.5 -113.5t-42 -173q0 -109 48 -185.5t119 -114.5t138 -38q82 0 152 39zM322.5 164q-49.5 23 -79.5 68.5t-30 108.5q0 97 60 151t169 67q75 0 141 -36v-98h-24l-34 73q-32 38 -86 38q-58 0 -94.5 -47t-36.5 -134q0 -81 36 -135t101 -54q43 0 80 33l39 82h23l-6 -101
q-41 -15 -75 -24.5t-75 -14.5q-59 0 -108.5 23z" />
    <glyph glyph-name="ordfeminine" unicode="&#xaa;" horiz-adv-x="443" 
d="M77 339.5q-33 26.5 -33 73.5q0 50 39 82l181 56v53q0 37 -10 53t-43 16q-24 0 -50 -10l-15 -81h-89v64l162 66q55 0 86 -11t45 -37t14 -72v-164q0 -37 12 -64l40 2l3 -22l-129 -26l-22 65l-104 -70q-54 0 -87 26.5zM242 390l22 14v124l-93 -34q-27 -24 -27 -62
q0 -29 13.5 -45t34.5 -16q24 0 50 19z" />
    <glyph glyph-name="guillemotleft" unicode="&#xab;" horiz-adv-x="460" 
d="M15 235l182 220h42l-128 -221l128 -219h-43zM206 235l182 220h42l-129 -221l129 -219h-43z" />
    <glyph glyph-name="logicalnot" unicode="&#xac;" 
d="M518 316h-466v48h515v-184h-49v136z" />
    <glyph glyph-name="uni00AD" unicode="&#xad;" horiz-adv-x="370" 
d="M34 305h302v-54h-302v54z" />
    <glyph glyph-name="registered" unicode="&#xae;" horiz-adv-x="594" 
d="M422.5 654q57.5 -30 92 -87.5t34.5 -135.5q0 -105 -67 -167t-184 -79q-69 1 -127 31.5t-92 88t-34 134.5q0 105 67 167t184 79q69 -1 126.5 -31zM400 233q48 27 76.5 78t28.5 120q0 76 -33 128.5t-81 78.5t-93 26q-56 0 -104 -27t-76.5 -78t-28.5 -120q0 -75 32.5 -128
t80.5 -79t94 -26q56 0 104 27zM423 319l18 -4v-14l-45 1l-37 -1l-75 125l-1 1h-23v-109l29 -3l-1 -14l-59 1l-60 -1l-1 14l29 3v237l-29 4l1 13l60 -1l90 1q38 0 63 -17.5t25 -49.5q0 -30 -27 -48.5t-72 -24.5l53 -16zM260 443h22q26 0 41.5 16t15.5 43q0 26 -14 41.5
t-36 15.5l-29 -3v-113z" />
    <glyph glyph-name="macron" unicode="&#xaf;" horiz-adv-x="600" 
d="M107 657h286v-53h-286v53z" />
    <glyph glyph-name="degree" unicode="&#xb0;" horiz-adv-x="422" 
d="M131.5 462q-35.5 21 -56 57t-20.5 78q0 63 37.5 99t118.5 57q43 0 79 -21t56.5 -57t20.5 -78q0 -63 -37.5 -99t-118.5 -57q-44 0 -79.5 21zM286 521q30 31 30 76t-31 76t-74 31q-45 0 -75 -31t-30 -76t31 -76t74 -31q45 0 75 31z" />
    <glyph glyph-name="plusminus" unicode="&#xb1;" 
d="M282 366h-233v48h233v238h49v-238h233v-48h-233v-229h-49v229zM48 49h522v-49h-522v49z" />
    <glyph glyph-name="two.sups" unicode="&#xb2;" horiz-adv-x="382" 
d="M26 418l94 95q56 57 82 100t26 82q0 31 -14.5 50t-37.5 19q-15 0 -37 -6l-20 -85h-75v73l146 48q64 0 99 -27.5t35 -71.5q0 -50 -36.5 -92t-113.5 -91l-83 -55l36 13h208v-19l-21 -51h-277z" />
    <glyph glyph-name="three.sups" unicode="&#xb3;" horiz-adv-x="360" 
d="M43 471h149q25 25 25 56q0 30 -25 49t-71 18l-4 17l29 16q33 16 45.5 33.5t12.5 45.5q0 25 -12.5 40t-32.5 15q-12 0 -28 -6l-20 -74h-71v67l148 46q55 0 80.5 -20.5t25.5 -49.5q0 -60 -106 -87q60 -3 91 -28.5t31 -57.5q0 -36 -27.5 -59t-83.5 -49l-97 -45h-59v73z" />
    <glyph glyph-name="acute" unicode="&#xb4;" horiz-adv-x="600" 
d="M198 710h113l-128 -159h-36z" />
    <glyph glyph-name="uni00B5" unicode="&#xb5;" 
d="M502.5 40.5q15.5 -10.5 43.5 -16.5l-4 -24h-129l-48 80v2l-138 -97q-83 0 -110 47v-64l78 -198h-121v702h116v-325q0 -82 64 -82q18 0 36 8.5t46 26.5l29 17v355h114v-401q8 -20 23.5 -30.5z" />
    <glyph glyph-name="paragraph" unicode="&#xb6;" horiz-adv-x="500" 
d="M194 393q-68 0 -116 38t-48 103q0 49 41 88t115 78h274v-33l-51 -8v-818h-46v820h-123v-820h-46v552z" />
    <glyph glyph-name="periodcentered" unicode="&#xb7;" horiz-adv-x="232" 
d="M60 348l-5 60l6 50l79 6l31 -6l6 -58l-7 -52l-79 -6z" />
    <glyph glyph-name="cedilla" unicode="&#xb8;" horiz-adv-x="600" 
d="M184 -201h75q14 10 21 26.5t7 34.5q0 29 -19 42.5t-48 15.5l63 90l26 -3l-34 -51q36 -2 59 -21.5t23 -50.5q0 -68 -96 -102l-62 -24h-43z" />
    <glyph glyph-name="one.sups" unicode="&#xb9;" horiz-adv-x="315" 
d="M41 420l80 7v303l3 8l-14 -9l-66 -15l-9 18l144 58h30v-363l80 -7l-1 -21l-121 2l-124 -2z" />
    <glyph glyph-name="ordmasculine" unicode="&#xba;" horiz-adv-x="481" 
d="M133 337q-41 24 -64.5 67.5t-23.5 98.5q0 90 55 139.5t154 69.5q52 0 93.5 -24t65 -67.5t23.5 -98.5q0 -90 -55.5 -139.5t-154.5 -69.5q-52 0 -93 24zM310.5 383q21.5 38 21.5 109q0 89 -28.5 138t-73.5 49q-39 0 -60 -37.5t-21 -109.5q0 -86 28.5 -136.5t72.5 -50.5
q39 0 60.5 38z" />
    <glyph glyph-name="guillemotright" unicode="&#xbb;" horiz-adv-x="460" 
d="M159 234l-129 221h42l182 -220l-181 -220h-43zM349 234l-128 221h42l182 -220l-181 -220h-43z" />
    <glyph glyph-name="onequarter" unicode="&#xbc;" horiz-adv-x="811" 
d="M41 335l80 7v303l3 8l-14 -9l-66 -15l-9 18l144 58h30v-363l80 -7l-1 -21l-121 2l-124 -2zM542 710h46l-385 -760h-48zM627 106h-155l-16 26l188 253h89v-23l-240 -225l16 6h118v64l73 51h9v-116h75v-36h-75v-106h-82v106z" />
    <glyph glyph-name="onehalf" unicode="&#xbd;" horiz-adv-x="809" 
d="M41 335l80 7v303l3 8l-14 -9l-66 -15l-9 18l144 58h30v-363l80 -7l-1 -21l-121 2l-124 -2zM542 710h46l-385 -760h-48zM454 18l94 95q56 57 82 100t26 82q0 31 -14.5 50t-37.5 19q-15 0 -37 -6l-20 -85h-75v73l146 48q64 0 99 -27.5t35 -71.5q0 -50 -36.5 -92t-113.5 -91
l-83 -55l36 13h208v-19l-21 -51h-277z" />
    <glyph glyph-name="threequarters" unicode="&#xbe;" horiz-adv-x="856" 
d="M43 386h149q25 25 25 56q0 30 -25 49t-71 18l-4 17l29 16q33 16 45.5 33.5t12.5 45.5q0 25 -12.5 40t-32.5 15q-12 0 -28 -6l-20 -74h-71v67l148 46q55 0 80.5 -20.5t25.5 -49.5q0 -60 -106 -87q60 -3 91 -28.5t31 -57.5q0 -36 -27.5 -59t-83.5 -49l-97 -45h-59v73z
M587 710h46l-385 -760h-48zM672 106h-155l-16 26l188 253h89v-23l-240 -225l16 6h118v64l73 51h9v-116h75v-36h-75v-106h-82v106z" />
    <glyph glyph-name="questiondown" unicode="&#xbf;" horiz-adv-x="400" 
d="M291 470l6 -60l-8 -50l-78 -6l-30 6l-5 59l8 51l78 6zM269 120l-38 -25q-45 -32 -67.5 -74t-22.5 -98q0 -58 24.5 -93t75.5 -37l37 105h61v-126l-106 -12q-105 9 -159 56t-54 114q0 65 37.5 107.5t105.5 70.5l46 21l8 124h41z" />
    <glyph glyph-name="Agrave" unicode="&#xc0;" horiz-adv-x="720" 
d="M228 903h116l52 -135h-42zM7 26l68 10l236 646l93 31l240 -678l70 -9l-3 -27l-150 2l-134 -2l-2 27l80 10l-69 204h-242l-70 -204l82 -10l-2 -27l-106 2l-89 -2zM424 274l-102 305l-2 28l-114 -333h218z" />
    <glyph glyph-name="Aacute" unicode="&#xc1;" horiz-adv-x="720" 
d="M387 903h116l-126 -135h-42zM7 26l68 10l236 646l93 31l240 -678l70 -9l-3 -27l-150 2l-134 -2l-2 27l80 10l-69 204h-242l-70 -204l82 -10l-2 -27l-106 2l-89 -2zM424 274l-102 305l-2 28l-114 -333h218z" />
    <glyph glyph-name="Acircumflex" unicode="&#xc2;" horiz-adv-x="720" 
d="M330 906h60l120 -138h-44l-98 69l-8 10l-8 -10l-99 -69h-43zM7 26l68 10l236 646l93 31l240 -678l70 -9l-3 -27l-150 2l-134 -2l-2 27l80 10l-69 204h-242l-70 -204l82 -10l-2 -27l-106 2l-89 -2zM424 274l-102 305l-2 28l-114 -333h218z" />
    <glyph glyph-name="Atilde" unicode="&#xc3;" horiz-adv-x="720" 
d="M222 875l64 20l186 -64l34 66h20l-28 -110l-64 -19l-186 65l-34 -66h-20zM7 26l68 10l236 646l93 31l240 -678l70 -9l-3 -27l-150 2l-134 -2l-2 27l80 10l-69 204h-242l-70 -204l82 -10l-2 -27l-106 2l-89 -2zM424 274l-102 305l-2 28l-114 -333h218z" />
    <glyph glyph-name="Adieresis" unicode="&#xc4;" horiz-adv-x="720" 
d="M200 783l-5 52l9 42l64 6l26 -6l6 -50l-11 -44l-63 -5zM424 783l-5 52l9 42l64 6l26 -6l6 -50l-10 -44l-63 -5zM7 26l68 10l236 646l93 31l240 -678l70 -9l-3 -27l-150 2l-134 -2l-2 27l80 10l-69 204h-242l-70 -204l82 -10l-2 -27l-106 2l-89 -2zM424 274l-102 305
l-2 28l-114 -333h218z" />
    <glyph glyph-name="Aring" unicode="&#xc5;" horiz-adv-x="720" 
d="M283 757q-32 24 -32 74q0 43 27 63t81 38q47 0 78 -24t31 -74q0 -44 -27 -64.5t-81 -36.5q-45 0 -77 24zM408 783.5q19 18.5 19 48.5t-19.5 49t-48.5 19t-47.5 -19t-18.5 -49t18.5 -48.5t47.5 -18.5q30 0 49 18.5zM7 26l68 10l236 646l93 31l240 -678l70 -9l-3 -27
l-150 2l-134 -2l-2 27l80 10l-69 204h-242l-70 -204l82 -10l-2 -27l-106 2l-89 -2zM424 274l-102 305l-2 28l-114 -333h218z" />
    <glyph glyph-name="AE" unicode="&#xc6;" horiz-adv-x="996" 
d="M5 26l69 9l421 666l72 -2l385 2l5 -183h-26l-64 147l-237 1v-312l120 2l43 113h26l-5 -130l5 -133h-26l-43 113l-120 2v-287l244 2l69 152h27l-17 -189l-389 2l-135 -2l-3 27l79 10v285h-204l-174 -285l78 -10l-3 -26l-104 1l-90 -1zM505 352v307l-186 -307h186z" />
    <glyph glyph-name="Ccedilla" unicode="&#xc7;" horiz-adv-x="694" 
d="M395 -17l-19 -29q36 -2 59 -21.5t23 -50.5q0 -68 -96 -102l-62 -24h-43l28 43h75q14 10 21 26.5t7 34.5q0 29 -19 42.5t-48 15.5l46 66q-91 7 -166 49.5t-119.5 120t-44.5 182.5q0 168 100.5 263.5t279.5 117.5q123 0 233 -62v-163h-38l-50 121q-58 66 -154 66
q-66 0 -118 -36.5t-82 -109t-30 -174.5q0 -91 28 -168t83 -122.5t133 -45.5q76 0 139 61l59 136h37l-11 -169q-121 -53 -248 -68h-3z" />
    <glyph glyph-name="Egrave" unicode="&#xc8;" 
d="M204 903h116l52 -135h-42zM28 26l79 10v628l-79 10l3 27l135 -2l410 2l5 -186h-28l-64 149l-255 2v-283l137 2l43 114h28l-5 -130l5 -133h-28l-43 112l-137 2v-316l263 2l68 154h29l-17 -191l-411 2l-135 -2z" />
    <glyph glyph-name="Eacute" unicode="&#xc9;" 
d="M362 903h116l-126 -135h-42zM28 26l79 10v628l-79 10l3 27l135 -2l410 2l5 -186h-28l-64 149l-255 2v-283l137 2l43 114h28l-5 -130l5 -133h-28l-43 112l-137 2v-316l263 2l68 154h29l-17 -191l-411 2l-135 -2z" />
    <glyph glyph-name="Ecircumflex" unicode="&#xca;" 
d="M305 906h60l120 -138h-44l-98 69l-8 10l-8 -10l-99 -69h-43zM28 26l79 10v628l-79 10l3 27l135 -2l410 2l5 -186h-28l-64 149l-255 2v-283l137 2l43 114h28l-5 -130l5 -133h-28l-43 112l-137 2v-316l263 2l68 154h29l-17 -191l-411 2l-135 -2z" />
    <glyph glyph-name="Edieresis" unicode="&#xcb;" 
d="M175 783l-5 52l9 42l64 6l26 -6l6 -50l-11 -44l-63 -5zM399 783l-5 52l9 42l64 6l26 -6l6 -50l-10 -44l-63 -5zM28 26l79 10v628l-79 10l3 27l135 -2l410 2l5 -186h-28l-64 149l-255 2v-283l137 2l43 114h28l-5 -130l5 -133h-28l-43 112l-137 2v-316l263 2l68 154h29
l-17 -191l-411 2l-135 -2z" />
    <glyph glyph-name="Igrave" unicode="&#xcc;" horiz-adv-x="341" 
d="M39 903h116l52 -135h-42zM28 27l79 10v627l-79 10l3 27l140 -2l139 2l3 -27l-79 -10v-627l79 -10l-3 -28l-139 2l-140 -2z" />
    <glyph glyph-name="Iacute" unicode="&#xcd;" horiz-adv-x="341" 
d="M198 903h116l-126 -135h-42zM28 27l79 10v627l-79 10l3 27l140 -2l139 2l3 -27l-79 -10v-627l79 -10l-3 -28l-139 2l-140 -2z" />
    <glyph glyph-name="Icircumflex" unicode="&#xce;" horiz-adv-x="341" 
d="M141 906h60l120 -138h-44l-98 69l-8 10l-8 -10l-99 -69h-43zM28 27l79 10v627l-79 10l3 27l140 -2l139 2l3 -27l-79 -10v-627l79 -10l-3 -28l-139 2l-140 -2z" />
    <glyph glyph-name="Idieresis" unicode="&#xcf;" horiz-adv-x="341" 
d="M11 783l-5 52l9 42l64 6l26 -6l6 -50l-11 -44l-63 -5zM235 783l-5 52l9 42l64 6l26 -6l6 -50l-10 -44l-63 -5zM28 27l79 10v627l-79 10l3 27l140 -2l139 2l3 -27l-79 -10v-627l79 -10l-3 -28l-139 2l-140 -2z" />
    <glyph glyph-name="Eth" unicode="&#xd0;" horiz-adv-x="738" 
d="M611.5 613.5q89.5 -87.5 89.5 -246.5t-86.5 -257t-255.5 -111l-194 2l-134 -2l-3 27l82 10v314h-73v28h73v286l-82 10l3 27l136 -2l196 2q159 0 248.5 -87.5zM461 70.5q49 41.5 76 116.5t27 171q0 142 -59.5 228t-175.5 85l-92 -6v-287h124v-28h-124v-312l110 -8
q65 -1 114 40.5z" />
    <glyph glyph-name="Ntilde" unicode="&#xd1;" horiz-adv-x="713" 
d="M230 875l64 20l186 -64l34 66h20l-28 -110l-64 -19l-186 65l-34 -66h-20zM162 586l-11 41v-591l80 -10l-3 -27l-98 2l-99 -2l-3 27l79 10v626l-77 12l2 27l110 -2l87 2l339 -490l12 -37v490l-79 10l2 27l97 -2l100 2l3 -27l-79 -10v-668h-63z" />
    <glyph glyph-name="Ograve" unicode="&#xd2;" horiz-adv-x="779" 
d="M260 903h116l52 -135h-42zM200.5 28.5q-77.5 45.5 -120.5 126t-43 180.5q0 164 88 257t275 125q101 0 179 -45.5t121 -126t43 -180.5q0 -164 -88 -257t-276 -125q-101 0 -178.5 45.5zM552 111.5q50 85.5 50 220.5q0 92 -26.5 170t-78.5 125t-123 47q-95 0 -145.5 -85.5
t-50.5 -220.5q0 -92 27 -170t79 -125t123 -47q95 0 145 85.5z" />
    <glyph glyph-name="Oacute" unicode="&#xd3;" horiz-adv-x="779" 
d="M419 903h116l-126 -135h-42zM200.5 28.5q-77.5 45.5 -120.5 126t-43 180.5q0 164 88 257t275 125q101 0 179 -45.5t121 -126t43 -180.5q0 -164 -88 -257t-276 -125q-101 0 -178.5 45.5zM552 111.5q50 85.5 50 220.5q0 92 -26.5 170t-78.5 125t-123 47q-95 0 -145.5 -85.5
t-50.5 -220.5q0 -92 27 -170t79 -125t123 -47q95 0 145 85.5z" />
    <glyph glyph-name="Ocircumflex" unicode="&#xd4;" horiz-adv-x="779" 
d="M362 906h60l120 -138h-44l-98 69l-8 10l-8 -10l-99 -69h-43zM200.5 28.5q-77.5 45.5 -120.5 126t-43 180.5q0 164 88 257t275 125q101 0 179 -45.5t121 -126t43 -180.5q0 -164 -88 -257t-276 -125q-101 0 -178.5 45.5zM552 111.5q50 85.5 50 220.5q0 92 -26.5 170
t-78.5 125t-123 47q-95 0 -145.5 -85.5t-50.5 -220.5q0 -92 27 -170t79 -125t123 -47q95 0 145 85.5z" />
    <glyph glyph-name="Otilde" unicode="&#xd5;" horiz-adv-x="779" 
d="M255 875l64 20l186 -64l34 66h20l-28 -110l-64 -19l-186 65l-34 -66h-20zM200.5 28.5q-77.5 45.5 -120.5 126t-43 180.5q0 164 88 257t275 125q101 0 179 -45.5t121 -126t43 -180.5q0 -164 -88 -257t-276 -125q-101 0 -178.5 45.5zM552 111.5q50 85.5 50 220.5
q0 92 -26.5 170t-78.5 125t-123 47q-95 0 -145.5 -85.5t-50.5 -220.5q0 -92 27 -170t79 -125t123 -47q95 0 145 85.5z" />
    <glyph glyph-name="Odieresis" unicode="&#xd6;" horiz-adv-x="779" 
d="M232 783l-5 52l9 42l64 6l26 -6l6 -50l-11 -44l-63 -5zM456 783l-5 52l9 42l64 6l26 -6l6 -50l-10 -44l-63 -5zM200.5 28.5q-77.5 45.5 -120.5 126t-43 180.5q0 164 88 257t275 125q101 0 179 -45.5t121 -126t43 -180.5q0 -164 -88 -257t-276 -125q-101 0 -178.5 45.5z
M552 111.5q50 85.5 50 220.5q0 92 -26.5 170t-78.5 125t-123 47q-95 0 -145.5 -85.5t-50.5 -220.5q0 -92 27 -170t79 -125t123 -47q95 0 145 85.5z" />
    <glyph glyph-name="multiply" unicode="&#xd7;" 
d="M106 53l170 169l-171 171l34 35l171 -171l169 170l35 -35l-170 -170l170 -168l-35 -35l-169 170l-170 -171z" />
    <glyph glyph-name="Oslash" unicode="&#xd8;" horiz-adv-x="779" 
d="M716 512q27 -67 27 -147q0 -164 -88 -257t-276 -125q-118 0 -206 63l-49 -61h-47l68 85q-52 48 -80 116t-28 149q0 164 88 257t275 125q123 0 212 -68l53 66h44l-71 -88q51 -48 78 -115zM220 162l326 405q-30 51 -73.5 79t-98.5 28q-95 0 -145.5 -85.5t-50.5 -220.5
q0 -119 42 -206zM552 111.5q50 85.5 50 220.5q0 114 -39 201l-325 -405q30 -48 73 -75t96 -27q95 0 145 85.5z" />
    <glyph glyph-name="Ugrave" unicode="&#xd9;" horiz-adv-x="699" 
d="M249 903h116l52 -135h-42zM157.5 52.5q-66.5 69.5 -66.5 193.5v418l-78 10l2 27l134 -2l144 2l3 -27l-77 -10v-426q0 -92 44.5 -146t127.5 -54q76 0 120 55t44 146v425l-82 10l3 27l107 -2l101 2l3 -27l-78 -10v-421q0 -104 -52.5 -168t-188.5 -92q-144 0 -210.5 69.5z
" />
    <glyph glyph-name="Uacute" unicode="&#xda;" horiz-adv-x="699" 
d="M407 903h116l-126 -135h-42zM157.5 52.5q-66.5 69.5 -66.5 193.5v418l-78 10l2 27l134 -2l144 2l3 -27l-77 -10v-426q0 -92 44.5 -146t127.5 -54q76 0 120 55t44 146v425l-82 10l3 27l107 -2l101 2l3 -27l-78 -10v-421q0 -104 -52.5 -168t-188.5 -92q-144 0 -210.5 69.5z
" />
    <glyph glyph-name="Ucircumflex" unicode="&#xdb;" horiz-adv-x="699" 
d="M350 906h60l120 -138h-44l-98 69l-8 10l-8 -10l-99 -69h-43zM157.5 52.5q-66.5 69.5 -66.5 193.5v418l-78 10l2 27l134 -2l144 2l3 -27l-77 -10v-426q0 -92 44.5 -146t127.5 -54q76 0 120 55t44 146v425l-82 10l3 27l107 -2l101 2l3 -27l-78 -10v-421q0 -104 -52.5 -168
t-188.5 -92q-144 0 -210.5 69.5z" />
    <glyph glyph-name="Udieresis" unicode="&#xdc;" horiz-adv-x="699" 
d="M220 783l-5 52l9 42l64 6l26 -6l6 -50l-11 -44l-63 -5zM444 783l-5 52l9 42l64 6l26 -6l6 -50l-10 -44l-63 -5zM157.5 52.5q-66.5 69.5 -66.5 193.5v418l-78 10l2 27l134 -2l144 2l3 -27l-77 -10v-426q0 -92 44.5 -146t127.5 -54q76 0 120 55t44 146v425l-82 10l3 27
l107 -2l101 2l3 -27l-78 -10v-421q0 -104 -52.5 -168t-188.5 -92q-144 0 -210.5 69.5z" />
    <glyph glyph-name="Yacute" unicode="&#xdd;" horiz-adv-x="705" 
d="M420 903h116l-126 -135h-42zM185 26l110 10v238l-220 391l-70 9l3 27l144 -2l144 2l3 -27l-81 -10l179 -325l2 -22l183 347l-86 10l2 27l109 -2l90 2l3 -27l-70 -9l-209 -385l1 -244l107 -10l-2 -27l-167 2l-172 -2z" />
    <glyph glyph-name="Thorn" unicode="&#xde;" horiz-adv-x="586" 
d="M24 27l79 10v627l-79 10l2 27l140 -2l151 2l2 -27l-89 -10v-108l139 1q94 0 154.5 -47t60.5 -134q0 -91 -69.5 -139.5t-186.5 -76.5h-98v-123l98 -10l-2 -28l-160 2l-140 -2zM302 196q64 0 104.5 47t40.5 123q0 71 -35 115.5t-101 44.5l-81 -4v-326h72z" />
    <glyph glyph-name="germandbls" unicode="&#xdf;" horiz-adv-x="612" 
d="M336.5 -5.5q-38.5 11.5 -69.5 28.5l-4 126h33l38 -89q43 -37 84 -37q33 0 53 21.5t20 53.5q0 26 -15 50t-49 49l-66 48q-42 29 -61.5 61.5t-20.5 82.5l61 38q34 23 53 59.5t19 85.5q0 43 -23.5 75.5t-68.5 32.5q-52 0 -79 -41t-27 -117v-522l-63 1l-113 -2l-2 26l63 8
v394h-74v10l17 25l57 1v30q0 53 32 103.5t97 79.5l93 42q96 0 154 -35t58 -100q0 -108 -167 -170q2 -27 19 -48t58 -47l69 -47q41 -26 60.5 -56t19.5 -68q0 -59 -48 -101t-131 -63q-38 0 -76.5 11.5z" />
    <glyph glyph-name="agrave" unicode="&#xe0;" horiz-adv-x="488" 
d="M69.5 18.5q-40.5 33.5 -40.5 92.5t48 101l220 71v64q0 49 -12.5 70t-54.5 21q-29 0 -62 -13l-19 -100h-104v79l195 83q67 0 104.5 -14.5t53.5 -47t16 -90.5v-207q0 -44 15 -82l50 3l4 -26l-155 -31l-27 82l-127 -89q-64 0 -104.5 33.5zM269 80l28 19v157l-117 -47
q-33 -28 -33 -77q0 -36 17 -56t42 -20q29 0 63 24zM101 710h112l51 -159h-35z" />
    <glyph glyph-name="aacute" unicode="&#xe1;" horiz-adv-x="488" 
d="M69.5 18.5q-40.5 33.5 -40.5 92.5t48 101l220 71v64q0 49 -12.5 70t-54.5 21q-29 0 -62 -13l-19 -100h-104v79l195 83q67 0 104.5 -14.5t53.5 -47t16 -90.5v-207q0 -44 15 -82l50 3l4 -26l-155 -31l-27 82l-127 -89q-64 0 -104.5 33.5zM269 80l28 19v157l-117 -47
q-33 -28 -33 -77q0 -36 17 -56t42 -20q29 0 63 24zM277 710h113l-128 -159h-36z" />
    <glyph glyph-name="acircumflex" unicode="&#xe2;" horiz-adv-x="488" 
d="M69.5 18.5q-40.5 33.5 -40.5 92.5t48 101l220 71v64q0 49 -12.5 70t-54.5 21q-29 0 -62 -13l-19 -100h-104v79l195 83q67 0 104.5 -14.5t53.5 -47t16 -90.5v-207q0 -44 15 -82l50 3l4 -26l-155 -31l-27 82l-127 -89q-64 0 -104.5 33.5zM269 80l28 19v157l-117 -47
q-33 -28 -33 -77q0 -36 17 -56t42 -20q29 0 63 24zM216 710h54l118 -159h-41l-95 79l-9 14l-9 -14l-94 -79h-42z" />
    <glyph glyph-name="atilde" unicode="&#xe3;" horiz-adv-x="488" 
d="M69.5 18.5q-40.5 33.5 -40.5 92.5t48 101l220 71v64q0 49 -12.5 70t-54.5 21q-29 0 -62 -13l-19 -100h-104v79l195 83q67 0 104.5 -14.5t53.5 -47t16 -90.5v-207q0 -44 15 -82l50 3l4 -26l-155 -31l-27 82l-127 -89q-64 0 -104.5 33.5zM269 80l28 19v157l-117 -47
q-33 -28 -33 -77q0 -36 17 -56t42 -20q29 0 63 24zM129 640l-31 -67h-21l28 105l65 19l185 -66l31 67h21l-29 -107l-64 -18z" />
    <glyph glyph-name="adieresis" unicode="&#xe4;" horiz-adv-x="488" 
d="M69.5 18.5q-40.5 33.5 -40.5 92.5t48 101l220 71v64q0 49 -12.5 70t-54.5 21q-29 0 -62 -13l-19 -100h-104v79l195 83q67 0 104.5 -14.5t53.5 -47t16 -90.5v-207q0 -44 15 -82l50 3l4 -26l-155 -31l-27 82l-127 -89q-64 0 -104.5 33.5zM269 80l28 19v157l-117 -47
q-33 -28 -33 -77q0 -36 17 -56t42 -20q29 0 63 24zM105 584l-5 52l9 42l64 6l26 -6l6 -50l-10 -44l-63 -5zM286 584l-6 52l10 42l64 6l26 -6l6 -50l-11 -44l-63 -5z" />
    <glyph glyph-name="aring" unicode="&#xe5;" horiz-adv-x="488" 
d="M69.5 18.5q-40.5 33.5 -40.5 92.5t48 101l220 71v64q0 49 -12.5 70t-54.5 21q-29 0 -62 -13l-19 -100h-104v79l195 83q67 0 104.5 -14.5t53.5 -47t16 -90.5v-207q0 -44 15 -82l50 3l4 -26l-155 -31l-27 82l-127 -89q-64 0 -104.5 33.5zM269 80l28 19v157l-117 -47
q-33 -28 -33 -77q0 -36 17 -56t42 -20q29 0 63 24zM166 566.5q-32 23.5 -32 74.5q0 43 27 63.5t81 37.5q49 0 79 -23.5t30 -76.5q0 -32 -13.5 -49.5t-29.5 -25t-64 -24.5q-46 0 -78 23.5zM290.5 594q18.5 18 18.5 47t-19 48.5t-47 19.5t-47 -19.5t-19 -48.5t18.5 -47
t47.5 -18t47.5 18z" />
    <glyph glyph-name="ae" unicode="&#xe6;" horiz-adv-x="730" 
d="M698 86q-41 -34 -83 -57.5t-96 -43.5q-64 0 -116.5 27t-82.5 78l-146 -105q-64 0 -104.5 33.5t-40.5 90.5q0 61 48 103l215 71v64q0 48 -11 69.5t-48 21.5q-18 0 -31.5 -3t-32.5 -10l-19 -101h-103v80l190 83q68 0 102 -13t49 -48q47 39 133 61q86 0 130 -51.5t44 -136.5
v-39h-295q2 -89 45.5 -138.5t116.5 -49.5q58 0 122 40zM427.5 402.5q-24.5 -41.5 -27.5 -113.5l177 5q0 76 -16.5 113t-62.5 37t-70.5 -41.5zM297 108q-5 42 -5 80v66l-112 -46q-33 -30 -33 -77q0 -35 17 -54.5t42 -19.5q15 0 29.5 7.5t30.5 19.5z" />
    <glyph glyph-name="ccedilla" unicode="&#xe7;" horiz-adv-x="457" 
d="M299 -67.5q23 -19.5 23 -50.5q0 -68 -96 -102l-62 -24h-43l28 43h75q14 10 21 26.5t7 34.5q0 29 -19 42.5t-48 15.5l48 69q-90 9 -145 71t-55 161q0 111 69.5 178t175.5 90q37 0 77 -15t67 -37v-106h-93l-30 108q-15 9 -39 9q-49 0 -81.5 -45.5t-32.5 -129.5
q0 -56 20 -102t56.5 -72t84.5 -26q30 0 57 10.5t55 29.5l13 -24q-39 -34 -79 -58t-90 -44h-2l-21 -31q36 -2 59 -21.5z" />
    <glyph glyph-name="egrave" unicode="&#xe8;" horiz-adv-x="478" 
d="M445 88q-41 -35 -82.5 -58.5t-97.5 -44.5q-64 0 -117 28t-84.5 81.5t-31.5 125.5q0 106 60.5 173.5t170.5 93.5q89 0 134.5 -50t45.5 -135v-41h-301q4 -87 48.5 -137.5t117.5 -50.5q60 0 124 40zM169.5 405q-25.5 -40 -27.5 -115l181 4v13q0 68 -18 103t-66 35
q-44 0 -69.5 -40zM120 710h112l51 -159h-35z" />
    <glyph glyph-name="eacute" unicode="&#xe9;" horiz-adv-x="478" 
d="M445 88q-41 -35 -82.5 -58.5t-97.5 -44.5q-64 0 -117 28t-84.5 81.5t-31.5 125.5q0 106 60.5 173.5t170.5 93.5q89 0 134.5 -50t45.5 -135v-41h-301q4 -87 48.5 -137.5t117.5 -50.5q60 0 124 40zM169.5 405q-25.5 -40 -27.5 -115l181 4v13q0 68 -18 103t-66 35
q-44 0 -69.5 -40zM296 710h113l-128 -159h-36z" />
    <glyph glyph-name="ecircumflex" unicode="&#xea;" horiz-adv-x="478" 
d="M445 88q-41 -35 -82.5 -58.5t-97.5 -44.5q-64 0 -117 28t-84.5 81.5t-31.5 125.5q0 106 60.5 173.5t170.5 93.5q89 0 134.5 -50t45.5 -135v-41h-301q4 -87 48.5 -137.5t117.5 -50.5q60 0 124 40zM169.5 405q-25.5 -40 -27.5 -115l181 4v13q0 68 -18 103t-66 35
q-44 0 -69.5 -40zM235 710h54l118 -159h-41l-95 79l-9 14l-9 -14l-94 -79h-42z" />
    <glyph glyph-name="edieresis" unicode="&#xeb;" horiz-adv-x="478" 
d="M445 88q-41 -35 -82.5 -58.5t-97.5 -44.5q-64 0 -117 28t-84.5 81.5t-31.5 125.5q0 106 60.5 173.5t170.5 93.5q89 0 134.5 -50t45.5 -135v-41h-301q4 -87 48.5 -137.5t117.5 -50.5q60 0 124 40zM169.5 405q-25.5 -40 -27.5 -115l181 4v13q0 68 -18 103t-66 35
q-44 0 -69.5 -40zM124 584l-5 52l9 42l64 6l26 -6l6 -50l-10 -44l-63 -5zM305 584l-6 52l10 42l64 6l26 -6l6 -50l-11 -44l-63 -5z" />
    <glyph glyph-name="igrave" unicode="&#xec;" horiz-adv-x="293" 
d="M34 26l62 9v390l-63 -9l-3 27l146 34l34 1v-443l63 -9l-2 -27l-118 2l-116 -2zM9 710h112l51 -159h-35z" />
    <glyph glyph-name="iacute" unicode="&#xed;" horiz-adv-x="293" 
d="M34 26l62 9v390l-63 -9l-3 27l146 34l34 1v-443l63 -9l-2 -27l-118 2l-116 -2zM185 710h113l-128 -159h-36z" />
    <glyph glyph-name="icircumflex" unicode="&#xee;" horiz-adv-x="293" 
d="M34 26l62 9v390l-63 -9l-3 27l146 34l34 1v-443l63 -9l-2 -27l-118 2l-116 -2zM124 710h54l118 -159h-41l-95 79l-9 14l-9 -14l-94 -79h-42z" />
    <glyph glyph-name="idieresis" unicode="&#xef;" horiz-adv-x="293" 
d="M34 26l62 9v390l-63 -9l-3 27l146 34l34 1v-443l63 -9l-2 -27l-118 2l-116 -2zM13 584l-5 52l9 42l64 6l26 -6l6 -50l-10 -44l-63 -5zM194 584l-6 52l10 42l64 6l26 -6l6 -50l-11 -44l-63 -5z" />
    <glyph glyph-name="eth" unicode="&#xf0;" horiz-adv-x="540" 
d="M458 472q45 -89 45 -199q0 -127 -60.5 -202.5t-170.5 -85.5q-113 20 -177.5 90t-64.5 178q0 93 49.5 154.5t138.5 63.5l156 -82q-20 128 -102 210l-114 -56v33l90 44q-48 41 -123 72l14 28q90 -30 159 -75l112 54v-33l-84 -41q87 -64 132 -153zM349 91.5
q33 68.5 33 187.5q0 46 -4 78l-29 16q-31 16 -52.5 23.5t-42.5 7.5q-48 0 -74 -43.5t-26 -127.5q0 -101 29.5 -155.5t79.5 -54.5q53 0 86 68.5z" />
    <glyph glyph-name="ntilde" unicode="&#xf1;" horiz-adv-x="593" 
d="M35 26l61 9v389l-63 -9l-3 28l146 34l32 1l2 -95l165 104q54 0 83 -15t40 -47.5t11 -90.5v-299l67 -9l-2 -27l-120 2l-104 -2l-3 27l45 9v302q0 37 -14.5 53.5t-43.5 16.5q-22 0 -41 -9t-52 -30l-30 -19v-314l46 -9l-2 -27l-101 2l-117 -2zM183 640l-31 -67h-21l28 105
l65 19l185 -66l31 67h21l-29 -107l-64 -18z" />
    <glyph glyph-name="ograve" unicode="&#xf2;" horiz-adv-x="537" 
d="M138.5 15.5q-50.5 30.5 -78.5 85t-28 123.5q0 113 66.5 175.5t185.5 87.5q64 0 114 -30.5t78.5 -85t28.5 -123.5q0 -113 -67 -176t-186 -87q-63 0 -113.5 30.5zM355.5 73.5q26.5 49.5 26.5 139.5q0 111 -35.5 172.5t-91.5 61.5q-49 0 -75.5 -49t-26.5 -140
q0 -70 16.5 -123t45.5 -82t65 -29q49 0 75.5 49.5zM129 710h112l51 -159h-35z" />
    <glyph glyph-name="oacute" unicode="&#xf3;" horiz-adv-x="537" 
d="M138.5 15.5q-50.5 30.5 -78.5 85t-28 123.5q0 113 66.5 175.5t185.5 87.5q64 0 114 -30.5t78.5 -85t28.5 -123.5q0 -113 -67 -176t-186 -87q-63 0 -113.5 30.5zM355.5 73.5q26.5 49.5 26.5 139.5q0 111 -35.5 172.5t-91.5 61.5q-49 0 -75.5 -49t-26.5 -140
q0 -70 16.5 -123t45.5 -82t65 -29q49 0 75.5 49.5zM305 710h113l-128 -159h-36z" />
    <glyph glyph-name="ocircumflex" unicode="&#xf4;" horiz-adv-x="537" 
d="M138.5 15.5q-50.5 30.5 -78.5 85t-28 123.5q0 113 66.5 175.5t185.5 87.5q64 0 114 -30.5t78.5 -85t28.5 -123.5q0 -113 -67 -176t-186 -87q-63 0 -113.5 30.5zM355.5 73.5q26.5 49.5 26.5 139.5q0 111 -35.5 172.5t-91.5 61.5q-49 0 -75.5 -49t-26.5 -140
q0 -70 16.5 -123t45.5 -82t65 -29q49 0 75.5 49.5zM243 710h54l118 -159h-41l-95 79l-9 14l-9 -14l-94 -79h-42z" />
    <glyph glyph-name="otilde" unicode="&#xf5;" horiz-adv-x="537" 
d="M138.5 15.5q-50.5 30.5 -78.5 85t-28 123.5q0 113 66.5 175.5t185.5 87.5q64 0 114 -30.5t78.5 -85t28.5 -123.5q0 -113 -67 -176t-186 -87q-63 0 -113.5 30.5zM355.5 73.5q26.5 49.5 26.5 139.5q0 111 -35.5 172.5t-91.5 61.5q-49 0 -75.5 -49t-26.5 -140
q0 -70 16.5 -123t45.5 -82t65 -29q49 0 75.5 49.5zM157 640l-31 -67h-21l28 105l65 19l185 -66l31 67h21l-29 -107l-64 -18z" />
    <glyph glyph-name="odieresis" unicode="&#xf6;" horiz-adv-x="537" 
d="M138.5 15.5q-50.5 30.5 -78.5 85t-28 123.5q0 113 66.5 175.5t185.5 87.5q64 0 114 -30.5t78.5 -85t28.5 -123.5q0 -113 -67 -176t-186 -87q-63 0 -113.5 30.5zM355.5 73.5q26.5 49.5 26.5 139.5q0 111 -35.5 172.5t-91.5 61.5q-49 0 -75.5 -49t-26.5 -140
q0 -70 16.5 -123t45.5 -82t65 -29q49 0 75.5 49.5zM132 584l-5 52l9 42l64 6l26 -6l6 -50l-10 -44l-63 -5zM313 584l-6 52l10 42l64 6l26 -6l6 -50l-11 -44l-63 -5z" />
    <glyph glyph-name="divide" unicode="&#xf7;" 
d="M258 378l-5 57l6 48l76 6l29 -6l6 -56l-7 -49l-75 -6zM47 275h525v-49h-525v49zM258 10l-5 57l6 48l76 6l29 -6l6 -55l-7 -50l-75 -6z" />
    <glyph glyph-name="oslash" unicode="&#xf8;" horiz-adv-x="543" 
d="M489.5 341.5q15.5 -43.5 15.5 -93.5q0 -113 -67 -176t-186 -87q-81 0 -138 48l-37 -43h-39l55 63q-29 32 -45 76t-16 95q0 113 66.5 175.5t185.5 87.5q83 0 142 -50l40 46h37l-57 -66q28 -32 43.5 -75.5zM168 140l191 219q-17 43 -44 65.5t-60 22.5q-49 0 -75.5 -49
t-26.5 -140q0 -68 15 -118zM355.5 73.5q26.5 49.5 26.5 139.5q0 63 -13 115l-190 -220q17 -40 43.5 -62t57.5 -22q49 0 75.5 49.5z" />
    <glyph glyph-name="ugrave" unicode="&#xf9;" horiz-adv-x="567" 
d="M128.5 0.5q-29.5 15.5 -41 47.5t-11.5 89v287l-61 -6l-3 29l143 28l38 2v-339q0 -38 15 -55.5t45 -17.5q18 0 37 8.5t48 26.5l28 18v306l-57 -6l-3 29l138 28l37 2v-346q0 -28 3 -46.5t10 -39.5l47 3l3 -27l-151 -28l-23 91l-156 -99q-56 0 -85.5 15.5zM137 710h112
l51 -159h-35z" />
    <glyph glyph-name="uacute" unicode="&#xfa;" horiz-adv-x="567" 
d="M128.5 0.5q-29.5 15.5 -41 47.5t-11.5 89v287l-61 -6l-3 29l143 28l38 2v-339q0 -38 15 -55.5t45 -17.5q18 0 37 8.5t48 26.5l28 18v306l-57 -6l-3 29l138 28l37 2v-346q0 -28 3 -46.5t10 -39.5l47 3l3 -27l-151 -28l-23 91l-156 -99q-56 0 -85.5 15.5zM313 710h113
l-128 -159h-36z" />
    <glyph glyph-name="ucircumflex" unicode="&#xfb;" horiz-adv-x="567" 
d="M128.5 0.5q-29.5 15.5 -41 47.5t-11.5 89v287l-61 -6l-3 29l143 28l38 2v-339q0 -38 15 -55.5t45 -17.5q18 0 37 8.5t48 26.5l28 18v306l-57 -6l-3 29l138 28l37 2v-346q0 -28 3 -46.5t10 -39.5l47 3l3 -27l-151 -28l-23 91l-156 -99q-56 0 -85.5 15.5zM252 710h54
l118 -159h-41l-95 79l-9 14l-9 -14l-94 -79h-42z" />
    <glyph glyph-name="udieresis" unicode="&#xfc;" horiz-adv-x="567" 
d="M128.5 0.5q-29.5 15.5 -41 47.5t-11.5 89v287l-61 -6l-3 29l143 28l38 2v-339q0 -38 15 -55.5t45 -17.5q18 0 37 8.5t48 26.5l28 18v306l-57 -6l-3 29l138 28l37 2v-346q0 -28 3 -46.5t10 -39.5l47 3l3 -27l-151 -28l-23 91l-156 -99q-56 0 -85.5 15.5zM141 584l-5 52
l9 42l64 6l26 -6l6 -50l-10 -44l-63 -5zM322 584l-6 52l10 42l64 6l26 -6l6 -50l-11 -44l-63 -5z" />
    <glyph glyph-name="yacute" unicode="&#xfd;" horiz-adv-x="545" 
d="M86 -123h112l103 160l-82 -31l-162 431l-52 8l3 27l119 -1l112 1l2 -27l-57 -8l120 -331l5 -39l124 370l-56 8l3 27l83 -1l75 1l2 -27l-57 -8l-149 -406l-119 -266h-129v112zM328 710h113l-128 -159h-36z" />
    <glyph glyph-name="thorn" unicode="&#xfe;" horiz-adv-x="549" 
d="M19 -204l62 9v857l-62 -9l-3 27l146 31l34 2v-323l135 97q54 0 97 -28t67.5 -79t24.5 -116q0 -233 -240 -279q-49 0 -84 23v-203l94 -9l-2 -27l-150 2l-116 -2zM366 77.5q32 53.5 32 143.5q0 85 -27.5 135t-74.5 50q-19 0 -35 -8t-44 -28l-21 -14v-289q14 -20 36 -31.5
t49 -11.5q53 0 85 53.5z" />
    <glyph glyph-name="ydieresis" unicode="&#xff;" horiz-adv-x="545" 
d="M86 -123h112l103 160l-82 -31l-162 431l-52 8l3 27l119 -1l112 1l2 -27l-57 -8l120 -331l5 -39l124 370l-56 8l3 27l83 -1l75 1l2 -27l-57 -8l-149 -406l-119 -266h-129v112zM156 584l-5 52l9 42l64 6l26 -6l6 -50l-10 -44l-63 -5zM337 584l-6 52l10 42l64 6l26 -6l6 -50
l-11 -44l-63 -5z" />
    <glyph glyph-name="Amacron" unicode="&#x100;" horiz-adv-x="720" 
d="M216 848h287v-52h-287v52zM7 26l68 10l236 646l93 31l240 -678l70 -9l-3 -27l-150 2l-134 -2l-2 27l80 10l-69 204h-242l-70 -204l82 -10l-2 -27l-106 2l-89 -2zM424 274l-102 305l-2 28l-114 -333h218z" />
    <glyph glyph-name="amacron" unicode="&#x101;" horiz-adv-x="488" 
d="M69.5 18.5q-40.5 33.5 -40.5 92.5t48 101l220 71v64q0 49 -12.5 70t-54.5 21q-29 0 -62 -13l-19 -100h-104v79l195 83q67 0 104.5 -14.5t53.5 -47t16 -90.5v-207q0 -44 15 -82l50 3l4 -26l-155 -31l-27 82l-127 -89q-64 0 -104.5 33.5zM269 80l28 19v157l-117 -47
q-33 -28 -33 -77q0 -36 17 -56t42 -20q29 0 63 24zM100 657h286v-53h-286v53z" />
    <glyph glyph-name="Abreve" unicode="&#x102;" horiz-adv-x="720" 
d="M279 791q-38 34 -59 82l20 15q19 -27 48 -47.5t71 -20.5t70 20t50 49l19 -16q-18 -37 -44 -64t-81 -52q-56 0 -94 34zM7 26l68 10l236 646l93 31l240 -678l70 -9l-3 -27l-150 2l-134 -2l-2 27l80 10l-69 204h-242l-70 -204l82 -10l-2 -27l-106 2l-89 -2zM424 274
l-102 305l-2 28l-114 -333h218z" />
    <glyph glyph-name="abreve" unicode="&#x103;" horiz-adv-x="488" 
d="M69.5 18.5q-40.5 33.5 -40.5 92.5t48 101l220 71v64q0 49 -12.5 70t-54.5 21q-29 0 -62 -13l-19 -100h-104v79l195 83q67 0 104.5 -14.5t53.5 -47t16 -90.5v-207q0 -44 15 -82l50 3l4 -26l-155 -31l-27 82l-127 -89q-64 0 -104.5 33.5zM269 80l28 19v157l-117 -47
q-33 -28 -33 -77q0 -36 17 -56t42 -20q29 0 63 24zM156 598.5q-43 36.5 -61 87.5l21 16q20 -30 52 -50.5t75 -20.5q42 0 69 20t51 51l22 -16q-18 -39 -48.5 -69.5t-81.5 -54.5q-56 0 -99 36.5z" />
    <glyph glyph-name="Aogonek" unicode="&#x104;" horiz-adv-x="720" 
d="M476 -109v-43q0 -69 109 -69v-23q-101 0 -145 25t-44 77v51l112 115l-72 216h-242l-70 -204l82 -10l-2 -27l-106 2l-89 -2l-2 27l68 10l236 646l93 31l240 -678l70 -9l-3 -27l-185 2zM424 274l-102 305l-2 28l-114 -333h218z" />
    <glyph glyph-name="aogonek" unicode="&#x105;" horiz-adv-x="488" 
d="M422 -221v-23q-101 0 -145 25t-44 77v51l91 94l-23 71l-127 -89q-64 0 -104.5 33.5t-40.5 92.5t48 101l220 71v64q0 49 -12.5 70t-54.5 21q-29 0 -62 -13l-19 -100h-104v79l195 83q67 0 104.5 -14.5t53.5 -47t16 -90.5v-207q0 -44 15 -82l50 3l4 -26l-121 -24l-49 -108
v-43q0 -69 109 -69zM297 256l-117 -47q-33 -28 -33 -77q0 -36 17 -56t42 -20q29 0 63 24l28 19v157z" />
    <glyph glyph-name="Cacute" unicode="&#x106;" horiz-adv-x="694" 
d="M431 903h116l-126 -135h-42zM218.5 24q-82.5 41 -132 121t-49.5 191q0 168 100.5 263.5t279.5 117.5q123 0 233 -62v-163h-38l-50 121q-58 66 -154 66q-66 0 -118 -36.5t-82 -109t-30 -174.5q0 -91 28 -168t83 -122.5t133 -45.5q76 0 139 61l59 136h37l-11 -169
q-121 -53 -248 -68q-97 0 -179.5 41z" />
    <glyph glyph-name="cacute" unicode="&#x107;" horiz-adv-x="457" 
d="M144.5 13.5q-52.5 28.5 -82 81.5t-29.5 124q0 111 69.5 178t175.5 90q37 0 77 -15t67 -37v-106h-93l-30 108q-15 9 -39 9q-49 0 -81.5 -45.5t-32.5 -129.5q0 -56 20 -102t56.5 -72t84.5 -26q30 0 57 10.5t55 29.5l13 -24q-39 -34 -79 -58t-90 -44q-66 0 -118.5 28.5z
M297 710h113l-128 -159h-36z" />
    <glyph glyph-name="Ccircumflex" unicode="&#x108;" horiz-adv-x="694" 
d="M374 906h60l120 -138h-44l-98 69l-8 10l-8 -10l-99 -69h-43zM218.5 24q-82.5 41 -132 121t-49.5 191q0 168 100.5 263.5t279.5 117.5q123 0 233 -62v-163h-38l-50 121q-58 66 -154 66q-66 0 -118 -36.5t-82 -109t-30 -174.5q0 -91 28 -168t83 -122.5t133 -45.5
q76 0 139 61l59 136h37l-11 -169q-121 -53 -248 -68q-97 0 -179.5 41z" />
    <glyph glyph-name="ccircumflex" unicode="&#x109;" horiz-adv-x="457" 
d="M144.5 13.5q-52.5 28.5 -82 81.5t-29.5 124q0 111 69.5 178t175.5 90q37 0 77 -15t67 -37v-106h-93l-30 108q-15 9 -39 9q-49 0 -81.5 -45.5t-32.5 -129.5q0 -56 20 -102t56.5 -72t84.5 -26q30 0 57 10.5t55 29.5l13 -24q-39 -34 -79 -58t-90 -44q-66 0 -118.5 28.5z
M235 710h54l118 -159h-41l-95 79l-9 14l-9 -14l-94 -79h-42z" />
    <glyph glyph-name="Cdotaccent" unicode="&#x10a;" horiz-adv-x="694" 
d="M353 785l-6 58l10 48l72 5l32 -5l5 -57l-11 -49l-70 -5zM218.5 24q-82.5 41 -132 121t-49.5 191q0 168 100.5 263.5t279.5 117.5q123 0 233 -62v-163h-38l-50 121q-58 66 -154 66q-66 0 -118 -36.5t-82 -109t-30 -174.5q0 -91 28 -168t83 -122.5t133 -45.5q76 0 139 61
l59 136h37l-11 -169q-121 -53 -248 -68q-97 0 -179.5 41z" />
    <glyph glyph-name="cdotaccent" unicode="&#x10b;" horiz-adv-x="457" 
d="M144.5 13.5q-52.5 28.5 -82 81.5t-29.5 124q0 111 69.5 178t175.5 90q37 0 77 -15t67 -37v-106h-93l-30 108q-15 9 -39 9q-49 0 -81.5 -45.5t-32.5 -129.5q0 -56 20 -102t56.5 -72t84.5 -26q30 0 57 10.5t55 29.5l13 -24q-39 -34 -79 -58t-90 -44q-66 0 -118.5 28.5z
M208 585l-5 57l10 48l71 5l32 -5l5 -57l-11 -48l-70 -6z" />
    <glyph glyph-name="Ccaron" unicode="&#x10c;" horiz-adv-x="694" 
d="M253 903h43l99 -69l8 -10l8 10l98 69h44l-120 -137h-60zM218.5 24q-82.5 41 -132 121t-49.5 191q0 168 100.5 263.5t279.5 117.5q123 0 233 -62v-163h-38l-50 121q-58 66 -154 66q-66 0 -118 -36.5t-82 -109t-30 -174.5q0 -91 28 -168t83 -122.5t133 -45.5q76 0 139 61
l59 136h37l-11 -169q-121 -53 -248 -68q-97 0 -179.5 41z" />
    <glyph glyph-name="ccaron" unicode="&#x10d;" horiz-adv-x="457" 
d="M144.5 13.5q-52.5 28.5 -82 81.5t-29.5 124q0 111 69.5 178t175.5 90q37 0 77 -15t67 -37v-106h-93l-30 108q-15 9 -39 9q-49 0 -81.5 -45.5t-32.5 -129.5q0 -56 20 -102t56.5 -72t84.5 -26q30 0 57 10.5t55 29.5l13 -24q-39 -34 -79 -58t-90 -44q-66 0 -118.5 28.5z
M119 710h42l92 -80l10 -13l9 13l92 80h42l-115 -159h-57z" />
    <glyph glyph-name="Dcaron" unicode="&#x10e;" horiz-adv-x="738" 
d="M180 903h43l99 -69l8 -10l8 10l98 69h44l-120 -137h-60zM28 26l82 10v628l-82 10l3 27l136 -2l196 2q159 0 248.5 -87.5t89.5 -246.5t-86.5 -257t-255.5 -111l-194 2l-134 -2zM461 70.5q49 41.5 76 116.5t27 171q0 142 -59.5 228t-175.5 85l-92 -6v-627l110 -8
q65 -1 114 40.5z" />
    <glyph glyph-name="dcaron" unicode="&#x10f;" horiz-adv-x="631" 
d="M127.5 15q-45.5 30 -70.5 82.5t-25 118.5q0 111 59.5 180.5t172.5 90.5q21 0 47 -8t46 -19v199l-61 -6l-4 27l142 32l37 2v-589q0 -27 3.5 -43.5t12.5 -35.5l55 3l3 -27l-155 -30l-29 88l-130 -95q-58 0 -103.5 30zM293.5 75q16.5 7 41.5 24l22 17v294q-13 16 -33.5 25.5
t-45.5 9.5q-59 0 -91 -52t-32 -142q0 -82 28 -132.5t74 -50.5q20 0 36.5 7zM527 445q30 65 54 142l-23 -2l-37 5l-5 63l7 51l82 6l32 -6l5 -60l-8 -54l-81 -155z" />
    <glyph glyph-name="Dcroat" unicode="&#x110;" horiz-adv-x="738" 
d="M611.5 613.5q89.5 -87.5 89.5 -246.5t-86.5 -257t-255.5 -111l-194 2l-134 -2l-3 27l82 10v314h-73v28h73v286l-82 10l3 27l136 -2l196 2q159 0 248.5 -87.5zM461 70.5q49 41.5 76 116.5t27 171q0 142 -59.5 228t-175.5 85l-92 -6v-287h124v-28h-124v-312l110 -8
q65 -1 114 40.5z" />
    <glyph glyph-name="dcroat" unicode="&#x111;" horiz-adv-x="563" 
d="M545 22l-155 -30l-29 88l-130 -95q-58 0 -103.5 30t-70.5 82.5t-25 118.5q0 111 59.5 180.5t172.5 90.5q21 0 47 -8t46 -19v106h-115v26h115v67l-61 -6l-4 27l142 32l37 2v-122h68v-26h-68v-441q0 -27 3.5 -43.5t12.5 -35.5l55 3zM357 410q-13 16 -33.5 25.5t-45.5 9.5
q-59 0 -91 -52t-32 -142q0 -82 28 -132.5t74 -50.5q20 0 36.5 7t41.5 24l22 17v294z" />
    <glyph glyph-name="Emacron" unicode="&#x112;" 
d="M191 848h287v-52h-287v52zM28 26l79 10v628l-79 10l3 27l135 -2l410 2l5 -186h-28l-64 149l-255 2v-283l137 2l43 114h28l-5 -130l5 -133h-28l-43 112l-137 2v-316l263 2l68 154h29l-17 -191l-411 2l-135 -2z" />
    <glyph glyph-name="emacron" unicode="&#x113;" horiz-adv-x="478" 
d="M445 88q-41 -35 -82.5 -58.5t-97.5 -44.5q-64 0 -117 28t-84.5 81.5t-31.5 125.5q0 106 60.5 173.5t170.5 93.5q89 0 134.5 -50t45.5 -135v-41h-301q4 -87 48.5 -137.5t117.5 -50.5q60 0 124 40zM169.5 405q-25.5 -40 -27.5 -115l181 4v13q0 68 -18 103t-66 35
q-44 0 -69.5 -40zM119 657h286v-53h-286v53z" />
    <glyph glyph-name="Ebreve" unicode="&#x114;" 
d="M255 791q-38 34 -59 82l20 15q19 -27 48 -47.5t71 -20.5t70 20t50 49l19 -16q-18 -37 -44 -64t-81 -52q-56 0 -94 34zM28 26l79 10v628l-79 10l3 27l135 -2l410 2l5 -186h-28l-64 149l-255 2v-283l137 2l43 114h28l-5 -130l5 -133h-28l-43 112l-137 2v-316l263 2l68 154
h29l-17 -191l-411 2l-135 -2z" />
    <glyph glyph-name="ebreve" unicode="&#x115;" horiz-adv-x="478" 
d="M445 88q-41 -35 -82.5 -58.5t-97.5 -44.5q-64 0 -117 28t-84.5 81.5t-31.5 125.5q0 106 60.5 173.5t170.5 93.5q89 0 134.5 -50t45.5 -135v-41h-301q4 -87 48.5 -137.5t117.5 -50.5q60 0 124 40zM169.5 405q-25.5 -40 -27.5 -115l181 4v13q0 68 -18 103t-66 35
q-44 0 -69.5 -40zM175 598.5q-43 36.5 -61 87.5l21 16q20 -30 52 -50.5t75 -20.5q42 0 69 20t51 51l22 -16q-18 -39 -48.5 -69.5t-81.5 -54.5q-56 0 -99 36.5z" />
    <glyph glyph-name="Edotaccent" unicode="&#x116;" 
d="M281 785l-6 58l10 48l72 5l32 -5l5 -57l-11 -49l-70 -5zM28 26l79 10v628l-79 10l3 27l135 -2l410 2l5 -186h-28l-64 149l-255 2v-283l137 2l43 114h28l-5 -130l5 -133h-28l-43 112l-137 2v-316l263 2l68 154h29l-17 -191l-411 2l-135 -2z" />
    <glyph glyph-name="edotaccent" unicode="&#x117;" horiz-adv-x="478" 
d="M445 88q-41 -35 -82.5 -58.5t-97.5 -44.5q-64 0 -117 28t-84.5 81.5t-31.5 125.5q0 106 60.5 173.5t170.5 93.5q89 0 134.5 -50t45.5 -135v-41h-301q4 -87 48.5 -137.5t117.5 -50.5q60 0 124 40zM169.5 405q-25.5 -40 -27.5 -115l181 4v13q0 68 -18 103t-66 35
q-44 0 -69.5 -40zM207 585l-5 57l10 48l71 5l32 -5l5 -57l-11 -48l-70 -6z" />
    <glyph glyph-name="Eogonek" unicode="&#x118;" 
d="M465 -109v-43q0 -69 109 -69v-23q-101 0 -145 25t-44 77v51l88 91l-307 1l-135 -2l-3 27l79 10v628l-79 10l3 27l135 -2l410 2l5 -186h-28l-64 149l-255 2v-283l137 2l43 114h28l-5 -130l5 -133h-28l-43 112l-137 2v-316l263 2l68 154h29l-17 -191h-63z" />
    <glyph glyph-name="eogonek" unicode="&#x119;" horiz-adv-x="478" 
d="M375 -221v-23q-101 0 -145 25t-44 77v51l74 76q-63 1 -115 29.5t-82.5 81.5t-30.5 124q0 106 60.5 173.5t170.5 93.5q89 0 134.5 -50t45.5 -135v-41h-301q4 -87 48.5 -137.5t117.5 -50.5q60 0 124 40l13 -25q-60 -51 -127 -81l-52 -116v-43q0 -69 109 -69zM169.5 405
q-25.5 -40 -27.5 -115l181 4v13q0 68 -18 103t-66 35q-44 0 -69.5 -40z" />
    <glyph glyph-name="Ecaron" unicode="&#x11a;" 
d="M185 903h43l99 -69l8 -10l8 10l98 69h44l-120 -137h-60zM28 26l79 10v628l-79 10l3 27l135 -2l410 2l5 -186h-28l-64 149l-255 2v-283l137 2l43 114h28l-5 -130l5 -133h-28l-43 112l-137 2v-316l263 2l68 154h29l-17 -191l-411 2l-135 -2z" />
    <glyph glyph-name="ecaron" unicode="&#x11b;" horiz-adv-x="478" 
d="M445 88q-41 -35 -82.5 -58.5t-97.5 -44.5q-64 0 -117 28t-84.5 81.5t-31.5 125.5q0 106 60.5 173.5t170.5 93.5q89 0 134.5 -50t45.5 -135v-41h-301q4 -87 48.5 -137.5t117.5 -50.5q60 0 124 40zM169.5 405q-25.5 -40 -27.5 -115l181 4v13q0 68 -18 103t-66 35
q-44 0 -69.5 -40zM118 710h42l92 -80l10 -13l9 13l92 80h42l-115 -159h-57z" />
    <glyph glyph-name="Gcircumflex" unicode="&#x11c;" horiz-adv-x="736" 
d="M383 906h60l120 -138h-44l-98 69l-8 10l-8 -10l-99 -69h-43zM212 24.5q-80 41.5 -127.5 121t-47.5 189.5q0 169 99.5 264.5t280.5 117.5q70 0 130 -18.5t103 -44.5v-162h-36l-50 119q-25 30 -64 49t-91 19q-70 0 -122 -39.5t-80.5 -112t-28.5 -171.5q0 -91 27.5 -167
t80 -121.5t124.5 -45.5q39 0 69.5 14t49.5 34v214l-83 11l2 28l145 -1l118 1l3 -28l-58 -11v-231q-54 -24 -123.5 -43.5t-145.5 -26.5q-95 0 -175 41.5z" />
    <glyph glyph-name="gcircumflex" unicode="&#x11d;" horiz-adv-x="523" 
d="M73 -214q-55 30 -55 96v20l115 81q-48 13 -69 39t-21 64v16l102 72q-47 18 -74.5 54t-27.5 83q1 65 51 107t153 69q58 0 101 -22.5t64 -61.5l50 84h56v-98h-79l-15 -11q8 -19 8 -41q-1 -67 -49.5 -109.5t-152.5 -69.5q-32 0 -59 8l-40 -44q0 -23 14 -34.5t38 -11.5h189
q58 0 89.5 -29t31.5 -74q0 -69 -70 -123.5t-190 -93.5q-105 0 -160 30zM300.5 224q19.5 30 19.5 84q0 62 -21.5 102.5t-68.5 40.5q-36 0 -55.5 -31t-19.5 -86q0 -60 21.5 -100t68.5 -40q36 0 55.5 30zM329 -168q37 14 58 38t21 53q0 56 -79 56h-170q-24 -23 -32.5 -41
t-8.5 -36q0 -37 33.5 -60.5t93.5 -23.5q47 0 84 14zM235 710h54l118 -159h-41l-95 79l-9 14l-9 -14l-94 -79h-42z" />
    <glyph glyph-name="Gbreve" unicode="&#x11e;" horiz-adv-x="736" 
d="M333 791q-38 34 -59 82l20 15q19 -27 48 -47.5t71 -20.5t70 20t50 49l19 -16q-18 -37 -44 -64t-81 -52q-56 0 -94 34zM212 24.5q-80 41.5 -127.5 121t-47.5 189.5q0 169 99.5 264.5t280.5 117.5q70 0 130 -18.5t103 -44.5v-162h-36l-50 119q-25 30 -64 49t-91 19
q-70 0 -122 -39.5t-80.5 -112t-28.5 -171.5q0 -91 27.5 -167t80 -121.5t124.5 -45.5q39 0 69.5 14t49.5 34v214l-83 11l2 28l145 -1l118 1l3 -28l-58 -11v-231q-54 -24 -123.5 -43.5t-145.5 -26.5q-95 0 -175 41.5z" />
    <glyph glyph-name="gbreve" unicode="&#x11f;" horiz-adv-x="523" 
d="M73 -214q-55 30 -55 96v20l115 81q-48 13 -69 39t-21 64v16l102 72q-47 18 -74.5 54t-27.5 83q1 65 51 107t153 69q58 0 101 -22.5t64 -61.5l50 84h56v-98h-79l-15 -11q8 -19 8 -41q-1 -67 -49.5 -109.5t-152.5 -69.5q-32 0 -59 8l-40 -44q0 -23 14 -34.5t38 -11.5h189
q58 0 89.5 -29t31.5 -74q0 -69 -70 -123.5t-190 -93.5q-105 0 -160 30zM300.5 224q19.5 30 19.5 84q0 62 -21.5 102.5t-68.5 40.5q-36 0 -55.5 -31t-19.5 -86q0 -60 21.5 -100t68.5 -40q36 0 55.5 30zM329 -168q37 14 58 38t21 53q0 56 -79 56h-170q-24 -23 -32.5 -41
t-8.5 -36q0 -37 33.5 -60.5t93.5 -23.5q47 0 84 14zM175 598.5q-43 36.5 -61 87.5l21 16q20 -30 52 -50.5t75 -20.5q42 0 69 20t51 51l22 -16q-18 -39 -48.5 -69.5t-81.5 -54.5q-56 0 -99 36.5z" />
    <glyph glyph-name="Gdotaccent" unicode="&#x120;" horiz-adv-x="736" 
d="M359 785l-6 58l10 48l72 5l32 -5l5 -57l-11 -49l-70 -5zM212 24.5q-80 41.5 -127.5 121t-47.5 189.5q0 169 99.5 264.5t280.5 117.5q70 0 130 -18.5t103 -44.5v-162h-36l-50 119q-25 30 -64 49t-91 19q-70 0 -122 -39.5t-80.5 -112t-28.5 -171.5q0 -91 27.5 -167
t80 -121.5t124.5 -45.5q39 0 69.5 14t49.5 34v214l-83 11l2 28l145 -1l118 1l3 -28l-58 -11v-231q-54 -24 -123.5 -43.5t-145.5 -26.5q-95 0 -175 41.5z" />
    <glyph glyph-name="gdotaccent" unicode="&#x121;" horiz-adv-x="523" 
d="M73 -214q-55 30 -55 96v20l115 81q-48 13 -69 39t-21 64v16l102 72q-47 18 -74.5 54t-27.5 83q1 65 51 107t153 69q58 0 101 -22.5t64 -61.5l50 84h56v-98h-79l-15 -11q8 -19 8 -41q-1 -67 -49.5 -109.5t-152.5 -69.5q-32 0 -59 8l-40 -44q0 -23 14 -34.5t38 -11.5h189
q58 0 89.5 -29t31.5 -74q0 -69 -70 -123.5t-190 -93.5q-105 0 -160 30zM300.5 224q19.5 30 19.5 84q0 62 -21.5 102.5t-68.5 40.5q-36 0 -55.5 -31t-19.5 -86q0 -60 21.5 -100t68.5 -40q36 0 55.5 30zM329 -168q37 14 58 38t21 53q0 56 -79 56h-170q-24 -23 -32.5 -41
t-8.5 -36q0 -37 33.5 -60.5t93.5 -23.5q47 0 84 14zM207 585l-5 57l10 48l71 5l32 -5l5 -57l-11 -48l-70 -6z" />
    <glyph glyph-name="uni0122" unicode="&#x122;" horiz-adv-x="736" 
d="M212 24.5q-80 41.5 -127.5 121t-47.5 189.5q0 169 99.5 264.5t280.5 117.5q70 0 130 -18.5t103 -44.5v-162h-36l-50 119q-25 30 -64 49t-91 19q-70 0 -122 -39.5t-80.5 -112t-28.5 -171.5q0 -91 27.5 -167t80 -121.5t124.5 -45.5q39 0 69.5 14t49.5 34v214l-83 11l2 28
l145 -1l118 1l3 -28l-58 -11v-231q-54 -24 -123.5 -43.5t-145.5 -26.5q-95 0 -175 41.5zM341 -232l36 104l-32 34v42h108v-77l-87 -110z" />
    <glyph glyph-name="uni0123" unicode="&#x123;" horiz-adv-x="523" 
d="M73 -214q-55 30 -55 96v20l115 81q-48 13 -69 39t-21 64v16l102 72q-47 18 -74.5 54t-27.5 83q1 65 51 107t153 69q58 0 101 -22.5t64 -61.5l50 84h56v-98h-79l-15 -11q8 -19 8 -41q-1 -67 -49.5 -109.5t-152.5 -69.5q-32 0 -59 8l-40 -44q0 -23 14 -34.5t38 -11.5h189
q58 0 89.5 -29t31.5 -74q0 -69 -70 -123.5t-190 -93.5q-105 0 -160 30zM300.5 224q19.5 30 19.5 84q0 62 -21.5 102.5t-68.5 40.5q-36 0 -55.5 -31t-19.5 -86q0 -60 21.5 -100t68.5 -40q36 0 55.5 30zM329 -168q37 14 58 38t21 53q0 56 -79 56h-170q-24 -23 -32.5 -41
t-8.5 -36q0 -37 33.5 -60.5t93.5 -23.5q47 0 84 14zM205 625l86 91l28 -6l-39 -83l34 -34v-42h-109v74z" />
    <glyph glyph-name="Hcircumflex" unicode="&#x124;" horiz-adv-x="760" 
d="M350 906h60l120 -138h-44l-98 69l-8 10l-8 -10l-99 -69h-43zM28 26l79 10v628l-79 10l3 27l139 -2l136 2l2 -27l-74 -10v-282h293v282l-76 10l3 27l137 -2l138 2l2 -27l-77 -10v-628l77 -10l-2 -27l-138 2l-137 -2l-3 27l76 10v309h-293v-309l74 -10l-2 -27l-136 2
l-139 -2z" />
    <glyph glyph-name="hcircumflex" unicode="&#x125;" horiz-adv-x="591" 
d="M118 906h60l120 -138h-44l-98 69l-8 10l-8 -10l-99 -69h-43zM33 26l61 9v625l-61 -6l-4 27l145 31l35 1v-329l164 103q55 0 84 -17t39.5 -50.5t10.5 -88.5v-296l67 -9l-3 -27l-120 2l-103 -2l-3 27l45 9v302q0 37 -14.5 53.5t-42.5 16.5q-21 0 -41 -9.5t-53 -29.5
l-30 -18v-315l46 -9l-2 -27l-102 2l-116 -2z" />
    <glyph glyph-name="Hbar" unicode="&#x126;" horiz-adv-x="760" 
d="M654 36l77 -10l-2 -27l-138 2l-137 -2l-3 27l76 10v309h-293v-309l74 -10l-2 -27l-136 2l-139 -2l-3 27l79 10v628l-79 10l3 27l139 -2l136 2l2 -27l-74 -10v-160h293v160l-76 10l3 27l137 -2l138 2l2 -27l-77 -10v-628zM527 382v96h-293v-96h293z" />
    <glyph glyph-name="hbar" unicode="&#x127;" horiz-adv-x="591" 
d="M574 26l-3 -27l-120 2l-103 -2l-3 27l45 9v302q0 37 -14.5 53.5t-42.5 16.5q-21 0 -41 -9.5t-53 -29.5l-30 -18v-315l46 -9l-2 -27l-102 2l-116 -2l-2 27l61 9v527h-64v27h64v71l-61 -6l-4 27l145 31l35 1v-124h116v-27h-116v-178l164 103q55 0 84 -17t39.5 -50.5
t10.5 -88.5v-296z" />
    <glyph glyph-name="Itilde" unicode="&#x128;" horiz-adv-x="341" 
d="M34 875l64 20l186 -64l34 66h20l-28 -110l-64 -19l-186 65l-34 -66h-20zM28 27l79 10v627l-79 10l3 27l140 -2l139 2l3 -27l-79 -10v-627l79 -10l-3 -28l-139 2l-140 -2z" />
    <glyph glyph-name="itilde" unicode="&#x129;" horiz-adv-x="293" 
d="M34 26l62 9v390l-63 -9l-3 27l146 34l34 1v-443l63 -9l-2 -27l-118 2l-116 -2zM38 640l-31 -67h-21l28 105l65 19l185 -66l31 67h21l-29 -107l-64 -18z" />
    <glyph glyph-name="Imacron" unicode="&#x12a;" horiz-adv-x="341" 
d="M27 848h287v-52h-287v52zM28 27l79 10v627l-79 10l3 27l140 -2l139 2l3 -27l-79 -10v-627l79 -10l-3 -28l-139 2l-140 -2z" />
    <glyph glyph-name="imacron" unicode="&#x12b;" horiz-adv-x="293" 
d="M34 26l62 9v390l-63 -9l-3 27l146 34l34 1v-443l63 -9l-2 -27l-118 2l-116 -2zM8 657h286v-53h-286v53z" />
    <glyph glyph-name="Ibreve" unicode="&#x12c;" horiz-adv-x="341" 
d="M91 791q-38 34 -59 82l20 15q19 -27 48 -47.5t71 -20.5t70 20t50 49l19 -16q-18 -37 -44 -64t-81 -52q-56 0 -94 34zM28 27l79 10v627l-79 10l3 27l140 -2l139 2l3 -27l-79 -10v-627l79 -10l-3 -28l-139 2l-140 -2z" />
    <glyph glyph-name="ibreve" unicode="&#x12d;" horiz-adv-x="293" 
d="M34 26l62 9v390l-63 -9l-3 27l146 34l34 1v-443l63 -9l-2 -27l-118 2l-116 -2zM64 598.5q-43 36.5 -61 87.5l21 16q20 -30 52 -50.5t75 -20.5q42 0 69 20t51 51l22 -16q-18 -39 -48.5 -69.5t-81.5 -54.5q-56 0 -99 36.5z" />
    <glyph glyph-name="Iogonek" unicode="&#x12e;" horiz-adv-x="341" 
d="M234 37l79 -10l-3 -28l-123 2l-49 -110v-43q0 -69 109 -69v-23q-101 0 -145 25t-44 77v51l89 92l-116 -2l-3 28l79 10v627l-79 10l3 27l140 -2l139 2l3 -27l-79 -10v-627z" />
    <glyph glyph-name="iogonek" unicode="&#x12f;" horiz-adv-x="293" 
d="M94 583l-7 61l11 50l79 5l30 -5l6 -59l-11 -52l-80 -6zM122 -109v-43q0 -69 109 -69v-23q-101 0 -145 25t-44 77v51l89 92l-94 -2l-3 27l62 9v390l-63 -9l-3 27l146 34l34 1v-443l63 -9l-2 -27l-100 2z" />
    <glyph glyph-name="Idotaccent" unicode="&#x130;" horiz-adv-x="341" 
d="M117 785l-6 58l10 48l72 5l32 -5l5 -57l-11 -49l-70 -5zM28 27l79 10v627l-79 10l3 27l140 -2l139 2l3 -27l-79 -10v-627l79 -10l-3 -28l-139 2l-140 -2z" />
    <glyph glyph-name="dotlessi" unicode="&#x131;" horiz-adv-x="293" 
d="M34 26l62 9v390l-63 -9l-3 27l146 34l34 1v-443l63 -9l-2 -27l-118 2l-116 -2z" />
    <glyph glyph-name="IJ" unicode="&#x132;" horiz-adv-x="696" 
d="M28 27l79 10v627l-79 10l3 27l140 -2l139 2l3 -27l-79 -10v-627l79 -10l-3 -28l-139 2l-140 -2zM343 -72h111l5 22q7 21 9 50.5t2 92.5v571l-103 10l3 27l164 -2l136 2l3 -27l-76 -10v-540q0 -65 -22.5 -112t-61.5 -90l-89 -97h-81v103z" />
    <glyph glyph-name="ij" unicode="&#x133;" horiz-adv-x="293" 
d="M94 810l-7 61l11 50l79 5l30 -5l6 -59l-11 -52l-80 -6zM273 26l-2 -27l-118 2l-96 -2l-8 -8h-76v101h104l5 19q11 42 11 114v200l-60 -9l-3 27l63 15v134l-6 52l2 7l-58 -8l-3 27l68 16l2 8l44 3l31 7l35 1v-21l5 -49l-5 -24v-133h2v-443zM96 35v8l-8 -9z" />
    <glyph glyph-name="Jcircumflex" unicode="&#x134;" horiz-adv-x="355" 
d="M148 906h60l120 -138h-44l-98 69l-8 10l-8 -10l-99 -69h-43zM2 -72h111l5 22q7 21 9 50.5t2 92.5v571l-103 10l3 27l164 -2l136 2l3 -27l-76 -10v-540q0 -65 -22.5 -112t-61.5 -90l-89 -97h-81v103z" />
    <glyph glyph-name="jcircumflex" unicode="&#x135;" horiz-adv-x="276" 
d="M-23 -135h104l5 19q11 42 11 114v427l-62 -9l-3 27l145 34l35 1v-457q0 -52 -16.5 -86t-50.5 -70l-92 -101h-76v101zM127 710h54l118 -159h-41l-95 79l-9 14l-9 -14l-94 -79h-42z" />
    <glyph glyph-name="uni0136" unicode="&#x136;" horiz-adv-x="717" 
d="M28 26l79 10v628l-79 10l3 27l142 -2l131 2l2 -27l-72 -10v-294l14 9l301 285l-81 10l2 27l105 -2l105 2l2 -27l-82 -11l-303 -288l63 5l294 -345l54 -9l-3 -27l-98 2l-89 -2l-276 336l-8 17v-316l72 -10l-2 -27l-131 2l-142 -2zM306 -232l36 104l-32 34v42h108v-77
l-87 -110z" />
    <glyph glyph-name="uni0137" unicode="&#x137;" horiz-adv-x="563" 
d="M34 26l61 9v624l-61 -6l-4 28l145 31l35 1v-444l13 6l196 162l-57 8v27l89 -1l83 1l3 -27l-63 -8l-205 -164h55l193 -238l41 -9l-3 -27l-93 2l-67 -2l-178 240l-7 17v-221l53 -9l-3 -27l-108 2l-116 -2zM234 -232l36 104l-32 34v42h108v-77l-87 -110z" />
    <glyph glyph-name="kgreenlandic" unicode="&#x138;" horiz-adv-x="560" 
d="M34 26l61 9v385l-61 -7l-4 28l145 32l35 2v-205l13 6l197 161l-56 8v27l90 -1l82 1l2 -27l-61 -8l-179 -143l14 -8l201 -251l42 -9l-4 -27l-93 2l-66 -2l-175 237l-7 17v-218l53 -9l-3 -27l-109 2l-115 -2z" />
    <glyph glyph-name="Lacute" unicode="&#x139;" horiz-adv-x="581" 
d="M207 903h116l-126 -135h-42zM28 26l79 10v628l-79 10l3 27l137 -2l142 2l3 -27l-79 -10v-628l239 1l74 158h28l-18 -196l-389 2l-137 -2z" />
    <glyph glyph-name="lacute" unicode="&#x13a;" horiz-adv-x="287" 
d="M174 903h116l-126 -135h-42zM33 26l61 9v624l-61 -6l-4 28l145 31l34 1v-678l64 -9l-3 -27l-116 2l-118 -2z" />
    <glyph glyph-name="uni013B" unicode="&#x13b;" horiz-adv-x="581" 
d="M28 26l79 10v628l-79 10l3 27l137 -2l142 2l3 -27l-79 -10v-628l239 1l74 158h28l-18 -196l-389 2l-137 -2zM254 -232l36 104l-32 34v42h108v-77l-87 -110z" />
    <glyph glyph-name="uni013C" unicode="&#x13c;" horiz-adv-x="287" 
d="M33 26l61 9v624l-61 -6l-4 28l145 31l34 1v-678l64 -9l-3 -27l-116 2l-118 -2zM87 -232l36 104l-32 34v42h108v-77l-87 -110z" />
    <glyph glyph-name="Lcaron" unicode="&#x13d;" horiz-adv-x="584" 
d="M353 445q30 65 54 142l-23 -2l-37 5l-5 63l7 51l82 6l32 -6l5 -60l-8 -54l-81 -155zM28 26l79 10v628l-79 10l3 27l137 -2l142 2l3 -27l-79 -10v-628l239 1l74 158h28l-18 -196l-389 2l-137 -2z" />
    <glyph glyph-name="lcaron" unicode="&#x13e;" horiz-adv-x="377" 
d="M33 26l61 9v624l-61 -6l-4 28l145 31l34 1v-678l64 -9l-3 -27l-116 2l-118 -2zM266 445q30 65 54 142l-23 -2l-37 5l-5 63l7 51l82 6l32 -6l5 -60l-8 -54l-81 -155z" />
    <glyph glyph-name="Ldot" unicode="&#x13f;" horiz-adv-x="581" 
d="M28 26l79 10v628l-79 10l3 27l137 -2l142 2l3 -27l-79 -10v-628l239 1l74 158h28l-18 -196l-389 2l-137 -2zM338 348l-5 60l6 50l79 6l31 -6l6 -58l-7 -52l-79 -6z" />
    <glyph glyph-name="ldot" unicode="&#x140;" horiz-adv-x="393" 
d="M33 26l61 9v624l-61 -6l-4 28l145 31l34 1v-678l64 -9l-3 -27l-116 2l-118 -2zM273 348l-5 60l6 50l79 6l31 -6l6 -58l-7 -52l-79 -6z" />
    <glyph glyph-name="Lslash" unicode="&#x141;" horiz-adv-x="581" 
d="M575 195l-18 -196l-389 2l-137 -2l-3 27l79 10v292l-74 -37v38l74 37v298l-79 10l3 27l137 -2l142 2l3 -27l-79 -10v-236l99 49v-38l-99 -49v-354l239 1l74 158h28z" />
    <glyph glyph-name="lslash" unicode="&#x142;" horiz-adv-x="287" 
d="M208 397v-362l64 -9l-3 -27l-116 2l-118 -2l-2 27l61 9v306l-73 -36v36l73 36v282l-61 -6l-4 28l145 31l34 1v-279l73 36v-37z" />
    <glyph glyph-name="Nacute" unicode="&#x143;" horiz-adv-x="713" 
d="M394 903h116l-126 -135h-42zM162 586l-11 41v-591l80 -10l-3 -27l-98 2l-99 -2l-3 27l79 10v626l-77 12l2 27l110 -2l87 2l339 -490l12 -37v490l-79 10l2 27l97 -2l100 2l3 -27l-79 -10v-668h-63z" />
    <glyph glyph-name="nacute" unicode="&#x144;" horiz-adv-x="593" 
d="M35 26l61 9v389l-63 -9l-3 28l146 34l32 1l2 -95l165 104q54 0 83 -15t40 -47.5t11 -90.5v-299l67 -9l-2 -27l-120 2l-104 -2l-3 27l45 9v302q0 37 -14.5 53.5t-43.5 16.5q-22 0 -41 -9t-52 -30l-30 -19v-314l46 -9l-2 -27l-101 2l-117 -2zM331 710h113l-128 -159h-36z
" />
    <glyph glyph-name="uni0145" unicode="&#x145;" horiz-adv-x="713" 
d="M162 586l-11 41v-591l80 -10l-3 -27l-98 2l-99 -2l-3 27l79 10v626l-77 12l2 27l110 -2l87 2l339 -490l12 -37v490l-79 10l2 27l97 -2l100 2l3 -27l-79 -10v-668h-63zM302 -232l36 104l-32 34v42h108v-77l-87 -110z" />
    <glyph glyph-name="uni0146" unicode="&#x146;" horiz-adv-x="593" 
d="M35 26l61 9v389l-63 -9l-3 28l146 34l32 1l2 -95l165 104q54 0 83 -15t40 -47.5t11 -90.5v-299l67 -9l-2 -27l-120 2l-104 -2l-3 27l45 9v302q0 37 -14.5 53.5t-43.5 16.5q-22 0 -41 -9t-52 -30l-30 -19v-314l46 -9l-2 -27l-101 2l-117 -2zM241 -232l36 104l-32 34v42
h108v-77l-87 -110z" />
    <glyph glyph-name="Ncaron" unicode="&#x147;" horiz-adv-x="713" 
d="M217 903h43l99 -69l8 -10l8 10l98 69h44l-120 -137h-60zM162 586l-11 41v-591l80 -10l-3 -27l-98 2l-99 -2l-3 27l79 10v626l-77 12l2 27l110 -2l87 2l339 -490l12 -37v490l-79 10l2 27l97 -2l100 2l3 -27l-79 -10v-668h-63z" />
    <glyph glyph-name="ncaron" unicode="&#x148;" horiz-adv-x="593" 
d="M35 26l61 9v389l-63 -9l-3 28l146 34l32 1l2 -95l165 104q54 0 83 -15t40 -47.5t11 -90.5v-299l67 -9l-2 -27l-120 2l-104 -2l-3 27l45 9v302q0 37 -14.5 53.5t-43.5 16.5q-22 0 -41 -9t-52 -30l-30 -19v-314l46 -9l-2 -27l-101 2l-117 -2zM153 710h42l92 -80l10 -13
l9 13l92 80h42l-115 -159h-57z" />
    <glyph glyph-name="napostrophe" unicode="&#x149;" horiz-adv-x="593" 
d="M30 530l56 97l-35 39v44h109v-80l-103 -107zM35 26l61 9v389l-63 -9l-3 28l146 34l32 1l2 -95l165 104q54 0 83 -15t40 -47.5t11 -90.5v-299l67 -9l-2 -27l-120 2l-104 -2l-3 27l45 9v302q0 37 -14.5 53.5t-43.5 16.5q-22 0 -41 -9t-52 -30l-30 -19v-314l46 -9l-2 -27
l-101 2l-117 -2z" />
    <glyph glyph-name="Eng" unicode="&#x14a;" horiz-adv-x="713" 
d="M392 -143h83l76 110l46 29h-34l-401 590l-11 36v-586l83 -10l-3 -27l-101 2l-99 -2l-3 27l79 10v626l-77 12l2 27l103 -2l93 2l340 -490l12 -33v486l-79 10l3 27l94 -2l102 2l3 -27l-79 -10v-668l-114 -231h-118v92z" />
    <glyph glyph-name="eng" unicode="&#x14b;" horiz-adv-x="557" 
d="M272 -134h104l5 20q11 42 11 116v335q0 37 -14.5 53.5t-43.5 16.5q-22 0 -41 -9t-52 -30l-30 -19v-314l46 -9l-2 -27l-102 2l-116 -2l-2 27l61 9v389l-63 -9l-3 28l146 34l32 1l2 -95l165 104q54 0 83 -15t40 -47.5t11 -90.5v-302q0 -55 -17.5 -91t-55.5 -78l-86 -99h-78
v102z" />
    <glyph glyph-name="Omacron" unicode="&#x14c;" horiz-adv-x="779" 
d="M248 848h287v-52h-287v52zM200.5 28.5q-77.5 45.5 -120.5 126t-43 180.5q0 164 88 257t275 125q101 0 179 -45.5t121 -126t43 -180.5q0 -164 -88 -257t-276 -125q-101 0 -178.5 45.5zM552 111.5q50 85.5 50 220.5q0 92 -26.5 170t-78.5 125t-123 47q-95 0 -145.5 -85.5
t-50.5 -220.5q0 -92 27 -170t79 -125t123 -47q95 0 145 85.5z" />
    <glyph glyph-name="omacron" unicode="&#x14d;" horiz-adv-x="537" 
d="M138.5 15.5q-50.5 30.5 -78.5 85t-28 123.5q0 113 66.5 175.5t185.5 87.5q64 0 114 -30.5t78.5 -85t28.5 -123.5q0 -113 -67 -176t-186 -87q-63 0 -113.5 30.5zM355.5 73.5q26.5 49.5 26.5 139.5q0 111 -35.5 172.5t-91.5 61.5q-49 0 -75.5 -49t-26.5 -140
q0 -70 16.5 -123t45.5 -82t65 -29q49 0 75.5 49.5zM128 657h286v-53h-286v53z" />
    <glyph glyph-name="Obreve" unicode="&#x14e;" horiz-adv-x="779" 
d="M312 791q-38 34 -59 82l20 15q19 -27 48 -47.5t71 -20.5t70 20t50 49l19 -16q-18 -37 -44 -64t-81 -52q-56 0 -94 34zM200.5 28.5q-77.5 45.5 -120.5 126t-43 180.5q0 164 88 257t275 125q101 0 179 -45.5t121 -126t43 -180.5q0 -164 -88 -257t-276 -125
q-101 0 -178.5 45.5zM552 111.5q50 85.5 50 220.5q0 92 -26.5 170t-78.5 125t-123 47q-95 0 -145.5 -85.5t-50.5 -220.5q0 -92 27 -170t79 -125t123 -47q95 0 145 85.5z" />
    <glyph glyph-name="obreve" unicode="&#x14f;" horiz-adv-x="537" 
d="M138.5 15.5q-50.5 30.5 -78.5 85t-28 123.5q0 113 66.5 175.5t185.5 87.5q64 0 114 -30.5t78.5 -85t28.5 -123.5q0 -113 -67 -176t-186 -87q-63 0 -113.5 30.5zM355.5 73.5q26.5 49.5 26.5 139.5q0 111 -35.5 172.5t-91.5 61.5q-49 0 -75.5 -49t-26.5 -140
q0 -70 16.5 -123t45.5 -82t65 -29q49 0 75.5 49.5zM184 598.5q-43 36.5 -61 87.5l21 16q20 -30 52 -50.5t75 -20.5q42 0 69 20t51 51l22 -16q-18 -39 -48.5 -69.5t-81.5 -54.5q-56 0 -99 36.5z" />
    <glyph glyph-name="Ohungarumlaut" unicode="&#x150;" horiz-adv-x="779" 
d="M354 903h121l-138 -135h-41zM522 903h121l-138 -135h-42zM200.5 28.5q-77.5 45.5 -120.5 126t-43 180.5q0 164 88 257t275 125q101 0 179 -45.5t121 -126t43 -180.5q0 -164 -88 -257t-276 -125q-101 0 -178.5 45.5zM552 111.5q50 85.5 50 220.5q0 92 -26.5 170t-78.5 125
t-123 47q-95 0 -145.5 -85.5t-50.5 -220.5q0 -92 27 -170t79 -125t123 -47q95 0 145 85.5z" />
    <glyph glyph-name="ohungarumlaut" unicode="&#x151;" horiz-adv-x="537" 
d="M138.5 15.5q-50.5 30.5 -78.5 85t-28 123.5q0 113 66.5 175.5t185.5 87.5q64 0 114 -30.5t78.5 -85t28.5 -123.5q0 -113 -67 -176t-186 -87q-63 0 -113.5 30.5zM355.5 73.5q26.5 49.5 26.5 139.5q0 111 -35.5 172.5t-91.5 61.5q-49 0 -75.5 -49t-26.5 -140
q0 -70 16.5 -123t45.5 -82t65 -29q49 0 75.5 49.5zM220 710h119l-136 -159h-33zM387 710h119l-136 -159h-34z" />
    <glyph glyph-name="OE" unicode="&#x152;" horiz-adv-x="974" 
d="M202.5 32q-78.5 45 -122 124t-43.5 179q0 109 38 184.5t118.5 122.5t210.5 71l135 -13l394 1l5 -183h-26l-64 147l-241 1v-283l122 2l43 114h26l-5 -130l5 -133h-26l-43 112l-122 2v-316l246 2l69 152h27l-17 -189l-421 2l-128 -14q-102 0 -180.5 45zM480 663l-107 10
q-95 0 -145.5 -85.5t-50.5 -220.5q0 -95 31 -172.5t84.5 -122t118.5 -44.5l69 7v628z" />
    <glyph glyph-name="oe" unicode="&#x153;" horiz-adv-x="833" 
d="M801 87q-42 -35 -83 -59t-94 -43q-58 0 -107 23.5t-80 67.5q-61 -67 -185 -91q-63 0 -113.5 31t-78.5 85.5t-28 124.5q0 211 252 261q54 0 99.5 -24.5t73.5 -67.5q55 66 163 92q89 0 133.5 -51t44.5 -137v-38h-300q3 -88 48.5 -138.5t120.5 -50.5q57 0 121 40zM355.5 74
q27.5 50 27.5 139q0 74 -16.5 127t-45.5 80t-66 27q-49 0 -76 -49t-27 -140q0 -70 16.5 -123t45.5 -82t65 -29q49 0 76.5 50zM526 403q-25 -41 -28 -113l183 5q0 76 -17.5 112.5t-65.5 36.5q-47 0 -72 -41z" />
    <glyph glyph-name="Racute" unicode="&#x154;" horiz-adv-x="678" 
d="M328 768h-42l52 135h116zM673 26l-2 -27l-98 2l-76 -2l-196 321l-5 6h-62v-290l74 -10l-2 -27l-135 2l-140 -2l-3 27l79 10v628l-79 10l3 27l140 -2l200 2q92 0 153.5 -44t61.5 -130q0 -80 -65 -127.5t-173 -65.5l112 -37l165 -260zM234 360h58q72 0 114 43.5t42 116.5
q0 71 -36.5 110.5t-94.5 40.5l-83 -6v-305z" />
    <glyph glyph-name="racute" unicode="&#x155;" horiz-adv-x="400" 
d="M34 26l62 9v390l-63 -9l-3 27l140 34l30 1l6 -152l102 156h78v-118h-104q-11 -4 -36.5 -33t-27.5 -32l-8 -9v-254l97 -9l-3 -28l-149 2l-118 -2zM235 710h113l-128 -159h-36z" />
    <glyph glyph-name="uni0156" unicode="&#x156;" horiz-adv-x="678" 
d="M673 26l-2 -27l-98 2l-76 -2l-196 321l-5 6h-62v-290l74 -10l-2 -27l-135 2l-140 -2l-3 27l79 10v628l-79 10l3 27l140 -2l200 2q92 0 153.5 -44t61.5 -130q0 -80 -65 -127.5t-173 -65.5l112 -37l165 -260zM234 360h58q72 0 114 43.5t42 116.5q0 71 -36.5 110.5
t-94.5 40.5l-83 -6v-305zM318 -232l36 104l-32 34v42h108v-77l-87 -110z" />
    <glyph glyph-name="uni0157" unicode="&#x157;" horiz-adv-x="400" 
d="M34 26l62 9v390l-63 -9l-3 27l140 34l30 1l6 -152l102 156h78v-118h-104q-11 -4 -36.5 -33t-27.5 -32l-8 -9v-254l97 -9l-3 -28l-149 2l-118 -2zM105 -232l36 104l-32 34v42h108v-77l-87 -110z" />
    <glyph glyph-name="Rcaron" unicode="&#x158;" horiz-adv-x="678" 
d="M281 766l-120 137h43l99 -69l8 -10l8 10l98 69h44l-120 -137h-60zM673 26l-2 -27l-98 2l-76 -2l-196 321l-5 6h-62v-290l74 -10l-2 -27l-135 2l-140 -2l-3 27l79 10v628l-79 10l3 27l140 -2l200 2q92 0 153.5 -44t61.5 -130q0 -80 -65 -127.5t-173 -65.5l112 -37
l165 -260zM234 360h58q72 0 114 43.5t42 116.5q0 71 -36.5 110.5t-94.5 40.5l-83 -6v-305z" />
    <glyph glyph-name="rcaron" unicode="&#x159;" horiz-adv-x="400" 
d="M34 26l62 9v390l-63 -9l-3 27l140 34l30 1l6 -152l102 156h78v-118h-104q-11 -4 -36.5 -33t-27.5 -32l-8 -9v-254l97 -9l-3 -28l-149 2l-118 -2zM57 710h42l92 -80l10 -13l9 13l92 80h42l-115 -159h-57z" />
    <glyph glyph-name="Sacute" unicode="&#x15a;" horiz-adv-x="551" 
d="M321 903h116l-126 -135h-42zM147 -1.5q-50 15.5 -98 48.5l-11 161h45l41 -103q32 -37 70 -56t79 -19q58 0 93 32.5t35 86.5q0 42 -24.5 74t-77.5 60l-123 67q-67 36 -96 75t-29 92q0 75 61 126t179 74q107 0 194 -49v-157h-37l-42 112q-52 52 -122 52q-55 0 -88.5 -28.5
t-33.5 -75.5q0 -36 21.5 -63.5t70.5 -52.5l123 -67q72 -37 103.5 -80t31.5 -103q0 -81 -63.5 -136t-192.5 -86q-59 0 -109 15.5z" />
    <glyph glyph-name="sacute" unicode="&#x15b;" horiz-adv-x="413" 
d="M117 -3.5q-44 12.5 -76 29.5l-9 133h38l43 -95q43 -40 91 -40q37 0 57 18.5t20 46.5q0 29 -15.5 46.5t-57.5 41.5l-81 48q-40 22 -63 49.5t-23 69.5q0 52 42.5 86t134.5 57q83 0 149 -37v-124h-34l-40 92q-35 32 -81 32q-32 0 -51.5 -16t-19.5 -43q0 -25 16.5 -41.5
t57.5 -39.5l82 -47q45 -25 65.5 -53.5t20.5 -68.5q0 -61 -45 -98.5t-139 -58.5q-38 0 -82 12.5zM241 710h113l-128 -159h-36z" />
    <glyph glyph-name="Scircumflex" unicode="&#x15c;" horiz-adv-x="551" 
d="M264 906h60l120 -138h-44l-98 69l-8 10l-8 -10l-99 -69h-43zM147 -1.5q-50 15.5 -98 48.5l-11 161h45l41 -103q32 -37 70 -56t79 -19q58 0 93 32.5t35 86.5q0 42 -24.5 74t-77.5 60l-123 67q-67 36 -96 75t-29 92q0 75 61 126t179 74q107 0 194 -49v-157h-37l-42 112
q-52 52 -122 52q-55 0 -88.5 -28.5t-33.5 -75.5q0 -36 21.5 -63.5t70.5 -52.5l123 -67q72 -37 103.5 -80t31.5 -103q0 -81 -63.5 -136t-192.5 -86q-59 0 -109 15.5z" />
    <glyph glyph-name="scircumflex" unicode="&#x15d;" horiz-adv-x="413" 
d="M117 -3.5q-44 12.5 -76 29.5l-9 133h38l43 -95q43 -40 91 -40q37 0 57 18.5t20 46.5q0 29 -15.5 46.5t-57.5 41.5l-81 48q-40 22 -63 49.5t-23 69.5q0 52 42.5 86t134.5 57q83 0 149 -37v-124h-34l-40 92q-35 32 -81 32q-32 0 -51.5 -16t-19.5 -43q0 -25 16.5 -41.5
t57.5 -39.5l82 -47q45 -25 65.5 -53.5t20.5 -68.5q0 -61 -45 -98.5t-139 -58.5q-38 0 -82 12.5zM180 710h54l118 -159h-41l-95 79l-9 14l-9 -14l-94 -79h-42z" />
    <glyph glyph-name="Scedilla" unicode="&#x15e;" horiz-adv-x="551" 
d="M278 -11l-23 -35q36 -2 59 -21.5t23 -50.5q0 -68 -96 -102l-62 -24h-43l28 43h75q14 10 21 26.5t7 34.5q0 29 -19 42.5t-48 15.5l46 65q-56 2 -103.5 17.5t-93.5 46.5l-11 161h45l41 -103q32 -37 70 -56t79 -19q58 0 93 32.5t35 86.5q0 42 -24.5 74t-77.5 60l-123 67
q-67 36 -96 75t-29 92q0 75 61 126t179 74q107 0 194 -49v-157h-37l-42 112q-52 52 -122 52q-55 0 -88.5 -28.5t-33.5 -75.5q0 -36 21.5 -63.5t70.5 -52.5l123 -67q72 -37 103.5 -80t31.5 -103q0 -155 -234 -216z" />
    <glyph glyph-name="scedilla" unicode="&#x15f;" horiz-adv-x="413" 
d="M362.5 209.5q20.5 -28.5 20.5 -68.5q0 -59 -42.5 -95.5t-130.5 -58.5l-22 -33q36 -2 59 -21.5t23 -50.5q0 -68 -96 -102l-62 -24h-43l28 43h75q14 10 21 26.5t7 34.5q0 29 -19 42.5t-48 15.5l47 67q-36 3 -73.5 14.5t-65.5 26.5l-9 133h38l43 -95q43 -40 91 -40
q37 0 57 18.5t20 46.5q0 29 -15.5 46.5t-57.5 41.5l-81 48q-40 22 -63 49.5t-23 69.5q0 52 42.5 86t134.5 57q83 0 149 -37v-124h-34l-40 92q-35 32 -81 32q-32 0 -51.5 -16t-19.5 -43q0 -25 16.5 -41.5t57.5 -39.5l82 -47q45 -25 65.5 -53.5z" />
    <glyph glyph-name="Scaron" unicode="&#x160;" horiz-adv-x="551" 
d="M144 903h43l99 -69l8 -10l8 10l98 69h44l-120 -137h-60zM147 -1.5q-50 15.5 -98 48.5l-11 161h45l41 -103q32 -37 70 -56t79 -19q58 0 93 32.5t35 86.5q0 42 -24.5 74t-77.5 60l-123 67q-67 36 -96 75t-29 92q0 75 61 126t179 74q107 0 194 -49v-157h-37l-42 112
q-52 52 -122 52q-55 0 -88.5 -28.5t-33.5 -75.5q0 -36 21.5 -63.5t70.5 -52.5l123 -67q72 -37 103.5 -80t31.5 -103q0 -81 -63.5 -136t-192.5 -86q-59 0 -109 15.5z" />
    <glyph glyph-name="scaron" unicode="&#x161;" horiz-adv-x="413" 
d="M117 -3.5q-44 12.5 -76 29.5l-9 133h38l43 -95q43 -40 91 -40q37 0 57 18.5t20 46.5q0 29 -15.5 46.5t-57.5 41.5l-81 48q-40 22 -63 49.5t-23 69.5q0 52 42.5 86t134.5 57q83 0 149 -37v-124h-34l-40 92q-35 32 -81 32q-32 0 -51.5 -16t-19.5 -43q0 -25 16.5 -41.5
t57.5 -39.5l82 -47q45 -25 65.5 -53.5t20.5 -68.5q0 -61 -45 -98.5t-139 -58.5q-38 0 -82 12.5zM63 710h42l92 -80l10 -13l9 13l92 80h42l-115 -159h-57z" />
    <glyph glyph-name="uni0162" unicode="&#x162;" horiz-adv-x="597" 
d="M584 701v-196h-28l-62 160l-132 1v-630l99 -10l-3 -27l-150 2l-31 -47q36 -2 59 -21.5t23 -50.5q0 -68 -96 -102l-62 -24h-43l28 43h75q14 10 21 26.5t7 34.5q0 29 -19 42.5t-48 15.5l58 83l-143 -2l-2 27l100 10v630l-132 -1l-62 -160h-28v196l287 -2z" />
    <glyph glyph-name="uni0163" unicode="&#x163;" horiz-adv-x="358" 
d="M248 -67.5q23 -19.5 23 -50.5q0 -68 -96 -102l-62 -24h-43l28 43h75q14 10 21 26.5t7 34.5q0 29 -19 42.5t-48 15.5l49 69q-96 16 -96 135v307h-82v9l19 25h64v70l95 66h18v-139h139v-31h-138v-306q0 -30 15 -46.5t40 -16.5q21 0 39.5 5.5t42.5 18.5l13 -25l-138 -74h-4
l-21 -31q36 -2 59 -21.5z" />
    <glyph glyph-name="Tcaron" unicode="&#x164;" horiz-adv-x="597" 
d="M149 903h43l99 -69l8 -10l8 10l98 69h44l-120 -137h-60zM135 26l100 10v630l-132 -1l-62 -160h-28v196l287 -2l284 2v-196h-28l-62 160l-132 1v-630l99 -10l-3 -27l-159 2l-162 -2z" />
    <glyph glyph-name="tcaron" unicode="&#x165;" horiz-adv-x="358" 
d="M275 513q25 46 46 104l-20 -1l-31 4l-4 53l6 43l68 4l27 -4l5 -51l-7 -45l-69 -116zM117.5 20q-30.5 35 -30.5 102v307h-82v9l19 25h64v70l95 66h18v-139h139v-31h-138v-306q0 -30 15 -46.5t40 -16.5q21 0 39.5 5.5t42.5 18.5l13 -25l-138 -74q-66 0 -96.5 35z" />
    <glyph glyph-name="Tbar" unicode="&#x166;" horiz-adv-x="597" 
d="M584 701v-196h-28l-62 160l-132 1v-215h97v-28h-97v-387l99 -10l-3 -27l-159 2l-162 -2l-2 27l100 10v387h-97v28h97v215l-132 -1l-62 -160h-28v196l287 -2z" />
    <glyph glyph-name="tbar" unicode="&#x167;" horiz-adv-x="358" 
d="M352 59l-138 -74q-66 0 -96.5 35t-30.5 102v173h-76v28h76v106h-82v9l19 25h64v70l95 66h18v-139h139v-31h-138v-106h116v-28h-116v-172q0 -30 15 -46.5t40 -16.5q21 0 39.5 5.5t42.5 18.5z" />
    <glyph glyph-name="Utilde" unicode="&#x168;" horiz-adv-x="699" 
d="M243 875l64 20l186 -64l34 66h20l-28 -110l-64 -19l-186 65l-34 -66h-20zM157.5 52.5q-66.5 69.5 -66.5 193.5v418l-78 10l2 27l134 -2l144 2l3 -27l-77 -10v-426q0 -92 44.5 -146t127.5 -54q76 0 120 55t44 146v425l-82 10l3 27l107 -2l101 2l3 -27l-78 -10v-421
q0 -104 -52.5 -168t-188.5 -92q-144 0 -210.5 69.5z" />
    <glyph glyph-name="utilde" unicode="&#x169;" horiz-adv-x="567" 
d="M128.5 0.5q-29.5 15.5 -41 47.5t-11.5 89v287l-61 -6l-3 29l143 28l38 2v-339q0 -38 15 -55.5t45 -17.5q18 0 37 8.5t48 26.5l28 18v306l-57 -6l-3 29l138 28l37 2v-346q0 -28 3 -46.5t10 -39.5l47 3l3 -27l-151 -28l-23 91l-156 -99q-56 0 -85.5 15.5zM165 640l-31 -67
h-21l28 105l65 19l185 -66l31 67h21l-29 -107l-64 -18z" />
    <glyph glyph-name="Umacron" unicode="&#x16a;" horiz-adv-x="699" 
d="M236 848h287v-52h-287v52zM157.5 52.5q-66.5 69.5 -66.5 193.5v418l-78 10l2 27l134 -2l144 2l3 -27l-77 -10v-426q0 -92 44.5 -146t127.5 -54q76 0 120 55t44 146v425l-82 10l3 27l107 -2l101 2l3 -27l-78 -10v-421q0 -104 -52.5 -168t-188.5 -92q-144 0 -210.5 69.5z
" />
    <glyph glyph-name="umacron" unicode="&#x16b;" horiz-adv-x="567" 
d="M128.5 0.5q-29.5 15.5 -41 47.5t-11.5 89v287l-61 -6l-3 29l143 28l38 2v-339q0 -38 15 -55.5t45 -17.5q18 0 37 8.5t48 26.5l28 18v306l-57 -6l-3 29l138 28l37 2v-346q0 -28 3 -46.5t10 -39.5l47 3l3 -27l-151 -28l-23 91l-156 -99q-56 0 -85.5 15.5zM136 657h286v-53
h-286v53z" />
    <glyph glyph-name="Ubreve" unicode="&#x16c;" horiz-adv-x="699" 
d="M300 791q-38 34 -59 82l20 15q19 -27 48 -47.5t71 -20.5t70 20t50 49l19 -16q-18 -37 -44 -64t-81 -52q-56 0 -94 34zM157.5 52.5q-66.5 69.5 -66.5 193.5v418l-78 10l2 27l134 -2l144 2l3 -27l-77 -10v-426q0 -92 44.5 -146t127.5 -54q76 0 120 55t44 146v425l-82 10
l3 27l107 -2l101 2l3 -27l-78 -10v-421q0 -104 -52.5 -168t-188.5 -92q-144 0 -210.5 69.5z" />
    <glyph glyph-name="ubreve" unicode="&#x16d;" horiz-adv-x="567" 
d="M128.5 0.5q-29.5 15.5 -41 47.5t-11.5 89v287l-61 -6l-3 29l143 28l38 2v-339q0 -38 15 -55.5t45 -17.5q18 0 37 8.5t48 26.5l28 18v306l-57 -6l-3 29l138 28l37 2v-346q0 -28 3 -46.5t10 -39.5l47 3l3 -27l-151 -28l-23 91l-156 -99q-56 0 -85.5 15.5zM192 598.5
q-43 36.5 -61 87.5l21 16q20 -30 52 -50.5t75 -20.5q42 0 69 20t51 51l22 -16q-18 -39 -48.5 -69.5t-81.5 -54.5q-56 0 -99 36.5z" />
    <glyph glyph-name="Uring" unicode="&#x16e;" horiz-adv-x="699" 
d="M303 757q-32 24 -32 74q0 43 27 63t81 38q47 0 78 -24t31 -74q0 -44 -27 -64.5t-81 -36.5q-45 0 -77 24zM428 783.5q19 18.5 19 48.5t-19.5 49t-48.5 19t-47.5 -19t-18.5 -49t18.5 -48.5t47.5 -18.5q30 0 49 18.5zM157.5 52.5q-66.5 69.5 -66.5 193.5v418l-78 10l2 27
l134 -2l144 2l3 -27l-77 -10v-426q0 -92 44.5 -146t127.5 -54q76 0 120 55t44 146v425l-82 10l3 27l107 -2l101 2l3 -27l-78 -10v-421q0 -104 -52.5 -168t-188.5 -92q-144 0 -210.5 69.5z" />
    <glyph glyph-name="uring" unicode="&#x16f;" horiz-adv-x="567" 
d="M128.5 0.5q-29.5 15.5 -41 47.5t-11.5 89v287l-61 -6l-3 29l143 28l38 2v-339q0 -38 15 -55.5t45 -17.5q18 0 37 8.5t48 26.5l28 18v306l-57 -6l-3 29l138 28l37 2v-346q0 -28 3 -46.5t10 -39.5l47 3l3 -27l-151 -28l-23 91l-156 -99q-56 0 -85.5 15.5zM202 566.5
q-32 23.5 -32 74.5q0 43 27 63.5t81 37.5q49 0 79 -23.5t30 -76.5q0 -32 -13.5 -49.5t-29.5 -25t-64 -24.5q-46 0 -78 23.5zM326.5 594q18.5 18 18.5 47t-19 48.5t-47 19.5t-47 -19.5t-19 -48.5t18.5 -47t47.5 -18t47.5 18z" />
    <glyph glyph-name="Uhungarumlaut" unicode="&#x170;" horiz-adv-x="699" 
d="M342 903h121l-138 -135h-41zM510 903h121l-138 -135h-42zM157.5 52.5q-66.5 69.5 -66.5 193.5v418l-78 10l2 27l134 -2l144 2l3 -27l-77 -10v-426q0 -92 44.5 -146t127.5 -54q76 0 120 55t44 146v425l-82 10l3 27l107 -2l101 2l3 -27l-78 -10v-421q0 -104 -52.5 -168
t-188.5 -92q-144 0 -210.5 69.5z" />
    <glyph glyph-name="uhungarumlaut" unicode="&#x171;" horiz-adv-x="567" 
d="M128.5 0.5q-29.5 15.5 -41 47.5t-11.5 89v287l-61 -6l-3 29l143 28l38 2v-339q0 -38 15 -55.5t45 -17.5q18 0 37 8.5t48 26.5l28 18v306l-57 -6l-3 29l138 28l37 2v-346q0 -28 3 -46.5t10 -39.5l47 3l3 -27l-151 -28l-23 91l-156 -99q-56 0 -85.5 15.5zM229 710h119
l-136 -159h-33zM396 710h119l-136 -159h-34z" />
    <glyph glyph-name="Uogonek" unicode="&#x172;" horiz-adv-x="699" 
d="M687 674l-78 -10v-421q0 -82 -32 -139t-112 -92l-55 -121v-43q0 -69 109 -69v-23q-101 0 -145 25t-44 77v51l83 85q-26 -7 -45 -11q-144 0 -210.5 69.5t-66.5 193.5v418l-78 10l2 27l134 -2l144 2l3 -27l-77 -10v-426q0 -92 44.5 -146t127.5 -54q76 0 120 55t44 146v425
l-82 10l3 27l107 -2l101 2z" />
    <glyph glyph-name="uogonek" unicode="&#x173;" horiz-adv-x="567" 
d="M478 -221v-23q-101 0 -145 25t-44 77v51l99 102l-18 73l-156 -99q-56 0 -85.5 15.5t-41 47.5t-11.5 89v287l-61 -6l-3 29l143 28l38 2v-339q0 -38 15 -55.5t45 -17.5q18 0 37 8.5t48 26.5l28 18v306l-57 -6l-3 29l138 28l37 2v-346q0 -28 3 -46.5t10 -39.5l47 3l3 -27
l-127 -24l-48 -106v-43q0 -69 109 -69z" />
    <glyph glyph-name="Wcircumflex" unicode="&#x174;" horiz-adv-x="1013" 
d="M484 906h60l120 -138h-44l-98 69l-8 10l-8 -10l-99 -69h-43zM68 665l-59 9l3 27l137 -2l130 2l3 -27l-79 -10l157 -502l1 -33l122 401l-45 135l-57 9l3 27l136 -2l129 2l2 -27l-78 -10l158 -502l1 -33l163 536l-84 9l3 27l100 -2l87 2l3 -27l-63 -9l-207 -655l-74 -21
l-151 458l-1 32l-144 -469l-74 -21z" />
    <glyph glyph-name="wcircumflex" unicode="&#x175;" horiz-adv-x="843" 
d="M56 437l-51 9l3 26l113 -1l109 1l2 -26l-53 -9l112 -337l4 -34l104 304l-24 67l-45 9l3 26l109 -1l106 1l3 -26l-53 -9l112 -337l4 -34l122 371l-56 9l2 26l78 -1l75 1l3 -26l-57 -9l-146 -421l-98 -32l-111 310l-2 34l-107 -312l-99 -32zM408 710h54l118 -159h-41
l-95 79l-9 14l-9 -14l-94 -79h-42z" />
    <glyph glyph-name="Ycircumflex" unicode="&#x176;" horiz-adv-x="705" 
d="M363 906h60l120 -138h-44l-98 69l-8 10l-8 -10l-99 -69h-43zM185 26l110 10v238l-220 391l-70 9l3 27l144 -2l144 2l3 -27l-81 -10l179 -325l2 -22l183 347l-86 10l2 27l109 -2l90 2l3 -27l-70 -9l-209 -385l1 -244l107 -10l-2 -27l-167 2l-172 -2z" />
    <glyph glyph-name="ycircumflex" unicode="&#x177;" horiz-adv-x="545" 
d="M86 -123h112l103 160l-82 -31l-162 431l-52 8l3 27l119 -1l112 1l2 -27l-57 -8l120 -331l5 -39l124 370l-56 8l3 27l83 -1l75 1l2 -27l-57 -8l-149 -406l-119 -266h-129v112zM267 710h54l118 -159h-41l-95 79l-9 14l-9 -14l-94 -79h-42z" />
    <glyph glyph-name="Ydieresis" unicode="&#x178;" horiz-adv-x="705" 
d="M233 783l-5 52l9 42l64 6l26 -6l6 -50l-11 -44l-63 -5zM457 783l-5 52l9 42l64 6l26 -6l6 -50l-10 -44l-63 -5zM185 26l110 10v238l-220 391l-70 9l3 27l144 -2l144 2l3 -27l-81 -10l179 -325l2 -22l183 347l-86 10l2 27l109 -2l90 2l3 -27l-70 -9l-209 -385l1 -244
l107 -10l-2 -27l-167 2l-172 -2z" />
    <glyph glyph-name="Zacute" unicode="&#x179;" horiz-adv-x="579" 
d="M317 903h116l-126 -135h-42zM17 30l377 619l22 17l-270 -2l-66 -155h-32v191h498l5 -27l-377 -622l-22 -17l286 2l81 162h32l-17 -198h-511z" />
    <glyph glyph-name="zacute" unicode="&#x17a;" horiz-adv-x="476" 
d="M31 22l269 407l20 15l-176 -3l-55 -122h-30v153h382l8 -21l-267 -408l-18 -15l188 4l63 130h32l-14 -162h-395zM280 710h113l-128 -159h-36z" />
    <glyph glyph-name="Zdotaccent" unicode="&#x17b;" horiz-adv-x="579" 
d="M236 785l-6 58l10 48l72 5l32 -5l5 -57l-11 -49l-70 -5zM17 30l377 619l22 17l-270 -2l-66 -155h-32v191h498l5 -27l-377 -622l-22 -17l286 2l81 162h32l-17 -198h-511z" />
    <glyph glyph-name="zdotaccent" unicode="&#x17c;" horiz-adv-x="476" 
d="M31 22l269 407l20 15l-176 -3l-55 -122h-30v153h382l8 -21l-267 -408l-18 -15l188 4l63 130h32l-14 -162h-395zM190 585l-5 57l10 48l71 5l32 -5l5 -57l-11 -48l-70 -6z" />
    <glyph glyph-name="Zcaron" unicode="&#x17d;" horiz-adv-x="579" 
d="M140 903h43l99 -69l8 -10l8 10l98 69h44l-120 -137h-60zM17 30l377 619l22 17l-270 -2l-66 -155h-32v191h498l5 -27l-377 -622l-22 -17l286 2l81 162h32l-17 -198h-511z" />
    <glyph glyph-name="zcaron" unicode="&#x17e;" horiz-adv-x="476" 
d="M31 22l269 407l20 15l-176 -3l-55 -122h-30v153h382l8 -21l-267 -408l-18 -15l188 4l63 130h32l-14 -162h-395zM102 710h42l92 -80l10 -13l9 13l92 80h42l-115 -159h-57z" />
    <glyph glyph-name="longs" unicode="&#x17f;" horiz-adv-x="351" 
d="M34 26l64 9v393h-74v10l17 25h57v11q0 44 13 75.5t41 60.5l101 100h120v-86h-138l-10 -19q-7 -17 -10 -41t-3 -70v-459l104 -8l-2 -28l-162 2l-115 -2z" />
    <glyph glyph-name="florin" unicode="&#x192;" horiz-adv-x="343" 
d="M-19 -144h96l9 18q8 18 10.5 41.5t2.5 75.5v437h-73v10l17 25h56v11q0 44 13 75.5t42 60.5l101 100h111v-85h-127l-11 -19q-8 -17 -11 -40.5t-3 -70.5v-34h117v-33h-117v-413q0 -51 -16.5 -86.5t-47.5 -67.5l-95 -96h-74v91z" />
    <glyph glyph-name="AEacute" unicode="&#x1fc;" horiz-adv-x="996" 
d="M697 903h116l-126 -135h-42zM5 26l69 9l421 666l72 -2l385 2l5 -183h-26l-64 147l-237 1v-312l120 2l43 113h26l-5 -130l5 -133h-26l-43 113l-120 2v-287l244 2l69 152h27l-17 -189l-389 2l-135 -2l-3 27l79 10v285h-204l-174 -285l78 -10l-3 -26l-104 1l-90 -1zM505 352
v307l-186 -307h186z" />
    <glyph glyph-name="aeacute" unicode="&#x1fd;" horiz-adv-x="730" 
d="M698 86q-41 -34 -83 -57.5t-96 -43.5q-64 0 -116.5 27t-82.5 78l-146 -105q-64 0 -104.5 33.5t-40.5 90.5q0 61 48 103l215 71v64q0 48 -11 69.5t-48 21.5q-18 0 -31.5 -3t-32.5 -10l-19 -101h-103v80l190 83q68 0 102 -13t49 -48q47 39 133 61q86 0 130 -51.5t44 -136.5
v-39h-295q2 -89 45.5 -138.5t116.5 -49.5q58 0 122 40zM427.5 402.5q-24.5 -41.5 -27.5 -113.5l177 5q0 76 -16.5 113t-62.5 37t-70.5 -41.5zM297 108q-5 42 -5 80v66l-112 -46q-33 -30 -33 -77q0 -35 17 -54.5t42 -19.5q15 0 29.5 7.5t30.5 19.5zM401 710h113l-128 -159
h-36z" />
    <glyph glyph-name="Oslashacute" unicode="&#x1fe;" horiz-adv-x="779" 
d="M407 768h-42l52 135h116zM716 512q27 -67 27 -147q0 -164 -88 -257t-276 -125q-118 0 -206 63l-49 -61h-47l68 85q-52 48 -80 116t-28 149q0 164 88 257t275 125q123 0 212 -68l53 66h44l-71 -88q51 -48 78 -115zM220 162l326 405q-30 51 -73.5 79t-98.5 28
q-95 0 -145.5 -85.5t-50.5 -220.5q0 -119 42 -206zM552 111.5q50 85.5 50 220.5q0 114 -39 201l-325 -405q30 -48 73 -75t96 -27q95 0 145 85.5z" />
    <glyph glyph-name="oslashacute" unicode="&#x1ff;" horiz-adv-x="543" 
d="M489.5 341.5q15.5 -43.5 15.5 -93.5q0 -113 -67 -176t-186 -87q-81 0 -138 48l-37 -43h-39l55 63q-29 32 -45 76t-16 95q0 113 66.5 175.5t185.5 87.5q83 0 142 -50l40 46h37l-57 -66q28 -32 43.5 -75.5zM168 140l191 219q-17 43 -44 65.5t-60 22.5q-49 0 -75.5 -49
t-26.5 -140q0 -68 15 -118zM355.5 73.5q26.5 49.5 26.5 139.5q0 63 -13 115l-190 -220q17 -40 43.5 -62t57.5 -22q49 0 75.5 49.5zM302 710h113l-128 -159h-36z" />
    <glyph glyph-name="uni0218" unicode="&#x218;" horiz-adv-x="551" 
d="M147 -1.5q-50 15.5 -98 48.5l-11 161h45l41 -103q32 -37 70 -56t79 -19q58 0 93 32.5t35 86.5q0 42 -24.5 74t-77.5 60l-123 67q-67 36 -96 75t-29 92q0 75 61 126t179 74q107 0 194 -49v-157h-37l-42 112q-52 52 -122 52q-55 0 -88.5 -28.5t-33.5 -75.5
q0 -36 21.5 -63.5t70.5 -52.5l123 -67q72 -37 103.5 -80t31.5 -103q0 -81 -63.5 -136t-192.5 -86q-59 0 -109 15.5zM219 -232l36 104l-32 34v42h108v-77l-87 -110z" />
    <glyph glyph-name="uni0219" unicode="&#x219;" horiz-adv-x="413" 
d="M117 -3.5q-44 12.5 -76 29.5l-9 133h38l43 -95q43 -40 91 -40q37 0 57 18.5t20 46.5q0 29 -15.5 46.5t-57.5 41.5l-81 48q-40 22 -63 49.5t-23 69.5q0 52 42.5 86t134.5 57q83 0 149 -37v-124h-34l-40 92q-35 32 -81 32q-32 0 -51.5 -16t-19.5 -43q0 -25 16.5 -41.5
t57.5 -39.5l82 -47q45 -25 65.5 -53.5t20.5 -68.5q0 -61 -45 -98.5t-139 -58.5q-38 0 -82 12.5zM151 -232l36 104l-32 34v42h108v-77l-87 -110z" />
    <glyph glyph-name="uni021A" unicode="&#x21a;" horiz-adv-x="597" 
d="M135 26l100 10v630l-132 -1l-62 -160h-28v196l287 -2l284 2v-196h-28l-62 160l-132 1v-630l99 -10l-3 -27l-159 2l-162 -2zM240 -232l36 104l-32 34v42h108v-77l-87 -110z" />
    <glyph glyph-name="uni021B" unicode="&#x21b;" horiz-adv-x="358" 
d="M117.5 20q-30.5 35 -30.5 102v307h-82v9l19 25h64v70l95 66h18v-139h139v-31h-138v-306q0 -30 15 -46.5t40 -16.5q21 0 39.5 5.5t42.5 18.5l13 -25l-138 -74q-66 0 -96.5 35zM152 -232l36 104l-32 34v42h108v-77l-87 -110z" />
    <glyph glyph-name="uni02BC" unicode="&#x2bc;" horiz-adv-x="221" 
d="M58 445q30 65 54 142l-23 -2l-37 5l-5 63l7 51l82 6l32 -6l5 -60l-8 -54l-81 -155z" />
    <glyph glyph-name="circumflex" unicode="&#x2c6;" horiz-adv-x="600" 
d="M219 710h54l118 -159h-41l-95 79l-9 14l-9 -14l-94 -79h-42z" />
    <glyph glyph-name="caron" unicode="&#x2c7;" horiz-adv-x="600" 
d="M106 710h42l92 -80l10 -13l9 13l92 80h42l-115 -159h-57z" />
    <glyph glyph-name="breve" unicode="&#x2d8;" horiz-adv-x="600" 
d="M161 598.5q-43 36.5 -61 87.5l21 16q20 -30 52 -50.5t75 -20.5q42 0 69 20t51 51l22 -16q-18 -39 -48.5 -69.5t-81.5 -54.5q-56 0 -99 36.5z" />
    <glyph glyph-name="dotaccent" unicode="&#x2d9;" horiz-adv-x="600" 
d="M198 585l-5 57l10 48l71 5l32 -5l5 -57l-11 -48l-70 -6z" />
    <glyph glyph-name="ring" unicode="&#x2da;" horiz-adv-x="600" 
d="M170 566.5q-32 23.5 -32 74.5q0 43 27 63.5t81 37.5q49 0 79 -23.5t30 -76.5q0 -32 -13.5 -49.5t-29.5 -25t-64 -24.5q-46 0 -78 23.5zM294.5 594q18.5 18 18.5 47t-19 48.5t-47 19.5t-47 -19.5t-19 -48.5t18.5 -47t47.5 -18t47.5 18z" />
    <glyph glyph-name="ogonek" unicode="&#x2db;" horiz-adv-x="600" 
d="M208 -219q-44 25 -44 77v51l121 124h23l-64 -142v-43q0 -69 109 -69v-23q-101 0 -145 25z" />
    <glyph glyph-name="tilde" unicode="&#x2dc;" horiz-adv-x="600" 
d="M136 638l-31 -67h-21l28 105l65 19l185 -66l31 67h21l-29 -107l-64 -18z" />
    <glyph glyph-name="hungarumlaut" unicode="&#x2dd;" horiz-adv-x="600" 
d="M105 710h119l-136 -159h-33zM272 710h119l-136 -159h-34z" />
    <glyph glyph-name="gravecomb" unicode="&#x300;" horiz-adv-x="0" 
d="M-354 710h112l51 -159h-35z" />
    <glyph glyph-name="acutecomb" unicode="&#x301;" horiz-adv-x="0" 
d="M-302 710h113l-128 -159h-36z" />
    <glyph glyph-name="uni0302" unicode="&#x302;" horiz-adv-x="0" 
d="M-281 710h54l118 -159h-41l-95 79l-9 14l-9 -14l-94 -79h-42z" />
    <glyph glyph-name="tildecomb" unicode="&#x303;" horiz-adv-x="0" 
d="M-364 638l-31 -67h-21l28 105l65 19l185 -66l31 67h21l-29 -107l-64 -18z" />
    <glyph glyph-name="uni0304" unicode="&#x304;" horiz-adv-x="0" 
d="M-393 657h286v-53h-286v53z" />
    <glyph glyph-name="uni0306" unicode="&#x306;" horiz-adv-x="0" 
d="M-339 598.5q-43 36.5 -61 87.5l21 16q20 -30 52 -50.5t75 -20.5q42 0 69 20t51 51l22 -16q-18 -39 -48.5 -69.5t-81.5 -54.5q-56 0 -99 36.5z" />
    <glyph glyph-name="uni0307" unicode="&#x307;" horiz-adv-x="0" 
d="M-302 585l-5 57l10 48l71 5l32 -5l5 -57l-11 -48l-70 -6z" />
    <glyph glyph-name="uni0308" unicode="&#x308;" horiz-adv-x="0" 
d="M-390 584l-5 52l9 42l64 6l26 -6l6 -50l-10 -44l-63 -5zM-209 584l-6 52l10 42l64 6l26 -6l6 -50l-11 -44l-63 -5z" />
    <glyph glyph-name="uni030A" unicode="&#x30a;" horiz-adv-x="0" 
d="M-330 566.5q-32 23.5 -32 74.5q0 43 27 63.5t81 37.5q49 0 79 -23.5t30 -76.5q0 -32 -13.5 -49.5t-29.5 -25t-64 -24.5q-46 0 -78 23.5zM-205.5 594q18.5 18 18.5 47t-19 48.5t-47 19.5t-47 -19.5t-19 -48.5t18.5 -47t47.5 -18t47.5 18z" />
    <glyph glyph-name="uni030B" unicode="&#x30b;" horiz-adv-x="0" 
d="M-395 710h119l-136 -159h-33zM-228 710h119l-136 -159h-34z" />
    <glyph glyph-name="uni030C" unicode="&#x30c;" horiz-adv-x="0" 
d="M-394 710h42l92 -80l10 -13l9 13l92 80h42l-115 -159h-57z" />
    <glyph glyph-name="uni0312" unicode="&#x312;" horiz-adv-x="0" 
d="M-309 625l86 91l28 -6l-39 -83l34 -34v-42h-109v74z" />
    <glyph glyph-name="uni0326" unicode="&#x326;" horiz-adv-x="0" 
d="M-307 -232l36 104l-32 34v42h108v-77l-87 -110z" />
    <glyph glyph-name="uni0327" unicode="&#x327;" horiz-adv-x="0" 
d="M-316 -201h75q14 10 21 26.5t7 34.5q0 29 -19 42.5t-48 15.5l63 90l26 -3l-34 -51q36 -2 59 -21.5t23 -50.5q0 -68 -96 -102l-62 -24h-43z" />
    <glyph glyph-name="uni0328" unicode="&#x328;" horiz-adv-x="0" 
d="M-292 -219q-44 25 -44 77v51l121 124h23l-64 -142v-43q0 -69 109 -69v-23q-101 0 -145 25z" />
    <glyph glyph-name="uni0394" unicode="&#x394;" horiz-adv-x="687" 
d="M20 34l305 663l46 16l296 -678v-35h-647v34zM523 38l-213 505l-3 28l-238 -533h454z" />
    <glyph glyph-name="uni03A9" unicode="&#x3a9;" horiz-adv-x="710" 
d="M35 170h26l28 -82l182 -15v63q-62 11 -115.5 44.5t-87 91t-33.5 136.5q0 118 78.5 193.5t251.5 113.5q90 0 160.5 -38.5t110 -103.5t39.5 -142q0 -122 -61 -188t-177 -102v-68l183 15l29 82h27v-170h-282v165q56 10 99 66.5t43 179.5q0 77 -24 136.5t-67 92t-97 32.5
q-52 0 -91.5 -31t-61 -85t-21.5 -123q0 -77 20.5 -136t53 -93t68.5 -39v-165h-281v170z" />
    <glyph glyph-name="uni03BC" unicode="&#x3bc;" 
d="M502.5 40.5q15.5 -10.5 43.5 -16.5l-4 -24h-129l-48 80v2l-138 -97q-83 0 -110 47v-64l78 -198h-121v702h116v-325q0 -82 64 -82q18 0 36 8.5t46 26.5l29 17v355h114v-401q8 -20 23.5 -30.5z" />
    <glyph glyph-name="pi" unicode="&#x3c0;" 
d="M140 431h-45l-45 -111h-25v150h570v-39h-103v-353q8 -24 24 -36t42 -18l-3 -24h-132l-44 78v353h-126v-431h-113v431z" />
    <glyph glyph-name="uni0E3F" unicode="&#xe3f;" horiz-adv-x="638" 
d="M546 322.5q58 -47.5 58 -121.5q0 -92 -70 -141.5t-193 -60.5v-79h-31v79l-150 2l-129 -2l-3 27l79 10v628l-79 10l3 27l134 -2l145 1v81h31v-80h36q61 0 104 -21.5t64.5 -57t21.5 -75.5q0 -68 -53.5 -115t-138.5 -58q113 -4 171 -51.5zM234 384h76v286l-76 -5v-281z
M413 628.5q-25 34.5 -72 41.5v-283q45 11 71 53t26 100q0 54 -25 88.5zM310 29v324h-76v-318zM442 85.5q32 46.5 32 111.5q0 68 -36 109t-97 46v-321q69 8 101 54.5z" />
    <glyph glyph-name="Wgrave" unicode="&#x1e80;" horiz-adv-x="1013" 
d="M382 903h116l52 -135h-42zM68 665l-59 9l3 27l137 -2l130 2l3 -27l-79 -10l157 -502l1 -33l122 401l-45 135l-57 9l3 27l136 -2l129 2l2 -27l-78 -10l158 -502l1 -33l163 536l-84 9l3 27l100 -2l87 2l3 -27l-63 -9l-207 -655l-74 -21l-151 458l-1 32l-144 -469l-74 -21z
" />
    <glyph glyph-name="wgrave" unicode="&#x1e81;" horiz-adv-x="843" 
d="M56 437l-51 9l3 26l113 -1l109 1l2 -26l-53 -9l112 -337l4 -34l104 304l-24 67l-45 9l3 26l109 -1l106 1l3 -26l-53 -9l112 -337l4 -34l122 371l-56 9l2 26l78 -1l75 1l3 -26l-57 -9l-146 -421l-98 -32l-111 310l-2 34l-107 -312l-99 -32zM294 710h112l51 -159h-35z" />
    <glyph glyph-name="Wacute" unicode="&#x1e82;" horiz-adv-x="1013" 
d="M541 903h116l-126 -135h-42zM68 665l-59 9l3 27l137 -2l130 2l3 -27l-79 -10l157 -502l1 -33l122 401l-45 135l-57 9l3 27l136 -2l129 2l2 -27l-78 -10l158 -502l1 -33l163 536l-84 9l3 27l100 -2l87 2l3 -27l-63 -9l-207 -655l-74 -21l-151 458l-1 32l-144 -469l-74 -21
z" />
    <glyph glyph-name="wacute" unicode="&#x1e83;" horiz-adv-x="843" 
d="M56 437l-51 9l3 26l113 -1l109 1l2 -26l-53 -9l112 -337l4 -34l104 304l-24 67l-45 9l3 26l109 -1l106 1l3 -26l-53 -9l112 -337l4 -34l122 371l-56 9l2 26l78 -1l75 1l3 -26l-57 -9l-146 -421l-98 -32l-111 310l-2 34l-107 -312l-99 -32zM470 710h113l-128 -159h-36z
" />
    <glyph glyph-name="Wdieresis" unicode="&#x1e84;" horiz-adv-x="1013" 
d="M354 783l-5 52l9 42l64 6l26 -6l6 -50l-11 -44l-63 -5zM578 783l-5 52l9 42l64 6l26 -6l6 -50l-10 -44l-63 -5zM68 665l-59 9l3 27l137 -2l130 2l3 -27l-79 -10l157 -502l1 -33l122 401l-45 135l-57 9l3 27l136 -2l129 2l2 -27l-78 -10l158 -502l1 -33l163 536l-84 9
l3 27l100 -2l87 2l3 -27l-63 -9l-207 -655l-74 -21l-151 458l-1 32l-144 -469l-74 -21z" />
    <glyph glyph-name="wdieresis" unicode="&#x1e85;" horiz-adv-x="843" 
d="M56 437l-51 9l3 26l113 -1l109 1l2 -26l-53 -9l112 -337l4 -34l104 304l-24 67l-45 9l3 26l109 -1l106 1l3 -26l-53 -9l112 -337l4 -34l122 371l-56 9l2 26l78 -1l75 1l3 -26l-57 -9l-146 -421l-98 -32l-111 310l-2 34l-107 -312l-99 -32zM297 584l-5 52l9 42l64 6l26 -6
l6 -50l-10 -44l-63 -5zM478 584l-6 52l10 42l64 6l26 -6l6 -50l-11 -44l-63 -5z" />
    <glyph glyph-name="Ygrave" unicode="&#x1ef2;" horiz-adv-x="705" 
d="M261 903h116l52 -135h-42zM185 26l110 10v238l-220 391l-70 9l3 27l144 -2l144 2l3 -27l-81 -10l179 -325l2 -22l183 347l-86 10l2 27l109 -2l90 2l3 -27l-70 -9l-209 -385l1 -244l107 -10l-2 -27l-167 2l-172 -2z" />
    <glyph glyph-name="ygrave" unicode="&#x1ef3;" horiz-adv-x="545" 
d="M86 -123h112l103 160l-82 -31l-162 431l-52 8l3 27l119 -1l112 1l2 -27l-57 -8l120 -331l5 -39l124 370l-56 8l3 27l83 -1l75 1l2 -27l-57 -8l-149 -406l-119 -266h-129v112zM152 710h112l51 -159h-35z" />
    <glyph glyph-name="uni2002" unicode="&#x2002;" horiz-adv-x="500" 
 />
    <glyph glyph-name="uni2003" unicode="&#x2003;" horiz-adv-x="1000" 
 />
    <glyph glyph-name="uni2004" unicode="&#x2004;" horiz-adv-x="333" 
 />
    <glyph glyph-name="uni2005" unicode="&#x2005;" horiz-adv-x="250" 
 />
    <glyph glyph-name="uni2009" unicode="&#x2009;" horiz-adv-x="135" 
 />
    <glyph glyph-name="uni200A" unicode="&#x200a;" horiz-adv-x="75" 
 />
    <glyph glyph-name="endash" unicode="&#x2013;" horiz-adv-x="470" 
d="M35 298h400v-41h-400v41z" />
    <glyph glyph-name="emdash" unicode="&#x2014;" horiz-adv-x="870" 
d="M35 298h800v-41h-800v41z" />
    <glyph glyph-name="quoteleft" unicode="&#x2018;" horiz-adv-x="217" 
d="M168 704q-28 -59 -54 -141l23 1l37 -5l5 -63l-7 -51l-82 -6l-32 6l-5 60l8 54l81 156z" />
    <glyph glyph-name="quoteright" unicode="&#x2019;" horiz-adv-x="221" 
d="M58 445q30 65 54 142l-23 -2l-37 5l-5 63l7 51l82 6l32 -6l5 -60l-8 -54l-81 -155z" />
    <glyph glyph-name="quotesinglbase" unicode="&#x201a;" horiz-adv-x="205" 
d="M58 -138q30 65 54 142l-23 -2l-37 5l-5 63l7 51l82 6l32 -6l5 -60l-8 -54l-81 -155z" />
    <glyph glyph-name="quotedblleft" unicode="&#x201c;" horiz-adv-x="370" 
d="M158 704q-29 -61 -54 -142l22 2l38 -6l5 -62l-7 -52l-82 -5l-32 5l-5 60l7 54l82 156zM331 704q-29 -61 -54 -142l23 2l37 -6l5 -62l-7 -52l-82 -5l-32 5l-5 60l8 54l81 156z" />
    <glyph glyph-name="quotedblright" unicode="&#x201d;" horiz-adv-x="376" 
d="M230 446q30 65 54 142l-23 -2l-37 5l-5 63l7 51l82 6l32 -6l5 -60l-8 -54l-81 -155zM57 446q30 65 54 142l-23 -2l-37 5l-5 63l7 51l82 6l32 -6l5 -60l-8 -54l-81 -155z" />
    <glyph glyph-name="quotedblbase" unicode="&#x201e;" horiz-adv-x="380" 
d="M234 -138q30 65 54 142l-23 -2l-37 5l-5 63l7 51l82 6l32 -6l5 -60l-8 -54l-81 -155zM61 -138q30 65 54 142l-23 -2l-37 5l-5 63l7 51l82 6l32 -6l5 -60l-8 -54l-81 -155z" />
    <glyph glyph-name="dagger" unicode="&#x2020;" horiz-adv-x="434" 
d="M182 224l-40 103l37 43l20 114l-176 -43v116l175 -43l-43 196h119l-43 -196l179 43v-116l-179 43l20 -114l37 -43l-40 -103l-24 -284h-17z" />
    <glyph glyph-name="daggerdbl" unicode="&#x2021;" horiz-adv-x="447" 
d="M205 143l-175 -43v115l175 -42l-19 114l-37 41l37 42l19 114l-175 -43v116l175 -43l-43 196h119l-44 -196l180 43v-116l-179 43l20 -114l37 -42l-37 -41l-20 -114l179 42v-115l-180 43l44 -196h-119z" />
    <glyph glyph-name="bullet" unicode="&#x2022;" horiz-adv-x="234" 
d="M55 242l-5 66l7 57l84 6l38 -6l5 -65l-7 -58l-83 -6z" />
    <glyph glyph-name="ellipsis" unicode="&#x2026;" horiz-adv-x="796" 
d="M81 0l-6 63l8 52l81 6l31 -6l6 -61l-8 -54l-81 -5zM340 0l-6 63l8 52l82 6l31 -6l6 -61l-9 -54l-81 -5zM600 0l-6 63l8 52l81 6l32 -6l6 -61l-9 -54l-81 -5z" />
    <glyph glyph-name="perthousand" unicode="&#x2030;" horiz-adv-x="1184" 
d="M87 401.5q-42 46.5 -42 121.5q0 78 45.5 121.5t135.5 60.5q69 0 111 -46.5t42 -121.5q0 -78 -46 -122t-136 -60q-68 0 -110 46.5zM632 705h55l-494 -710h-56zM269.5 416.5q17.5 34.5 17.5 96.5q0 78 -21 121.5t-61 43.5q-34 0 -51.5 -34.5t-17.5 -96.5q0 -78 21 -121.5
t61 -43.5q34 0 51.5 34.5zM473 42.5q-42 46.5 -42 121.5q0 78 45.5 121.5t135.5 60.5q69 0 111 -47t42 -122q0 -78 -46 -121.5t-136 -59.5q-68 0 -110 46.5zM846.5 42.5q-41.5 46.5 -41.5 121.5q0 78 45.5 121.5t135.5 60.5q69 0 111 -47t42 -122q0 -78 -46 -121.5
t-136 -59.5q-69 0 -110.5 46.5zM656 57q17 34 17 97q0 78 -21 121.5t-61 43.5q-34 0 -51.5 -34.5t-17.5 -96.5q0 -79 21 -122t61 -43q35 0 52 34zM1029.5 57.5q17.5 34.5 17.5 96.5q0 78 -21 121.5t-61 43.5q-34 0 -51.5 -34.5t-17.5 -96.5q0 -79 20.5 -122t61.5 -43
q34 0 51.5 34.5z" />
    <glyph glyph-name="guilsinglleft" unicode="&#x2039;" horiz-adv-x="292" 
d="M33 235l182 220h42l-129 -221l129 -219h-43z" />
    <glyph glyph-name="guilsinglright" unicode="&#x203a;" horiz-adv-x="292" 
d="M169 234l-129 221h42l182 -220l-181 -220h-43z" />
    <glyph glyph-name="fraction" unicode="&#x2044;" horiz-adv-x="113" 
d="M227 710h46l-385 -760h-48z" />
    <glyph glyph-name="uni20A9" unicode="&#x20a9;" horiz-adv-x="1013" 
d="M856 396h114v-28h-123l-16 -50h139v-28h-148l-88 -280l-74 -21l-99 301h-111l-86 -280l-74 -21l-99 301h-148v28h139l-16 50h-123v28h113l-88 269l-59 9l3 27l137 -2l130 2l3 -27l-79 -10l84 -268h155l41 134l-45 135l-57 9l3 27l136 -2l129 2l2 -27l-78 -10l84 -268h156
l82 269l-84 9l3 27l100 -2l87 2l3 -27l-63 -9zM483 396h43l-17 51l-1 32zM311 318h108l15 50h-138zM552 318l-17 50h-61l-15 -50h93zM805 368h-139l16 -50h107zM410 290h-90l40 -128l1 -33zM781 290h-90l40 -128l1 -33z" />
    <glyph glyph-name="Euro" unicode="&#x20ac;" horiz-adv-x="677" 
d="M298 610q-50 -67 -61 -180h286l-24 -38h-265v-20q0 -34 3 -64h220l-24 -38h-191q18 -102 73 -158.5t139 -56.5q40 0 83.5 15t80.5 40l16 -29q-41 -30 -99 -57t-109 -39q-136 0 -221 75.5t-103 209.5h-57v38h54q-1 10 -1 30q0 29 3 54h-56v38h61q22 118 104.5 190
t220.5 96q56 0 109 -17t96 -48v-163h-36l-50 132q-46 57 -127 57q-75 0 -125 -67z" />
    <glyph glyph-name="uni20AE" unicode="&#x20ae;" horiz-adv-x="597" 
d="M584 701v-170h-29l-62 134l-131 1v-222l143 74v-33l-143 -74v-44l143 74v-32l-143 -74v-299l98 -10l-2 -27l-160 2l-161 -2l-3 27l101 10v233l-144 -74v33l144 74v44l-144 -74v32l144 74v288l-132 -1l-62 -134h-29v170l288 -2z" />
    <glyph glyph-name="uni20B4" unicode="&#x20b4;" horiz-adv-x="551" 
d="M538 426v-28h-532v28h239l53 29q46 24 69 51t23 65q0 47 -33 75.5t-89 28.5q-72 0 -122 -52l-43 -112h-37v157q89 49 195 49q119 -24 179 -75t60 -125q0 -53 -30 -91h68zM6 338h532v-28h-238l-48 -27q-52 -27 -76.5 -59t-24.5 -75q0 -54 34.5 -86.5t92.5 -32.5
q44 0 82 21t67 54l41 103h46l-11 -161q-47 -32 -97 -48t-111 -16q-256 60 -256 222q0 62 37 105h-70v28z" />
    <glyph glyph-name="uni20B8" unicode="&#x20b8;" horiz-adv-x="597" 
d="M13 700h571v-29h-571v29zM135 26l100 10v565l-132 -1l-62 -124h-28v159h571v-159h-28l-62 124l-132 1v-565l99 -10l-3 -27l-159 2l-162 -2z" />
    <glyph glyph-name="uni20B9" unicode="&#x20b9;" horiz-adv-x="495" 
d="M489 26l-2 -27l-98 2l-76 -2l-196 321l-5 6h-84v33h84q67 0 108.5 40t45.5 106h-236v34h235q-6 61 -42.5 94t-92.5 33h-102v34l444 1l-16 -34h-128q69 -43 75 -128h69l-16 -34h-54q-9 -71 -72.5 -112.5t-164.5 -58.5l111 -37l165 -260z" />
    <glyph glyph-name="uni20BA" unicode="&#x20ba;" horiz-adv-x="638" 
d="M632 287l-58 -11q0 -136 -64.5 -200.5t-183.5 -76.5l-166 2l-129 -2l-3 27l79 10v201l-90 -50v33l90 50v44l-90 -50v32l90 50v318l-79 10l3 27l142 -2l138 2l3 -27l-80 -10v-247l211 118v-33l-211 -117v-44l211 117v-32l-211 -118v-273l63 -6q147 0 147 246l-70 12l2 26
l136 -1l118 1z" />
    <glyph glyph-name="uni20BD" unicode="&#x20bd;" horiz-adv-x="580" 
d="M234 307v-45h224v-35h-224v-191l100 -10l-3 -27l-162 2l-138 -2l-3 27l79 10v191h-79v35h79v45h-78v36h78v321l-79 10l3 27l137 -2l189 2q92 0 152 -46.5t60 -132.5q0 -90 -68 -138t-185 -77h-82zM234 343h57q62 0 102 47t40 121q0 72 -34.5 116t-99.5 44l-65 -6v-322z
" />
    <glyph glyph-name="uni20BF" unicode="&#x20bf;" horiz-adv-x="638" 
d="M535 60.5q-69 -49.5 -192 -61.5v-79h-31v79l-33 1v-80h-32v80l-87 1l-129 -2l-3 27l79 10v628l-79 10l3 27l134 -2l65 1v81h32v-81l67 1v80h31v-80h17q61 0 104 -21.5t64.5 -57t21.5 -75.5q0 -68 -53.5 -115t-138.5 -58q113 -4 171 -51.5t58 -121.5q0 -91 -69 -140.5z
M407.5 635.5q-30.5 35.5 -86.5 35.5l-87 -6v-281h79q57 0 91 44.5t34 111.5q0 60 -30.5 95.5zM435 77q39 48 39 120q0 73 -40.5 114.5t-107.5 41.5h-92v-318l78 -6q84 0 123 48z" />
    <glyph glyph-name="uni2113" unicode="&#x2113;" horiz-adv-x="466" 
d="M395 111l15 -20l-202 -108l-85 22v224q-58 -24 -83 -34v43q61 26 83 37v338l168 106q65 -2 100 -48t35 -121q0 -90 -50 -153.5t-148 -117.5v-228zM228 338q46 37 68.5 81.5t22.5 105.5q0 53 -14 91t-44 38l-33 -17v-299z" />
    <glyph glyph-name="uni2116" unicode="&#x2116;" horiz-adv-x="990" 
d="M32 23l83 11v626l-84 13l3 27l93 -1l104 1l247 -504l14 -49v553h120l3 -24l-83 -9v-667h-87l-277 568l-14 50v-618h-119zM641 155q-46 49 -46 127q0 82 49 128.5t145 64.5q70 0 114.5 -49t44.5 -127q0 -82 -48 -129t-141 -64q-72 0 -118 49zM831.5 176.5
q17.5 32.5 17.5 92.5q0 77 -23.5 121.5t-61.5 44.5q-33 0 -52 -32t-19 -92q0 -76 25.5 -121.5t65.5 -45.5q30 0 47.5 32.5zM595 49h352v-49h-352v49z" />
    <glyph glyph-name="trademark" unicode="&#x2122;" horiz-adv-x="1010" 
d="M121 336l58 5v335l-67 -1l-40 -93h-22v119l180 -1l174 1v-119h-21l-41 93l-66 1v-335l57 -5l-2 -22l-104 1l-104 -1zM426 336l42 5v334l-42 5l2 21l60 -1l90 1l118 -280l-1 -28l121 308l67 -1l75 1l1 -21l-41 -5v-334l41 -5l-1 -22l-86 1l-85 -1l-2 22l39 5v290l5 34
l-138 -352h-53l-132 321l-8 35v-328l42 -5l-1 -22l-56 1l-55 -1z" />
    <glyph glyph-name="uni2126" unicode="&#x2126;" horiz-adv-x="730" 
d="M45 170h26l28 -82l182 -15v63q-62 11 -115.5 44.5t-87 91t-33.5 136.5q0 118 78.5 193.5t251.5 113.5q90 0 160.5 -38.5t110 -103.5t39.5 -142q0 -122 -61 -188t-177 -102v-68l183 15l29 82h27v-170h-282v165q56 10 99 66.5t43 179.5q0 77 -24 136.5t-67 92t-97 32.5
q-52 0 -91.5 -31t-61 -85t-21.5 -123q0 -77 20.5 -136t53 -93t68.5 -39v-165h-281v170z" />
    <glyph glyph-name="estimated" unicode="&#x212e;" horiz-adv-x="830" 
d="M221.5 30.5q-81.5 45.5 -126.5 125.5t-45 179q0 109 36.5 179t116.5 116t222 85q101 0 180.5 -42t125 -118t49.5 -173v-50h-587v-87q24 -100 84.5 -156.5t146.5 -56.5q82 0 136.5 51.5t73.5 136.5h128q-24 -68 -69 -112.5t-113.5 -72.5t-172.5 -50q-104 0 -185.5 45.5z
M635 387v78q-23 94 -84 148t-147 54q-82 0 -135 -44t-76 -120v-116h442z" />
    <glyph glyph-name="arrowleft" unicode="&#x2190;" horiz-adv-x="610" 
d="M50 295l270 261v-74l-161 -150l-21 -10h422v-54h-422l21 -9l161 -151v-74z" />
    <glyph glyph-name="arrowup" unicode="&#x2191;" horiz-adv-x="622" 
d="M284 462l-10 -21l-151 -161h-73l261 270l261 -270h-74l-150 161l-10 21v-422h-54v422z" />
    <glyph glyph-name="arrowright" unicode="&#x2192;" horiz-adv-x="610" 
d="M290 108l161 151l21 9h-422v54h422l-21 10l-161 150v74l270 -261l-270 -261v74z" />
    <glyph glyph-name="arrowdown" unicode="&#x2193;" horiz-adv-x="622" 
d="M50 310h73l151 -161l10 -21v422h54v-422l10 21l150 161h74l-261 -270z" />
    <glyph glyph-name="uni2196" unicode="&#x2196;" horiz-adv-x="480" 
d="M92 394l8 -21l1 -222l-51 -52v376h376l-52 -51l-221 1l-22 8l298 -299l-38 -38z" />
    <glyph glyph-name="uni2197" unicode="&#x2197;" horiz-adv-x="480" 
d="M51 134l298 299l-21 -8l-221 -1l-53 51h376v-376l-51 52l1 222l8 21l-299 -298z" />
    <glyph glyph-name="uni2198" unicode="&#x2198;" horiz-adv-x="480" 
d="M107 140l221 -2l21 -7l-298 299l38 38l299 -299l-8 22l-1 221l51 52v-376h-376z" />
    <glyph glyph-name="uni2199" unicode="&#x2199;" horiz-adv-x="480" 
d="M50 464l51 -52l-1 -221l-8 -22l299 299l38 -38l-298 -299l22 7l221 2l52 -52h-376v376z" />
    <glyph glyph-name="partialdiff" unicode="&#x2202;" 
d="M452 546.5q94 -114.5 94 -273.5q0 -127 -60 -202.5t-170 -85.5q-114 20 -178.5 90t-64.5 178q0 93 49.5 154.5t138.5 63.5l157 -81q-19 111 -81 184.5t-169 117.5l15 28q175 -59 269 -173.5zM393 93q33 70 33 191q0 42 -4 73l-30 16q-31 16 -52.5 23.5t-41.5 7.5
q-48 0 -74 -43.5t-26 -127.5q0 -102 29.5 -156t79.5 -54q53 0 86 70z" />
    <glyph glyph-name="emptyset" unicode="&#x2205;" horiz-adv-x="605" 
d="M474 491q45 -56 45 -135q0 -59 -26 -106.5t-73.5 -75t-109.5 -27.5q-79 0 -135 46l-62 -62l-27 27l62 61q-47 58 -47 137q0 59 26.5 106.5t74 75t108.5 27.5q82 0 137 -47l61 61l27 -27zM179 250l238 238q-45 37 -107 37q-49 0 -86.5 -23t-58 -61.5t-20.5 -84.5
q0 -61 34 -106zM443 460l-238 -237q42 -36 105 -36q49 0 86.5 22.5t58 61.5t20.5 85q0 58 -32 104z" />
    <glyph glyph-name="uni2206" unicode="&#x2206;" horiz-adv-x="694" 
d="M23 34l306 663l46 16l296 -678v-35h-648v34zM526 38l-212 505l-4 28l-238 -533h454z" />
    <glyph glyph-name="product" unicode="&#x220f;" horiz-adv-x="732" 
d="M20 -133l79 10v786l-79 10l3 27h687l2 -27l-79 -10v-786l76 -10l-3 -27l-134 1l-137 -1l-3 27l76 10v786h-284v-786l73 -10l-3 -27l-133 1l-138 -1z" />
    <glyph glyph-name="summation" unicode="&#x2211;" 
d="M50 -135l295 375l-282 432l14 28h477v-173h-27l-61 137l-254 2l230 -347v-20l-289 -364l336 8l52 92h28l-17 -195h-488z" />
    <glyph glyph-name="minus" unicode="&#x2212;" 
d="M47 302h525v-49h-525v49z" />
    <glyph glyph-name="radical" unicode="&#x221a;" 
d="M-7 434l-59 8l3 25h172l129 -356l5 -36l275 805h200l-13 -43h-156l-289 -822l-93 -32z" />
    <glyph glyph-name="infinity" unicode="&#x221e;" horiz-adv-x="818" 
d="M100.5 174q-40.5 45 -40.5 114q0 119 159 182q55 0 103.5 -31.5t107.5 -91.5l43 46q30 34 67.5 55.5t73.5 21.5q67 0 105.5 -45.5t38.5 -113.5q0 -64 -35.5 -105t-122.5 -77q-55 0 -105 31.5t-104 87.5l-44 -48q-28 -31 -66 -51t-72 -20q-68 0 -108.5 45zM686 250
q29 21 29 61q0 38 -26.5 58.5t-80.5 20.5q-30 0 -60.5 -12t-55.5 -34l-31 -28q37 -37 80 -62t77 -25q39 0 68 21zM273.5 215.5q29.5 11.5 55.5 34.5l33 29q-86 90 -158 91q-44 0 -73 -20.5t-29 -59.5q0 -37 30.5 -61.5t82.5 -24.5q29 0 58.5 11.5z" />
    <glyph glyph-name="integral" unicode="&#x222b;" 
d="M112 -144h100l9 18q8 18 10.5 41.5t2.5 75.5v488q0 44 15 76t45 61l100 94h114v-84h-135l-11 -20q-7 -17 -10 -40t-3 -68v-483q0 -51 -16.5 -86.5t-47.5 -67.5l-95 -96h-78v91z" />
    <glyph glyph-name="approxequal" unicode="&#x2248;" 
d="M63 366l97 27l362 -60l45 64h27l-38 -86l-94 -27l-364 61l-45 -64h-27zM63 178l97 27l362 -59l45 63h27l-38 -86l-94 -26l-364 61l-46 -65h-26z" />
    <glyph glyph-name="notequal" unicode="&#x2260;" 
d="M192 124h-141v49h182l122 144h-304v49h344l96 114h55l-96 -114h118v-49h-159l-120 -144h279v-49h-320l-103 -124h-56z" />
    <glyph glyph-name="lessequal" unicode="&#x2264;" 
d="M50 339v39l520 236v-56l-454 -199l454 -199v-56zM51 49h518v-49h-518v49z" />
    <glyph glyph-name="greaterequal" unicode="&#x2265;" 
d="M50 160l454 199l-454 199v56l520 -236v-39l-520 -235v56zM51 49h517v-49h-517v49z" />
    <glyph glyph-name="uni2460" unicode="&#x2460;" horiz-adv-x="810" 
d="M221.5 30.5q-84.5 44.5 -134.5 128.5t-50 197q0 153 98 243.5t269 115.5q100 -1 184.5 -45.5t135 -128.5t50.5 -197q0 -153 -98 -243.5t-270 -115.5q-100 1 -184.5 45.5zM556 57q70 39 112 113t42 174q0 109 -48 185.5t-118.5 114.5t-137.5 38q-82 0 -152 -39.5
t-112 -113.5t-42 -173q0 -109 48 -185.5t118.5 -114.5t137.5 -38q82 0 152 39zM288 187l80 7v303l3 8l-14 -9l-66 -16l-9 19l144 58h31v-363l79 -7l-1 -21l-121 1l-124 -1z" />
    <glyph glyph-name="uni2461" unicode="&#x2461;" horiz-adv-x="810" 
d="M221.5 30.5q-84.5 44.5 -134.5 128.5t-50 197q0 153 98 243.5t269 115.5q100 -1 184.5 -45.5t135 -128.5t50.5 -197q0 -153 -98 -243.5t-270 -115.5q-100 1 -184.5 45.5zM556 57q70 39 112 113t42 174q0 109 -48 185.5t-118.5 114.5t-137.5 38q-82 0 -152 -39.5
t-112 -113.5t-42 -173q0 -109 48 -185.5t118.5 -114.5t137.5 -38q82 0 152 39zM250 186l93 95q56 57 82 100t26 82q0 31 -14.5 50t-37.5 19q-13 0 -37 -6l-20 -85h-74v73l146 48q64 0 98.5 -27.5t34.5 -71.5q0 -50 -36 -92t-113 -91l-84 -55l36 13h208v-19l-21 -51h-277z
" />
    <glyph glyph-name="uni2462" unicode="&#x2462;" horiz-adv-x="810" 
d="M220 31.5q-84 45.5 -133.5 129t-49.5 195.5q0 152 97.5 243t269.5 116q102 -1 186.5 -46.5t134 -129t49.5 -195.5q0 -152 -97.5 -243t-270.5 -116q-102 1 -186 46.5zM557 58q70 40 111.5 114t41.5 172q0 105 -46.5 181.5t-117 116.5t-140.5 40q-83 0 -153 -40
t-111.5 -114t-41.5 -172q0 -105 46.5 -181.5t117 -116.5t140.5 -40q83 0 153 40zM290 230h149q25 22 25 55q0 31 -25 50t-71 18l-4 17l29 15q33 16 45.5 34t12.5 46q0 25 -12.5 40t-32.5 15q-11 0 -27 -6l-21 -75h-71v68l149 45q53 0 79 -19.5t26 -49.5q0 -61 -105 -88
q59 -2 90 -26.5t31 -58.5t-27 -57.5t-88 -52.5l-93 -43h-59v73z" />
    <glyph glyph-name="uni2463" unicode="&#x2463;" horiz-adv-x="810" 
d="M221.5 30.5q-84.5 44.5 -134.5 128.5t-50 197q0 153 98 243.5t269 115.5q100 -1 184.5 -45.5t135 -128.5t50.5 -197q0 -153 -98 -243.5t-270 -115.5q-100 1 -184.5 45.5zM556 57q70 39 112 113t42 174q0 109 -48 185.5t-118.5 114.5t-137.5 38q-82 0 -152 -39.5
t-112 -113.5t-42 -173q0 -109 48 -185.5t118.5 -114.5t137.5 -38q82 0 152 39zM386 268h-155l-17 27l189 253h89v-23l-240 -225l15 6h119v64l73 51h9v-116h74v-37h-74v-105h-82v105z" />
    <glyph glyph-name="uni2464" unicode="&#x2464;" horiz-adv-x="810" 
d="M221.5 30.5q-84.5 44.5 -134.5 128.5t-50 197q0 153 98 243.5t269 115.5q100 -1 184.5 -45.5t135 -128.5t50.5 -197q0 -153 -98 -243.5t-270 -115.5q-100 1 -184.5 45.5zM556 57q70 39 112 113t42 174q0 109 -48 185.5t-118.5 114.5t-137.5 38q-82 0 -152 -39.5
t-112 -113.5t-42 -173q0 -109 48 -185.5t118.5 -114.5t137.5 -38q82 0 152 39zM282 228h128q37 33 37 71q0 26 -16.5 44t-48.5 18q-16 0 -29.5 -3.5t-32.5 -12.5l-22 -10l-11 10l25 196h225v-13l-17 -56h-194l-14 -113l113 55q54 0 84.5 -24t30.5 -64q0 -42 -29.5 -68.5
t-90.5 -57.5l-86 -44h-52v72z" />
    <glyph glyph-name="uni2465" unicode="&#x2465;" horiz-adv-x="810" 
d="M588.5 669.5q84.5 -44.5 135 -128.5t50.5 -197q0 -153 -98 -243.5t-270 -115.5q-100 1 -184.5 45.5t-134.5 128.5t-50 197q0 153 98 243.5t269 115.5q100 -1 184.5 -45.5zM556 57q70 39 112 113t42 174q0 109 -48 185.5t-118.5 114.5t-137.5 38q-82 0 -152 -39.5
t-112 -113.5t-42 -173q0 -109 48 -185.5t118.5 -114.5t137.5 -38q82 0 152 39zM517.5 380.5q27.5 -32.5 27.5 -76.5q0 -60 -40.5 -94.5t-117.5 -52.5q-66 0 -103 42t-37 112q0 83 59 148t184 102l6 -19q-58 -23 -90 -48.5t-46 -59.5t-16 -85l92 64q54 0 81.5 -32.5zM452 279
q0 37 -11.5 57.5t-30.5 20.5q-12 0 -25 -6.5t-41 -25.5q1 -70 15 -107t42 -37q51 0 51 98z" />
    <glyph glyph-name="uni2466" unicode="&#x2466;" horiz-adv-x="810" 
d="M221.5 30.5q-84.5 44.5 -134.5 128.5t-50 197q0 153 98 243.5t269 115.5q100 -1 184.5 -45.5t135 -128.5t50.5 -197q0 -153 -98 -243.5t-270 -115.5q-100 1 -184.5 45.5zM556 57q70 39 112 113t42 174q0 109 -48 185.5t-118.5 114.5t-137.5 38q-82 0 -152 -39.5
t-112 -113.5t-42 -173q0 -109 48 -185.5t118.5 -114.5t137.5 -38q82 0 152 39zM319 174l193 295l-9 -7h-218v73h268l13 -15l-179 -370h-68v24z" />
    <glyph glyph-name="uni2467" unicode="&#x2467;" horiz-adv-x="810" 
d="M588.5 669.5q84.5 -44.5 135 -128.5t50.5 -197q0 -153 -98 -243.5t-270 -115.5q-100 1 -184.5 45.5t-134.5 128.5t-50 197q0 153 98 243.5t269 115.5q100 -1 184.5 -45.5zM556 57q70 39 112 113t42 174q0 109 -48 185.5t-118.5 114.5t-137.5 38q-82 0 -152 -39.5
t-112 -113.5t-42 -173q0 -109 48 -185.5t118.5 -114.5t137.5 -38q82 0 152 39zM531 316.5q21 -24.5 21 -55.5q0 -44 -36.5 -69t-115.5 -43q-61 2 -101.5 28t-40.5 71q0 31 23 53t70 38l-12 8q-35 22 -54.5 46t-19.5 54q0 76 143 104q62 -2 98.5 -25t36.5 -61q0 -57 -93 -86
l21 -15q39 -23 60 -47.5zM367 514.5q-13 -11.5 -13 -32.5q0 -43 66 -83l8 -6q27 26 27 69q0 29 -14.5 46.5t-39.5 17.5q-21 0 -34 -11.5zM445 186.5q15 13.5 15 41.5q0 25 -16.5 42.5t-48.5 37.5l-24 16q-12 -14 -19 -32.5t-7 -37.5q0 -40 19 -60.5t44 -20.5q22 0 37 13.5z
" />
    <glyph glyph-name="uni2468" unicode="&#x2468;" horiz-adv-x="810" 
d="M588.5 669.5q84.5 -44.5 135 -128.5t50.5 -197q0 -153 -98 -243.5t-270 -115.5q-100 1 -184.5 45.5t-134.5 128.5t-50 197q0 153 98 243.5t269 115.5q100 -1 184.5 -45.5zM556 57q70 39 112 113t42 174q0 109 -48 185.5t-118.5 114.5t-137.5 38q-82 0 -152 -39.5
t-112 -113.5t-42 -173q0 -109 48 -185.5t118.5 -114.5t137.5 -38q82 0 152 39zM524 505q37 -42 37 -112q0 -82 -59.5 -148t-183.5 -103l-6 19q82 33 115 76t36 117l-90 -64q-54 0 -82.5 33t-28.5 77q0 60 41 94t118 53q66 0 103 -42zM368 367.5q12 -21.5 31 -21.5q11 0 23 6
t41 25q-2 145 -57 145q-24 0 -37 -23t-13 -70q0 -40 12 -61.5z" />
    <glyph glyph-name="lozenge" unicode="&#x25ca;" 
d="M47 330l247 368l43 17l236 -347l-244 -367l-45 -18zM486 306l-199 299l-4 17l-148 -227l199 -298l3 -17z" />
    <glyph glyph-name="circle" unicode="&#x25cb;" horiz-adv-x="810" 
d="M221.5 30.5q-84.5 44.5 -134.5 128.5t-50 197q0 153 98 243.5t269 115.5q100 -1 184.5 -45.5t135 -128.5t50.5 -197q0 -153 -98 -243.5t-270 -115.5q-100 1 -184.5 45.5zM556 57q70 39 112 113t42 174q0 109 -48 185.5t-118.5 114.5t-137.5 38q-82 0 -152 -39.5
t-112 -113.5t-42 -173q0 -109 48 -185.5t118.5 -114.5t137.5 -38q82 0 152 39z" />
    <glyph glyph-name="uni25CF" unicode="&#x25cf;" horiz-adv-x="810" 
d="M221.5 30.5q-84.5 44.5 -134.5 128.5t-50 197q0 153 98 243.5t269 115.5q100 -1 184.5 -45.5t135 -128.5t50.5 -197q0 -153 -98 -243.5t-270 -115.5q-100 1 -184.5 45.5z" />
    <glyph glyph-name="uniF8FF" unicode="&#xf8ff;" horiz-adv-x="685" 
d="M462 -28l-24 18h-14l-8 8l7 76l-4 47l-61 1l-3 -52l-2 -56v-20l-15 -6l-8 6l-30 -10h-32l-1 11l11 11l50 21l-6 96l-98 -6l-147 140l-4 115l-13 10l-10 36v26l15 8l-3 78l92 -62l9 47l10 36l22 35l28 35l39 29l78 29h22l-68 22l4 17h7l79 -20l-4 51l16 12h32l19 -5
l29 -25l32 -8l32 -10l15 -13v-20l-20 -31l30 -28l28 -32l18 -34l15 -41l9 -54l-3 -41l-8 -35l-12 -31l-3 -156l-21 -7l-50 70l-27 -7l-19 -140l-32 4l-7 -4l-4 -94l30 -19l16 -14l-3 -15zM243 540l36 24h32l18 -12l8 3l4 14l7 5l10 -4v-18h8l10 22l11 8l-5 6l-3 8l1 21
l-30 -10l-10 -8l-8 5l4 21l14 10l11 11l38 -2l12 13l-4 8h-49l-45 -13l-53 -26l-29 -23l-25 -34l29 12l13 -15l-17 -20l-10 -3l17 -3h5zM421 625l-7 17l-8 -9v-19l12 -6zM479 564l6 6l-9 18l17 28l-15 9v5l-25 7v-20l-13 -5v-9l-9 -6l-3 -12l5 -6l19 11l8 -2l6 -24h13z
M563 418h23l6 11l-18 6l-5 9l9 42h7l14 -20l17 -1l-8 37l-19 50l-20 36l-23 28l-34 21h-11l17 -19l25 -10l11 -11l3 -33l-25 13l-15 -29l12 -8v-19l15 3l-12 26l15 -5l10 -20l-5 -12l-8 -7h-23l-3 11l-12 2l1 -22h-14l14 -18l-7 -10l-21 5l-3 -27l41 6l8 17l22 -2l6 -28
l-16 -13v-15l8 -6zM493 521l-2 9l-8 -4v-9l8 -3zM273 510l-4 12l-55 -24zM399 495l-48 25l-4 -12l49 -17zM102 434l57 -32l7 10l-68 38v18l59 -34l43 -28l28 -14l3 10l-103 64l-13 7l-41 33l2 -78l19 -17v-5h-21l19 -14l1 -11l-20 7l18 -18l-4 -7l3 -97l11 -12v180zM268 437
l16 12l6 12l2 13l-22 -4l6 -10l-12 -13l-14 -1l-6 8l1 4l14 2l-13 6l2 7l-20 -1l3 -19l14 -15l12 -6zM377 440l6 9l5 20l-30 2l7 -5l1 -11l-7 -11h-12l-5 7l11 8l-15 2v6l-23 4l3 -17l8 -14l20 -9l13 -1zM249 134l2 40l41 -3l3 9l-44 6v16l48 -6l1 9l-47 7l1 22l43 -3l3 6
l-45 9l3 94h74l11 10h-79l2 9h74l8 7h-82l2 22l117 4l140 -4v11l-4 7h-205l-66 -3l-7 -9l-6 -44l-48 20l-11 -4l57 -27l1 -45l-5 -73v-91zM564 386l5 7v7l-10 -4v-10h5zM433 336l4 30l-54 5l-3 -35h53zM202 291l4 40l-66 39v-7l-2 -13l1 -27v-48l64 -44zM548 302l20 15
l13 13l11 18l-7 5h-14l-10 3l-14 7l-17 -3l-6 -48q1 1 16 -12zM511 350l4 9h-48v-13zM491 221l4 36l-15 3l-1 8l20 1l5 3l-28 16l2 5l30 -6l-30 15l5 5l21 -5l4 10l3 19l-54 1l-1 -24v-6l-2 -31l19 -3l-8 -61l-48 3l-8 -6l51 -5l-2 -9h-49l-4 -5l53 -7l-6 -35l27 -1z
M394 302v10h-73v-10h73zM589 312l-6 -3l-33 -27l39 -48v78zM394 281l-72 7l-6 -13l78 -4v10zM384 250v6l-68 4v-10h68zM206 203l-74 50l20 -23l50 -41zM380 214l-64 4v-51l64 -6v53z" />
    <glyph glyph-name="uni00A40301" horiz-adv-x="355" 
d="M205 903h116l-126 -135h-42zM2 -72h111l5 22q7 21 9 50.5t2 92.5v571l-103 10l3 27l164 -2l136 2l3 -27l-76 -10v-540q0 -65 -22.5 -112t-61.5 -90l-89 -97h-81v103z" />
    <glyph glyph-name="uni006A0301" horiz-adv-x="276" 
d="M-23 -135h104l5 19q11 42 11 114v427l-62 -9l-3 27l145 34l35 1v-457q0 -52 -16.5 -86t-50.5 -70l-92 -101h-76v101zM189 710h113l-128 -159h-36z" />
    <glyph glyph-name="uni0237" horiz-adv-x="276" 
d="M-23 -135h104l5 19q11 42 11 114v427l-62 -9l-3 27l145 34l35 1v-457q0 -52 -16.5 -86t-50.5 -70l-92 -101h-76v101z" />
    <glyph glyph-name="zero.zero" horiz-adv-x="584" 
d="M429.5 456.5q53.5 -30.5 84 -86t30.5 -125.5q0 -209 -269 -260q-67 0 -120.5 30.5t-84 86t-30.5 125.5q0 109 69 171t200 89q67 0 120.5 -30.5zM194.5 391.5q-29.5 -51.5 -29.5 -134.5q0 -80 19 -134l200 254q-35 66 -104 66q-56 0 -85.5 -51.5zM386.5 79.5
q29.5 51.5 29.5 134.5q0 79 -20 136l-200 -254q35 -68 105 -68q56 0 85.5 51.5z" />
    <glyph glyph-name="zero.tf" 
d="M172.5 15.5q-53.5 30.5 -84 86t-30.5 125.5q0 109 69 171t200 89q67 0 120.5 -30.5t84 -86t30.5 -125.5q0 -209 -269 -260q-67 0 -120.5 30.5zM404.5 79.5q29.5 51.5 29.5 134.5q0 105 -34.5 167t-101.5 62q-56 0 -85.5 -51.5t-29.5 -134.5q0 -105 34.5 -167t101.5 -62
q56 0 85.5 51.5z" />
    <glyph glyph-name="one.tf" 
d="M114 26l142 12v354l3 9l-21 -10l-117 -34l-12 27l229 97h35v-443l140 -12l-3 -27l-194 2l-200 -2z" />
    <glyph glyph-name="two.tf" 
d="M80 28l145 112q83 63 118 111.5t35 98.5q0 44 -21 67.5t-59 23.5q-27 0 -59 -16l-32 -126h-92v109l205 79q90 0 136.5 -35.5t46.5 -93.5q0 -64 -51.5 -116t-157.5 -107l-104 -53l66 16h284v-24l-30 -74h-416z" />
    <glyph glyph-name="three.tf" 
d="M101 -129h229q34 27 50.5 57t16.5 69q0 60 -48.5 96t-128.5 35l-7 23l49 26q59 29 84.5 64.5t25.5 89.5q0 47 -23 76.5t-60 29.5q-27 0 -59 -15l-35 -124h-91v111l221 78q76 0 121.5 -35t45.5 -94q0 -111 -165 -170q55 -3 99 -24t69 -55t25 -75q0 -46 -18 -79.5
t-60 -63.5t-119 -65l-122 -56h-100v101z" />
    <glyph glyph-name="four.tf" 
d="M333 -11h-267l-24 33l314 452h125v-29l-382 -415l22 8h212v134l97 68h14v-202h132v-49h-132v-220h-111v220z" />
    <glyph glyph-name="five.tf" 
d="M102 -129h203q42 28 63.5 68t21.5 88q0 56 -31 91t-85 35q-30 0 -52.5 -6t-56.5 -22l-36 -17l-17 12l41 356h354v-19l-22 -80h-307l-27 -227l164 87q60 0 105.5 -22t69.5 -60t24 -85q0 -79 -47 -133t-157 -106l-123 -61h-85v101z" />
    <glyph glyph-name="six.tf" 
d="M460.5 422q41.5 -27 63.5 -73t22 -104q0 -199 -251 -260q-68 0 -118 36t-76 100t-26 145q0 154 95.5 273.5t285.5 181.5l9 -28q-98 -42 -153.5 -92t-80 -115t-27.5 -157l158 120q57 0 98.5 -27zM395 72q27 47 27 135q0 76 -24 118.5t-65 42.5q-20 0 -41 -11.5t-57 -39.5
l-31 -24q1 -129 31 -198.5t83 -69.5q50 0 77 47z" />
    <glyph glyph-name="seven.tf" 
d="M149 -202l304 571v4h-371v103h438l17 -19l-293 -687h-95v28z" />
    <glyph glyph-name="eight.tf" 
d="M508 279.5q34 -41.5 34 -95.5q0 -78 -59.5 -124.5t-183.5 -74.5q-61 1 -112 23.5t-80.5 63t-29.5 94.5q0 113 158 180l-24 18q-119 78 -119 171q0 67 55.5 111t167.5 69q99 -1 155.5 -42t56.5 -109q0 -109 -155 -172l38 -29q64 -42 98 -83.5zM237 652.5
q-25 -24.5 -25 -68.5t33 -83.5t93 -82.5l8 -6q34 29 48 62.5t14 77.5q0 56 -28 90.5t-78 34.5q-40 0 -65 -24.5zM389 52q31 28 31 84q0 48 -30.5 83.5t-95.5 80.5l-34 26q-31 -26 -48 -63t-17 -81q0 -48 17 -84t44.5 -55t58.5 -19q43 0 74 28z" />
    <glyph glyph-name="nine.tf" 
d="M439 452.5q50 -34.5 77.5 -97.5t27.5 -145q0 -157 -97.5 -273t-282.5 -177l-9 28q90 40 144.5 87.5t82 112t32.5 155.5l-155 -120q-55 0 -97 25.5t-65.5 72.5t-23.5 109q0 97 62 161t188 96q66 0 116 -34.5zM415 179v7q0 118 -29.5 189.5t-87.5 71.5q-47 0 -74.5 -47
t-27.5 -131q0 -77 25 -120.5t69 -43.5q19 0 36.5 9.5t53.5 37.5z" />
    <glyph glyph-name="zero.tf.zero" 
d="M447.5 456.5q53.5 -30.5 84 -86t30.5 -125.5q0 -209 -269 -260q-67 0 -120.5 30.5t-84 86t-30.5 125.5q0 109 69 171t200 89q67 0 120.5 -30.5zM212.5 391.5q-29.5 -51.5 -29.5 -134.5q0 -80 19 -134l200 254q-35 66 -104 66q-56 0 -85.5 -51.5zM404.5 79.5
q29.5 51.5 29.5 134.5q0 79 -20 136l-200 -254q35 -68 105 -68q56 0 85.5 51.5z" />
    <glyph glyph-name="dollar.tf" 
d="M339 -4v-76h-34v66l-14 -3q-59 0 -109 15.5t-98 48.5l-11 161h45l41 -103q31 -36 68.5 -55t77.5 -20v269l-94 51q-67 36 -96 75t-29 92q0 71 56 121t163 75v68h34v-64q98 -3 181 -49v-157h-36l-43 112q-45 45 -102 51v-246l73 -40q72 -37 103.5 -80t31.5 -103
q0 -145 -208 -209zM305 446v228q-50 -3 -79 -31t-29 -72q0 -36 21.5 -63t70.5 -53zM410 72q26 31 26 77q0 41 -23.5 72.5t-73.5 58.5v-247q45 8 71 39z" />
    <glyph glyph-name="cent.tf" 
d="M352 -9v-71h-40v66q-91 8 -147.5 70.5t-56.5 162.5t57.5 164.5t149.5 93.5v70h39v-60q37 0 76.5 -15t66.5 -37v-106h-93l-30 108q-15 9 -39 9q-49 0 -81.5 -45.5t-32.5 -129.5q0 -56 20 -102t56.5 -72t84.5 -26q30 0 57 10.5t55 29.5l13 -24q-70 -61 -155 -96z" />
    <glyph glyph-name="sterling.tf" 
d="M550 161l-13 -161l-336 1l-130 -1l-3 23l84 28v286h-81v9l21 27h60v121q0 92 57 142t174 79q98 0 140 -45v-128h-40l-32 99q-18 19 -35.5 27.5t-44.5 8.5q-53 0 -78.5 -38.5t-25.5 -98.5v-167h165v-36h-165v-170q0 -61 -10 -89t-26 -43l229 2l56 124h34z" />
    <glyph glyph-name="florin.tf" 
d="M117 -144h96l9 18q8 18 10.5 41.5t2.5 75.5v437h-73v10l17 25h56v11q0 44 13 75.5t42 60.5l101 100h111v-85h-127l-11 -19q-8 -17 -11 -40.5t-3 -70.5v-34h117v-33h-117v-413q0 -51 -16.5 -86.5t-47.5 -67.5l-95 -96h-74v91z" />
    <glyph glyph-name="yen.tf" 
d="M380 278v-7h129v-30h-129v-67h129v-31h-129v-107l107 -10l-2 -27l-165 2l-172 -2l-3 27l109 10v107h-123v31h123v67h-123v30h123v1l-197 393l-70 9l3 27l144 -2l144 2l2 -27l-80 -10l154 -329l3 -25l158 354l-86 10l2 27l108 -2l91 2l3 -27l-70 -9z" />
    <glyph glyph-name="Euro.tf" 
d="M267 610q-50 -67 -61 -180h286l-24 -38h-265v-20q0 -34 3 -64h220l-24 -38h-191q18 -102 73 -158.5t139 -56.5q40 0 83.5 15t80.5 40l16 -29q-41 -30 -99 -57t-109 -39q-136 0 -221 75.5t-103 209.5h-57v38h54q-1 10 -1 30q0 29 3 54h-56v38h61q22 118 104.5 190
t220.5 96q56 0 109 -17t96 -48v-163h-36l-50 132q-46 57 -127 57q-75 0 -125 -67z" />
    <glyph glyph-name="percent.tf" 
d="M56 402q-34 47 -34 121q0 71 36 115.5t111 66.5q53 0 87.5 -47.5t34.5 -120.5q0 -72 -37 -117t-111 -65q-53 0 -87 47zM482 705h47l-387 -710h-48zM195 419q13 37 13 94q0 66 -16 112t-42 53q-21 0 -34 -37.5t-13 -93.5q0 -68 15.5 -113t42.5 -52q21 0 34 37zM363 43
q-34 47 -34 121q0 71 36 115.5t110 66.5q54 0 88 -47.5t34 -121.5q0 -71 -36.5 -116t-110.5 -65q-53 0 -87 47zM502 59.5q13 36.5 13 94.5q0 67 -15.5 112t-42.5 53q-21 0 -34.5 -37t-13.5 -94q0 -67 15.5 -112.5t42.5 -52.5q22 0 35 36.5z" />
    <glyph glyph-name="perthousand.tf" horiz-adv-x="610" 
d="M53.5 437q-30.5 42 -30.5 107q0 63 32 102.5t98 58.5q47 0 77.5 -42t30.5 -107q0 -125 -131 -161q-46 0 -76.5 42zM106 647.5q-12 -33.5 -12 -82.5q0 -60 14 -99t38 -47q19 0 30.5 33t11.5 83q0 59 -14 99.5t-38 46.5q-18 0 -30 -33.5zM519 521l-426 -288h-58l426 288h58
zM556 263.5q31 -41.5 31 -107.5q0 -63 -32.5 -102.5t-98.5 -57.5q-24 0 -43.5 13t-33.5 36q-29 -34 -87 -49q-47 0 -76.5 42.5t-29.5 109.5q0 61 32 99.5t97 57.5q50 0 78 -49q30 33 85 49q47 0 78 -41.5zM339 51.5q12 31.5 12 78.5q0 62 -14 103t-38 48q-19 0 -30.5 -32
t-11.5 -83q0 -60 13.5 -99.5t37.5 -46.5q19 0 31 31.5zM502.5 52q11.5 32 11.5 83q0 59 -14 99t-37 47q-19 0 -31 -32.5t-12 -82.5q0 -59 14 -99t38 -47q19 0 30.5 32z" />
    <glyph glyph-name="Aogonek.ss01" horiz-adv-x="720" 
d="M479 -71v-18q0 -34 23 -50.5t72 -16.5l-1 -23q-95 0 -133.5 22.5t-38.5 71.5v24l109 81l-74 220h-242l-70 -204l82 -10l-2 -27l-106 2l-89 -2l-2 27l68 10l236 646l93 31l240 -678l70 -9l-3 -27l-187 2zM424 274l-102 305l-2 28l-114 -333h218z" />
    <glyph glyph-name="Ccedilla.ss01" horiz-adv-x="694" 
d="M393 -17l-15 -19q32 -2 54 -16t22 -37q0 -26 -24.5 -41t-64.5 -27l-67 -20h-43l32 39h79q25 14 25 35q0 17 -20 25.5t-51 9.5l47 52q-91 7 -166 49.5t-119.5 120t-44.5 182.5q0 168 100.5 263.5t279.5 117.5q123 0 233 -62v-163h-38l-50 121q-58 66 -154 66
q-66 0 -118 -36.5t-82 -109t-30 -174.5q0 -91 28 -168t83 -122.5t133 -45.5q76 0 139 61l59 136h37l-11 -169q-121 -53 -248 -68h-5z" />
    <glyph glyph-name="Eogonek.ss01" 
d="M472 -71v-18q0 -34 22.5 -50.5t71.5 -16.5v-23q-95 0 -133.5 22.5t-38.5 71.5v24l81 60l-309 2l-135 -2l-3 27l79 10v628l-79 10l3 27l135 -2l410 2l5 -186h-28l-64 149l-255 2v-283l137 2l43 114h28l-5 -130l5 -133h-28l-43 112l-137 2v-316l263 2l68 154h29l-17 -191
h-61z" />
    <glyph glyph-name="uni0122.ss01" horiz-adv-x="736" 
d="M212 24.5q-80 41.5 -127.5 121t-47.5 189.5q0 169 99.5 264.5t280.5 117.5q70 0 130 -18.5t103 -44.5v-162h-36l-50 119q-25 30 -64 49t-91 19q-70 0 -122 -39.5t-80.5 -112t-28.5 -171.5q0 -91 27.5 -167t80 -121.5t124.5 -45.5q39 0 69.5 14t49.5 34v214l-83 11l2 28
l145 -1l118 1l3 -28l-58 -11v-231q-54 -24 -123.5 -43.5t-145.5 -26.5q-95 0 -175 41.5zM352 -172l39 59l-46 27v37h107v-67l-78 -64z" />
    <glyph glyph-name="Iogonek.ss01" horiz-adv-x="341" 
d="M234 37l79 -10l-3 -28l-119 2l-45 -72v-18q0 -34 22.5 -50.5t71.5 -16.5v-23q-95 0 -133.5 22.5t-38.5 71.5v24l82 62l-119 -2l-3 28l79 10v627l-79 10l3 27l140 -2l139 2l3 -27l-79 -10v-627z" />
    <glyph glyph-name="uni0136.ss01" horiz-adv-x="717" 
d="M28 26l79 10v628l-79 10l3 27l142 -2l131 2l2 -27l-72 -10v-294l14 9l301 285l-81 10l2 27l105 -2l105 2l2 -27l-82 -11l-303 -288l63 5l294 -345l54 -9l-3 -27l-98 2l-89 -2l-276 336l-8 17v-316l72 -10l-2 -27l-131 2l-142 -2zM316 -172l39 59l-46 27v37h107v-67
l-78 -64z" />
    <glyph glyph-name="uni013B.ss01" horiz-adv-x="581" 
d="M28 26l79 10v628l-79 10l3 27l137 -2l142 2l3 -27l-79 -10v-628l239 1l74 158h28l-18 -196l-389 2l-137 -2zM265 -172l39 59l-46 27v37h107v-67l-78 -64z" />
    <glyph glyph-name="uni0145.ss01" horiz-adv-x="713" 
d="M162 586l-11 41v-591l80 -10l-3 -27l-98 2l-99 -2l-3 27l79 10v626l-77 12l2 27l110 -2l87 2l339 -490l12 -37v490l-79 10l2 27l97 -2l100 2l3 -27l-79 -10v-668h-63zM313 -172l39 59l-46 27v37h107v-67l-78 -64z" />
    <glyph glyph-name="Eng.ss01" horiz-adv-x="713" 
d="M401 -109l87 2l61 74l60 29h-46l-401 590l-11 36v-586l83 -10l-3 -27l-100 2l-100 -2l-3 27l79 10v626l-77 12l2 27l85 -2l111 2l340 -490l12 -33v486l-79 10l3 27l96 -2l100 2l3 -27l-79 -10v-668l-92 -171h-131v66z" />
    <glyph glyph-name="uni0156.ss01" horiz-adv-x="678" 
d="M673 26l-2 -27l-98 2l-76 -2l-196 321l-5 6h-62v-290l74 -10l-2 -27l-135 2l-140 -2l-3 27l79 10v628l-79 10l3 27l140 -2l200 2q92 0 153.5 -44t61.5 -130q0 -80 -65 -127.5t-173 -65.5l112 -37l165 -260zM234 360h58q72 0 114 43.5t42 116.5q0 71 -36.5 110.5
t-94.5 40.5l-83 -6v-305zM322 -49h107v-67l-78 -64l-22 8l39 59l-46 27v37z" />
    <glyph glyph-name="Scedilla.ss01" horiz-adv-x="551" 
d="M453.5 73q-58.5 -54 -177.5 -85l-19 -24q32 -2 54 -16t22 -37q0 -26 -24.5 -41t-64.5 -27l-67 -20h-43l32 39h79q25 14 25 35q0 17 -20 25.5t-51 9.5l46 51q-55 2 -102.5 17.5t-93.5 46.5l-11 161h45l41 -103q32 -37 70 -56t79 -19q58 0 93 32.5t35 86.5q0 42 -24.5 74
t-77.5 60l-123 67q-67 36 -96 75t-29 92q0 75 61 126t179 74q107 0 194 -49v-157h-37l-42 112q-52 52 -122 52q-55 0 -88.5 -28.5t-33.5 -75.5q0 -36 21.5 -63.5t70.5 -52.5l123 -67q72 -37 103.5 -80t31.5 -103q0 -78 -58.5 -132z" />
    <glyph glyph-name="uni0218.ss01" horiz-adv-x="551" 
d="M147 -1.5q-50 15.5 -98 48.5l-11 161h45l41 -103q32 -37 70 -56t79 -19q58 0 93 32.5t35 86.5q0 42 -24.5 74t-77.5 60l-123 67q-67 36 -96 75t-29 92q0 75 61 126t179 74q107 0 194 -49v-157h-37l-42 112q-52 52 -122 52q-55 0 -88.5 -28.5t-33.5 -75.5
q0 -36 21.5 -63.5t70.5 -52.5l123 -67q72 -37 103.5 -80t31.5 -103q0 -81 -63.5 -136t-192.5 -86q-59 0 -109 15.5zM229 -172l39 59l-46 27v37h107v-67l-78 -64z" />
    <glyph glyph-name="uni0162.ss01" horiz-adv-x="597" 
d="M584 701v-196h-28l-62 160l-132 1v-630l99 -10l-3 -27l-149 2l-30 -37q32 -2 54 -16t22 -37q0 -26 -24.5 -41t-64.5 -27l-67 -20h-43l32 39h79q25 14 25 35q0 17 -20 25.5t-51 9.5l63 69l-147 -2l-2 27l100 10v630l-132 -1l-62 -160h-28v196l287 -2z" />
    <glyph glyph-name="uni021A.ss01" horiz-adv-x="597" 
d="M135 26l100 10v630l-132 -1l-62 -160h-28v196l287 -2l284 2v-196h-28l-62 160l-132 1v-630l99 -10l-3 -27l-159 2l-162 -2zM251 -172l39 59l-46 27v37h107v-67l-78 -64z" />
    <glyph glyph-name="Uogonek.ss01" horiz-adv-x="699" 
d="M687 674l-78 -10v-421q0 -81 -31 -137t-107 -91l-54 -86v-18q0 -34 22.5 -50.5t71.5 -16.5v-23q-95 0 -133.5 22.5t-38.5 71.5v24l73 55q-28 -8 -44 -11q-144 0 -210.5 69.5t-66.5 193.5v418l-78 10l2 27l134 -2l144 2l3 -27l-77 -10v-426q0 -92 44.5 -146t127.5 -54
q76 0 120 55t44 146v425l-82 10l3 27l107 -2l101 2z" />
    <glyph glyph-name="Aacute.ss02" horiz-adv-x="720" 
d="M379 850h114l-118 -105h-44zM7 26l68 10l236 646l93 31l240 -678l70 -9l-3 -27l-150 2l-134 -2l-2 27l80 10l-69 204h-242l-70 -204l82 -10l-2 -27l-106 2l-89 -2zM424 274l-102 305l-2 28l-114 -333h218z" />
    <glyph glyph-name="Abreve.ss02" horiz-adv-x="720" 
d="M280 768q-38 31 -59 75l21 14q47 -63 118 -63q67 0 117 63l20 -14q-19 -35 -44.5 -60t-79.5 -46q-55 0 -93 31zM7 26l68 10l236 646l93 31l240 -678l70 -9l-3 -27l-150 2l-134 -2l-2 27l80 10l-69 204h-242l-70 -204l82 -10l-2 -27l-106 2l-89 -2zM424 274l-102 305
l-2 28l-114 -333h218z" />
    <glyph glyph-name="Acircumflex.ss02" horiz-adv-x="720" 
d="M329 855h60l117 -112h-45l-94 55l-8 8l-8 -8l-94 -55h-46zM7 26l68 10l236 646l93 31l240 -678l70 -9l-3 -27l-150 2l-134 -2l-2 27l80 10l-69 204h-242l-70 -204l82 -10l-2 -27l-106 2l-89 -2zM424 274l-102 305l-2 28l-114 -333h218z" />
    <glyph glyph-name="Adieresis.ss02" horiz-adv-x="720" 
d="M209 760l-5 49l9 40l61 5l25 -5l5 -48l-10 -41l-60 -5zM420 760l-5 49l9 40l60 5l25 -5l5 -48l-9 -41l-60 -5zM7 26l68 10l236 646l93 31l240 -678l70 -9l-3 -27l-150 2l-134 -2l-2 27l80 10l-69 204h-242l-70 -204l82 -10l-2 -27l-106 2l-89 -2zM424 274l-102 305l-2 28
l-114 -333h218z" />
    <glyph glyph-name="Agrave.ss02" horiz-adv-x="720" 
d="M218 850h114l49 -105h-45zM7 26l68 10l236 646l93 31l240 -678l70 -9l-3 -27l-150 2l-134 -2l-2 27l80 10l-69 204h-242l-70 -204l82 -10l-2 -27l-106 2l-89 -2zM424 274l-102 305l-2 28l-114 -333h218z" />
    <glyph glyph-name="Amacron.ss02" horiz-adv-x="720" 
d="M216 828h287v-49h-287v49zM7 26l68 10l236 646l93 31l240 -678l70 -9l-3 -27l-150 2l-134 -2l-2 27l80 10l-69 204h-242l-70 -204l82 -10l-2 -27l-106 2l-89 -2zM424 274l-102 305l-2 28l-114 -333h218z" />
    <glyph glyph-name="Aring.ss02" horiz-adv-x="720" 
d="M303 731.5q-24 16.5 -24 51.5q0 31 19.5 45t60.5 27q34 0 57.5 -17t23.5 -53q0 -22 -10.5 -35.5t-26 -20t-43.5 -14.5q-33 0 -57 16.5zM393 752.5q13 12.5 13 31.5q0 20 -13 33t-33 13t-33.5 -13t-13.5 -33q0 -19 13.5 -31.5t33.5 -12.5t33 12.5zM7 26l68 10l236 646
l93 31l240 -678l70 -9l-3 -27l-150 2l-134 -2l-2 27l80 10l-69 204h-242l-70 -204l82 -10l-2 -27l-106 2l-89 -2zM424 274l-102 305l-2 28l-114 -333h218z" />
    <glyph glyph-name="Atilde.ss02" horiz-adv-x="720" 
d="M226 837l66 19l179 -54l34 55h20l-33 -93l-66 -17l-179 55l-34 -57h-20zM7 26l68 10l236 646l93 31l240 -678l70 -9l-3 -27l-150 2l-134 -2l-2 27l80 10l-69 204h-242l-70 -204l82 -10l-2 -27l-106 2l-89 -2zM424 274l-102 305l-2 28l-114 -333h218z" />
    <glyph glyph-name="AEacute.ss02" horiz-adv-x="996" 
d="M689 850h114l-118 -105h-44zM5 26l69 9l421 666l72 -2l385 2l5 -183h-26l-64 147l-237 1v-312l120 2l43 113h26l-5 -130l5 -133h-26l-43 113l-120 2v-287l244 2l69 152h27l-17 -189l-389 2l-135 -2l-3 27l79 10v285h-204l-174 -285l78 -10l-3 -26l-104 1l-90 -1zM505 352
v307l-186 -307h186z" />
    <glyph glyph-name="Cacute.ss02" horiz-adv-x="694" 
d="M419 850h114l-117 -105h-44zM218.5 24q-82.5 41 -132 121t-49.5 191q0 168 100.5 263.5t279.5 117.5q123 0 233 -62v-163h-38l-50 121q-58 66 -154 66q-66 0 -118 -36.5t-82 -109t-30 -174.5q0 -91 28 -168t83 -122.5t133 -45.5q76 0 139 61l59 136h37l-11 -169
q-121 -53 -248 -68q-97 0 -179.5 41z" />
    <glyph glyph-name="Ccaron.ss02" horiz-adv-x="694" 
d="M256 857h45l94 -57l8 -7l8 7l94 57h45l-116 -112h-62zM218.5 24q-82.5 41 -132 121t-49.5 191q0 168 100.5 263.5t279.5 117.5q123 0 233 -62v-163h-38l-50 121q-58 66 -154 66q-66 0 -118 -36.5t-82 -109t-30 -174.5q0 -91 28 -168t83 -122.5t133 -45.5q76 0 139 61
l59 136h37l-11 -169q-121 -53 -248 -68q-97 0 -179.5 41z" />
    <glyph glyph-name="Ccircumflex.ss02" horiz-adv-x="694" 
d="M374 855h60l117 -112h-45l-94 55l-8 8l-8 -8l-94 -55h-46zM218.5 24q-82.5 41 -132 121t-49.5 191q0 168 100.5 263.5t279.5 117.5q123 0 233 -62v-163h-38l-50 121q-58 66 -154 66q-66 0 -118 -36.5t-82 -109t-30 -174.5q0 -91 28 -168t83 -122.5t133 -45.5q76 0 139 61
l59 136h37l-11 -169q-121 -53 -248 -68q-97 0 -179.5 41z" />
    <glyph glyph-name="Cdotaccent.ss02" horiz-adv-x="694" 
d="M356 756l-5 52l9 42l62 5l28 -5l5 -50l-9 -44l-61 -5zM218.5 24q-82.5 41 -132 121t-49.5 191q0 168 100.5 263.5t279.5 117.5q123 0 233 -62v-163h-38l-50 121q-58 66 -154 66q-66 0 -118 -36.5t-82 -109t-30 -174.5q0 -91 28 -168t83 -122.5t133 -45.5q76 0 139 61
l59 136h37l-11 -169q-121 -53 -248 -68q-97 0 -179.5 41z" />
    <glyph glyph-name="Dcaron.ss02" horiz-adv-x="738" 
d="M183 857h45l94 -57l8 -7l8 7l94 57h45l-116 -112h-62zM28 26l82 10v628l-82 10l3 27l136 -2l196 2q159 0 248.5 -87.5t89.5 -246.5t-86.5 -257t-255.5 -111l-194 2l-134 -2zM461 70.5q49 41.5 76 116.5t27 171q0 142 -59.5 228t-175.5 85l-92 -6v-627l110 -8
q65 -1 114 40.5z" />
    <glyph glyph-name="Eacute.ss02" 
d="M355 850h114l-118 -105h-44zM28 26l79 10v628l-79 10l3 27l135 -2l410 2l5 -186h-28l-64 149l-255 2v-283l137 2l43 114h28l-5 -130l5 -133h-28l-43 112l-137 2v-316l263 2l68 154h29l-17 -191l-411 2l-135 -2z" />
    <glyph glyph-name="Ebreve.ss02" 
d="M256 768q-38 31 -59 75l21 14q47 -63 118 -63q67 0 117 63l20 -14q-19 -35 -44.5 -60t-79.5 -46q-55 0 -93 31zM28 26l79 10v628l-79 10l3 27l135 -2l410 2l5 -186h-28l-64 149l-255 2v-283l137 2l43 114h28l-5 -130l5 -133h-28l-43 112l-137 2v-316l263 2l68 154h29
l-17 -191l-411 2l-135 -2z" />
    <glyph glyph-name="Ecaron.ss02" 
d="M188 857h45l94 -57l8 -7l8 7l94 57h45l-116 -112h-62zM28 26l79 10v628l-79 10l3 27l135 -2l410 2l5 -186h-28l-64 149l-255 2v-283l137 2l43 114h28l-5 -130l5 -133h-28l-43 112l-137 2v-316l263 2l68 154h29l-17 -191l-411 2l-135 -2z" />
    <glyph glyph-name="Ecircumflex.ss02" 
d="M305 855h60l117 -112h-45l-94 55l-8 8l-8 -8l-94 -55h-46zM28 26l79 10v628l-79 10l3 27l135 -2l410 2l5 -186h-28l-64 149l-255 2v-283l137 2l43 114h28l-5 -130l5 -133h-28l-43 112l-137 2v-316l263 2l68 154h29l-17 -191l-411 2l-135 -2z" />
    <glyph glyph-name="Edieresis.ss02" 
d="M184 760l-5 49l9 40l61 5l25 -5l5 -48l-10 -41l-60 -5zM395 760l-5 49l9 40l60 5l25 -5l5 -48l-9 -41l-60 -5zM28 26l79 10v628l-79 10l3 27l135 -2l410 2l5 -186h-28l-64 149l-255 2v-283l137 2l43 114h28l-5 -130l5 -133h-28l-43 112l-137 2v-316l263 2l68 154h29
l-17 -191l-411 2l-135 -2z" />
    <glyph glyph-name="Edotaccent.ss02" 
d="M287 756l-5 52l9 42l62 5l28 -5l5 -50l-9 -44l-61 -5zM28 26l79 10v628l-79 10l3 27l135 -2l410 2l5 -186h-28l-64 149l-255 2v-283l137 2l43 114h28l-5 -130l5 -133h-28l-43 112l-137 2v-316l263 2l68 154h29l-17 -191l-411 2l-135 -2z" />
    <glyph glyph-name="Egrave.ss02" 
d="M194 850h114l49 -105h-45zM28 26l79 10v628l-79 10l3 27l135 -2l410 2l5 -186h-28l-64 149l-255 2v-283l137 2l43 114h28l-5 -130l5 -133h-28l-43 112l-137 2v-316l263 2l68 154h29l-17 -191l-411 2l-135 -2z" />
    <glyph glyph-name="Emacron.ss02" 
d="M192 828h287v-49h-287v49zM28 26l79 10v628l-79 10l3 27l135 -2l410 2l5 -186h-28l-64 149l-255 2v-283l137 2l43 114h28l-5 -130l5 -133h-28l-43 112l-137 2v-316l263 2l68 154h29l-17 -191l-411 2l-135 -2z" />
    <glyph glyph-name="Gbreve.ss02" horiz-adv-x="736" 
d="M333 768q-38 31 -59 75l21 14q47 -63 118 -63q67 0 117 63l20 -14q-19 -35 -44.5 -60t-79.5 -46q-55 0 -93 31zM212 24.5q-80 41.5 -127.5 121t-47.5 189.5q0 169 99.5 264.5t280.5 117.5q70 0 130 -18.5t103 -44.5v-162h-36l-50 119q-25 30 -64 49t-91 19
q-70 0 -122 -39.5t-80.5 -112t-28.5 -171.5q0 -91 27.5 -167t80 -121.5t124.5 -45.5q39 0 69.5 14t49.5 34v214l-83 11l2 28l145 -1l118 1l3 -28l-58 -11v-231q-54 -24 -123.5 -43.5t-145.5 -26.5q-95 0 -175 41.5z" />
    <glyph glyph-name="Gcircumflex.ss02" horiz-adv-x="736" 
d="M383 855h60l117 -112h-45l-94 55l-8 8l-8 -8l-94 -55h-46zM212 24.5q-80 41.5 -127.5 121t-47.5 189.5q0 169 99.5 264.5t280.5 117.5q70 0 130 -18.5t103 -44.5v-162h-36l-50 119q-25 30 -64 49t-91 19q-70 0 -122 -39.5t-80.5 -112t-28.5 -171.5q0 -91 27.5 -167
t80 -121.5t124.5 -45.5q39 0 69.5 14t49.5 34v214l-83 11l2 28l145 -1l118 1l3 -28l-58 -11v-231q-54 -24 -123.5 -43.5t-145.5 -26.5q-95 0 -175 41.5z" />
    <glyph glyph-name="Gdotaccent.ss02" horiz-adv-x="736" 
d="M365 756l-5 52l9 42l62 5l28 -5l5 -50l-9 -44l-61 -5zM212 24.5q-80 41.5 -127.5 121t-47.5 189.5q0 169 99.5 264.5t280.5 117.5q70 0 130 -18.5t103 -44.5v-162h-36l-50 119q-25 30 -64 49t-91 19q-70 0 -122 -39.5t-80.5 -112t-28.5 -171.5q0 -91 27.5 -167t80 -121.5
t124.5 -45.5q39 0 69.5 14t49.5 34v214l-83 11l2 28l145 -1l118 1l3 -28l-58 -11v-231q-54 -24 -123.5 -43.5t-145.5 -26.5q-95 0 -175 41.5z" />
    <glyph glyph-name="Hcircumflex.ss02" horiz-adv-x="760" 
d="M350 855h60l117 -112h-45l-94 55l-8 8l-8 -8l-94 -55h-46zM28 26l79 10v628l-79 10l3 27l139 -2l136 2l2 -27l-74 -10v-282h293v282l-76 10l3 27l137 -2l138 2l2 -27l-77 -10v-628l77 -10l-2 -27l-138 2l-137 -2l-3 27l76 10v309h-293v-309l74 -10l-2 -27l-136 2l-139 -2
z" />
    <glyph glyph-name="Iacute.ss02" horiz-adv-x="341" 
d="M191 850h114l-118 -105h-44zM28 27l79 10v627l-79 10l3 27l140 -2l139 2l3 -27l-79 -10v-627l79 -10l-3 -28l-139 2l-140 -2z" />
    <glyph glyph-name="Ibreve.ss02" horiz-adv-x="341" 
d="M91 768q-38 31 -59 75l21 14q47 -63 118 -63q67 0 117 63l20 -14q-19 -35 -44.5 -60t-79.5 -46q-55 0 -93 31zM28 27l79 10v627l-79 10l3 27l140 -2l139 2l3 -27l-79 -10v-627l79 -10l-3 -28l-139 2l-140 -2z" />
    <glyph glyph-name="Icircumflex.ss02" horiz-adv-x="341" 
d="M141 855h60l117 -112h-45l-94 55l-8 8l-8 -8l-94 -55h-46zM28 27l79 10v627l-79 10l3 27l140 -2l139 2l3 -27l-79 -10v-627l79 -10l-3 -28l-139 2l-140 -2z" />
    <glyph glyph-name="Idieresis.ss02" horiz-adv-x="341" 
d="M20 760l-5 49l9 40l61 5l25 -5l5 -48l-10 -41l-60 -5zM231 760l-5 49l9 40l60 5l25 -5l5 -48l-9 -41l-60 -5zM28 27l79 10v627l-79 10l3 27l140 -2l139 2l3 -27l-79 -10v-627l79 -10l-3 -28l-139 2l-140 -2z" />
    <glyph glyph-name="Idotaccent.ss02" horiz-adv-x="341" 
d="M123 756l-5 52l9 42l62 5l28 -5l5 -50l-9 -44l-61 -5zM28 27l79 10v627l-79 10l3 27l140 -2l139 2l3 -27l-79 -10v-627l79 -10l-3 -28l-139 2l-140 -2z" />
    <glyph glyph-name="Igrave.ss02" horiz-adv-x="341" 
d="M30 850h114l49 -105h-45zM28 27l79 10v627l-79 10l3 27l140 -2l139 2l3 -27l-79 -10v-627l79 -10l-3 -28l-139 2l-140 -2z" />
    <glyph glyph-name="Imacron.ss02" horiz-adv-x="341" 
d="M27 828h287v-49h-287v49zM28 27l79 10v627l-79 10l3 27l140 -2l139 2l3 -27l-79 -10v-627l79 -10l-3 -28l-139 2l-140 -2z" />
    <glyph glyph-name="Itilde.ss02" horiz-adv-x="341" 
d="M37 837l66 19l179 -54l34 55h20l-33 -93l-66 -17l-179 55l-34 -57h-20zM28 27l79 10v627l-79 10l3 27l140 -2l139 2l3 -27l-79 -10v-627l79 -10l-3 -28l-139 2l-140 -2z" />
    <glyph glyph-name="Jcircumflex.ss02" horiz-adv-x="355" 
d="M148 855h60l117 -112h-45l-94 55l-8 8l-8 -8l-94 -55h-46zM2 -72h111l5 22q7 21 9 50.5t2 92.5v571l-103 10l3 27l164 -2l136 2l3 -27l-76 -10v-540q0 -65 -22.5 -112t-61.5 -90l-89 -97h-81v103z" />
    <glyph glyph-name="Lacute.ss02" horiz-adv-x="581" 
d="M200 850h114l-118 -105h-44zM28 26l79 10v628l-79 10l3 27l137 -2l142 2l3 -27l-79 -10v-628l239 1l74 158h28l-18 -196l-389 2l-137 -2z" />
    <glyph glyph-name="Nacute.ss02" horiz-adv-x="713" 
d="M387 850h114l-118 -105h-44zM162 586l-11 41v-591l80 -10l-3 -27l-98 2l-99 -2l-3 27l79 10v626l-77 12l2 27l110 -2l87 2l339 -490l12 -37v490l-79 10l2 27l97 -2l100 2l3 -27l-79 -10v-668h-63z" />
    <glyph glyph-name="Ncaron.ss02" horiz-adv-x="713" 
d="M219 857h45l94 -57l8 -7l8 7l94 57h45l-116 -112h-62zM162 586l-11 41v-591l80 -10l-3 -27l-98 2l-99 -2l-3 27l79 10v626l-77 12l2 27l110 -2l87 2l339 -490l12 -37v490l-79 10l2 27l97 -2l100 2l3 -27l-79 -10v-668h-63z" />
    <glyph glyph-name="Ntilde.ss02" horiz-adv-x="713" 
d="M233 837l66 19l179 -54l34 55h20l-33 -93l-66 -17l-179 55l-34 -57h-20zM162 586l-11 41v-591l80 -10l-3 -27l-98 2l-99 -2l-3 27l79 10v626l-77 12l2 27l110 -2l87 2l339 -490l12 -37v490l-79 10l2 27l97 -2l100 2l3 -27l-79 -10v-668h-63z" />
    <glyph glyph-name="Oacute.ss02" horiz-adv-x="779" 
d="M412 850h114l-118 -105h-44zM200.5 28.5q-77.5 45.5 -120.5 126t-43 180.5q0 164 88 257t275 125q101 0 179 -45.5t121 -126t43 -180.5q0 -164 -88 -257t-276 -125q-101 0 -178.5 45.5zM552 111.5q50 85.5 50 220.5q0 92 -26.5 170t-78.5 125t-123 47q-95 0 -145.5 -85.5
t-50.5 -220.5q0 -92 27 -170t79 -125t123 -47q95 0 145 85.5z" />
    <glyph glyph-name="Obreve.ss02" horiz-adv-x="779" 
d="M312 768q-38 31 -59 75l21 14q47 -63 118 -63q67 0 117 63l20 -14q-19 -35 -44.5 -60t-79.5 -46q-55 0 -93 31zM200.5 28.5q-77.5 45.5 -120.5 126t-43 180.5q0 164 88 257t275 125q101 0 179 -45.5t121 -126t43 -180.5q0 -164 -88 -257t-276 -125q-101 0 -178.5 45.5z
M552 111.5q50 85.5 50 220.5q0 92 -26.5 170t-78.5 125t-123 47q-95 0 -145.5 -85.5t-50.5 -220.5q0 -92 27 -170t79 -125t123 -47q95 0 145 85.5z" />
    <glyph glyph-name="Ocircumflex.ss02" horiz-adv-x="779" 
d="M362 855h60l117 -112h-45l-94 55l-8 8l-8 -8l-94 -55h-46zM200.5 28.5q-77.5 45.5 -120.5 126t-43 180.5q0 164 88 257t275 125q101 0 179 -45.5t121 -126t43 -180.5q0 -164 -88 -257t-276 -125q-101 0 -178.5 45.5zM552 111.5q50 85.5 50 220.5q0 92 -26.5 170
t-78.5 125t-123 47q-95 0 -145.5 -85.5t-50.5 -220.5q0 -92 27 -170t79 -125t123 -47q95 0 145 85.5z" />
    <glyph glyph-name="Odieresis.ss02" horiz-adv-x="779" 
d="M241 760l-5 49l9 40l61 5l25 -5l5 -48l-10 -41l-60 -5zM452 760l-5 49l9 40l60 5l25 -5l5 -48l-9 -41l-60 -5zM200.5 28.5q-77.5 45.5 -120.5 126t-43 180.5q0 164 88 257t275 125q101 0 179 -45.5t121 -126t43 -180.5q0 -164 -88 -257t-276 -125q-101 0 -178.5 45.5z
M552 111.5q50 85.5 50 220.5q0 92 -26.5 170t-78.5 125t-123 47q-95 0 -145.5 -85.5t-50.5 -220.5q0 -92 27 -170t79 -125t123 -47q95 0 145 85.5z" />
    <glyph glyph-name="Ograve.ss02" horiz-adv-x="779" 
d="M251 850h114l49 -105h-45zM200.5 28.5q-77.5 45.5 -120.5 126t-43 180.5q0 164 88 257t275 125q101 0 179 -45.5t121 -126t43 -180.5q0 -164 -88 -257t-276 -125q-101 0 -178.5 45.5zM552 111.5q50 85.5 50 220.5q0 92 -26.5 170t-78.5 125t-123 47q-95 0 -145.5 -85.5
t-50.5 -220.5q0 -92 27 -170t79 -125t123 -47q95 0 145 85.5z" />
    <glyph glyph-name="Ohungarumlaut.ss02" horiz-adv-x="779" 
d="M340 850h118l-132 -102h-44zM512 850h118l-133 -102h-44zM200.5 28.5q-77.5 45.5 -120.5 126t-43 180.5q0 164 88 257t275 125q101 0 179 -45.5t121 -126t43 -180.5q0 -164 -88 -257t-276 -125q-101 0 -178.5 45.5zM552 111.5q50 85.5 50 220.5q0 92 -26.5 170t-78.5 125
t-123 47q-95 0 -145.5 -85.5t-50.5 -220.5q0 -92 27 -170t79 -125t123 -47q95 0 145 85.5z" />
    <glyph glyph-name="Omacron.ss02" horiz-adv-x="779" 
d="M248 828h287v-49h-287v49zM200.5 28.5q-77.5 45.5 -120.5 126t-43 180.5q0 164 88 257t275 125q101 0 179 -45.5t121 -126t43 -180.5q0 -164 -88 -257t-276 -125q-101 0 -178.5 45.5zM552 111.5q50 85.5 50 220.5q0 92 -26.5 170t-78.5 125t-123 47q-95 0 -145.5 -85.5
t-50.5 -220.5q0 -92 27 -170t79 -125t123 -47q95 0 145 85.5z" />
    <glyph glyph-name="Oslashacute.ss02" horiz-adv-x="779" 
d="M406 745h-44l48 105h114zM716 512q27 -67 27 -147q0 -164 -88 -257t-276 -125q-118 0 -206 63l-49 -61h-47l68 85q-52 48 -80 116t-28 149q0 164 88 257t275 125q123 0 212 -68l53 66h44l-71 -88q51 -48 78 -115zM220 162l326 405q-30 51 -73.5 79t-98.5 28
q-95 0 -145.5 -85.5t-50.5 -220.5q0 -119 42 -206zM552 111.5q50 85.5 50 220.5q0 114 -39 201l-325 -405q30 -48 73 -75t96 -27q95 0 145 85.5z" />
    <glyph glyph-name="Otilde.ss02" horiz-adv-x="779" 
d="M258 837l66 19l179 -54l34 55h20l-33 -93l-66 -17l-179 55l-34 -57h-20zM200.5 28.5q-77.5 45.5 -120.5 126t-43 180.5q0 164 88 257t275 125q101 0 179 -45.5t121 -126t43 -180.5q0 -164 -88 -257t-276 -125q-101 0 -178.5 45.5zM552 111.5q50 85.5 50 220.5
q0 92 -26.5 170t-78.5 125t-123 47q-95 0 -145.5 -85.5t-50.5 -220.5q0 -92 27 -170t79 -125t123 -47q95 0 145 85.5z" />
    <glyph glyph-name="Racute.ss02" horiz-adv-x="678" 
d="M327 745h-44l48 105h114zM673 26l-2 -27l-98 2l-76 -2l-196 321l-5 6h-62v-290l74 -10l-2 -27l-135 2l-140 -2l-3 27l79 10v628l-79 10l3 27l140 -2l200 2q92 0 153.5 -44t61.5 -130q0 -80 -65 -127.5t-173 -65.5l112 -37l165 -260zM234 360h58q72 0 114 43.5t42 116.5
q0 71 -36.5 110.5t-94.5 40.5l-83 -6v-305z" />
    <glyph glyph-name="Rcaron.ss02" horiz-adv-x="678" 
d="M279 745l-116 112h45l94 -57l8 -7l8 7l94 57h45l-116 -112h-62zM673 26l-2 -27l-98 2l-76 -2l-196 321l-5 6h-62v-290l74 -10l-2 -27l-135 2l-140 -2l-3 27l79 10v628l-79 10l3 27l140 -2l200 2q92 0 153.5 -44t61.5 -130q0 -80 -65 -127.5t-173 -65.5l112 -37l165 -260z
M234 360h58q72 0 114 43.5t42 116.5q0 71 -36.5 110.5t-94.5 40.5l-83 -6v-305z" />
    <glyph glyph-name="Sacute.ss02" horiz-adv-x="551" 
d="M314 850h114l-118 -105h-44zM147 -1.5q-50 15.5 -98 48.5l-11 161h45l41 -103q32 -37 70 -56t79 -19q58 0 93 32.5t35 86.5q0 42 -24.5 74t-77.5 60l-123 67q-67 36 -96 75t-29 92q0 75 61 126t179 74q107 0 194 -49v-157h-37l-42 112q-52 52 -122 52q-55 0 -88.5 -28.5
t-33.5 -75.5q0 -36 21.5 -63.5t70.5 -52.5l123 -67q72 -37 103.5 -80t31.5 -103q0 -81 -63.5 -136t-192.5 -86q-59 0 -109 15.5z" />
    <glyph glyph-name="Scaron.ss02" horiz-adv-x="551" 
d="M146 857h45l94 -57l8 -7l8 7l94 57h45l-116 -112h-62zM147 -1.5q-50 15.5 -98 48.5l-11 161h45l41 -103q32 -37 70 -56t79 -19q58 0 93 32.5t35 86.5q0 42 -24.5 74t-77.5 60l-123 67q-67 36 -96 75t-29 92q0 75 61 126t179 74q107 0 194 -49v-157h-37l-42 112
q-52 52 -122 52q-55 0 -88.5 -28.5t-33.5 -75.5q0 -36 21.5 -63.5t70.5 -52.5l123 -67q72 -37 103.5 -80t31.5 -103q0 -81 -63.5 -136t-192.5 -86q-59 0 -109 15.5z" />
    <glyph glyph-name="Scircumflex.ss02" horiz-adv-x="551" 
d="M264 855h60l117 -112h-45l-94 55l-8 8l-8 -8l-94 -55h-46zM147 -1.5q-50 15.5 -98 48.5l-11 161h45l41 -103q32 -37 70 -56t79 -19q58 0 93 32.5t35 86.5q0 42 -24.5 74t-77.5 60l-123 67q-67 36 -96 75t-29 92q0 75 61 126t179 74q107 0 194 -49v-157h-37l-42 112
q-52 52 -122 52q-55 0 -88.5 -28.5t-33.5 -75.5q0 -36 21.5 -63.5t70.5 -52.5l123 -67q72 -37 103.5 -80t31.5 -103q0 -81 -63.5 -136t-192.5 -86q-59 0 -109 15.5z" />
    <glyph glyph-name="Tcaron.ss02" horiz-adv-x="597" 
d="M152 857h45l94 -57l8 -7l8 7l94 57h45l-116 -112h-62zM135 26l100 10v630l-132 -1l-62 -160h-28v196l287 -2l284 2v-196h-28l-62 160l-132 1v-630l99 -10l-3 -27l-159 2l-162 -2z" />
    <glyph glyph-name="Uacute.ss02" horiz-adv-x="699" 
d="M400 850h114l-118 -105h-44zM157.5 52.5q-66.5 69.5 -66.5 193.5v418l-78 10l2 27l134 -2l144 2l3 -27l-77 -10v-426q0 -92 44.5 -146t127.5 -54q76 0 120 55t44 146v425l-82 10l3 27l107 -2l101 2l3 -27l-78 -10v-421q0 -104 -52.5 -168t-188.5 -92q-144 0 -210.5 69.5z
" />
    <glyph glyph-name="Ubreve.ss02" horiz-adv-x="699" 
d="M301 768q-38 31 -59 75l21 14q47 -63 118 -63q67 0 117 63l20 -14q-19 -35 -44.5 -60t-79.5 -46q-55 0 -93 31zM157.5 52.5q-66.5 69.5 -66.5 193.5v418l-78 10l2 27l134 -2l144 2l3 -27l-77 -10v-426q0 -92 44.5 -146t127.5 -54q76 0 120 55t44 146v425l-82 10l3 27
l107 -2l101 2l3 -27l-78 -10v-421q0 -104 -52.5 -168t-188.5 -92q-144 0 -210.5 69.5z" />
    <glyph glyph-name="Ucircumflex.ss02" horiz-adv-x="699" 
d="M350 855h60l117 -112h-45l-94 55l-8 8l-8 -8l-94 -55h-46zM157.5 52.5q-66.5 69.5 -66.5 193.5v418l-78 10l2 27l134 -2l144 2l3 -27l-77 -10v-426q0 -92 44.5 -146t127.5 -54q76 0 120 55t44 146v425l-82 10l3 27l107 -2l101 2l3 -27l-78 -10v-421q0 -104 -52.5 -168
t-188.5 -92q-144 0 -210.5 69.5z" />
    <glyph glyph-name="Udieresis.ss02" horiz-adv-x="699" 
d="M229 760l-5 49l9 40l61 5l25 -5l5 -48l-10 -41l-60 -5zM440 760l-5 49l9 40l60 5l25 -5l5 -48l-9 -41l-60 -5zM157.5 52.5q-66.5 69.5 -66.5 193.5v418l-78 10l2 27l134 -2l144 2l3 -27l-77 -10v-426q0 -92 44.5 -146t127.5 -54q76 0 120 55t44 146v425l-82 10l3 27
l107 -2l101 2l3 -27l-78 -10v-421q0 -104 -52.5 -168t-188.5 -92q-144 0 -210.5 69.5z" />
    <glyph glyph-name="Ugrave.ss02" horiz-adv-x="699" 
d="M239 850h114l49 -105h-45zM157.5 52.5q-66.5 69.5 -66.5 193.5v418l-78 10l2 27l134 -2l144 2l3 -27l-77 -10v-426q0 -92 44.5 -146t127.5 -54q76 0 120 55t44 146v425l-82 10l3 27l107 -2l101 2l3 -27l-78 -10v-421q0 -104 -52.5 -168t-188.5 -92q-144 0 -210.5 69.5z
" />
    <glyph glyph-name="Uhungarumlaut.ss02" horiz-adv-x="699" 
d="M329 850h118l-132 -102h-44zM501 850h118l-133 -102h-44zM157.5 52.5q-66.5 69.5 -66.5 193.5v418l-78 10l2 27l134 -2l144 2l3 -27l-77 -10v-426q0 -92 44.5 -146t127.5 -54q76 0 120 55t44 146v425l-82 10l3 27l107 -2l101 2l3 -27l-78 -10v-421q0 -104 -52.5 -168
t-188.5 -92q-144 0 -210.5 69.5z" />
    <glyph glyph-name="Umacron.ss02" horiz-adv-x="699" 
d="M237 828h287v-49h-287v49zM157.5 52.5q-66.5 69.5 -66.5 193.5v418l-78 10l2 27l134 -2l144 2l3 -27l-77 -10v-426q0 -92 44.5 -146t127.5 -54q76 0 120 55t44 146v425l-82 10l3 27l107 -2l101 2l3 -27l-78 -10v-421q0 -104 -52.5 -168t-188.5 -92q-144 0 -210.5 69.5z
" />
    <glyph glyph-name="Uring.ss02" horiz-adv-x="699" 
d="M323 731.5q-24 16.5 -24 51.5q0 31 19.5 45t60.5 27q34 0 57.5 -17t23.5 -53q0 -22 -10.5 -35.5t-26 -20t-43.5 -14.5q-33 0 -57 16.5zM413 752.5q13 12.5 13 31.5q0 20 -13 33t-33 13t-33.5 -13t-13.5 -33q0 -19 13.5 -31.5t33.5 -12.5t33 12.5zM157.5 52.5
q-66.5 69.5 -66.5 193.5v418l-78 10l2 27l134 -2l144 2l3 -27l-77 -10v-426q0 -92 44.5 -146t127.5 -54q76 0 120 55t44 146v425l-82 10l3 27l107 -2l101 2l3 -27l-78 -10v-421q0 -104 -52.5 -168t-188.5 -92q-144 0 -210.5 69.5z" />
    <glyph glyph-name="Utilde.ss02" horiz-adv-x="699" 
d="M247 837l66 19l179 -54l34 55h20l-33 -93l-66 -17l-179 55l-34 -57h-20zM157.5 52.5q-66.5 69.5 -66.5 193.5v418l-78 10l2 27l134 -2l144 2l3 -27l-77 -10v-426q0 -92 44.5 -146t127.5 -54q76 0 120 55t44 146v425l-82 10l3 27l107 -2l101 2l3 -27l-78 -10v-421
q0 -104 -52.5 -168t-188.5 -92q-144 0 -210.5 69.5z" />
    <glyph glyph-name="Wacute.ss02" horiz-adv-x="1013" 
d="M533 850h114l-118 -105h-44zM68 665l-59 9l3 27l137 -2l130 2l3 -27l-79 -10l157 -502l1 -33l122 401l-45 135l-57 9l3 27l136 -2l129 2l2 -27l-78 -10l158 -502l1 -33l163 536l-84 9l3 27l100 -2l87 2l3 -27l-63 -9l-207 -655l-74 -21l-151 458l-1 32l-144 -469l-74 -21
z" />
    <glyph glyph-name="Wcircumflex.ss02" horiz-adv-x="1013" 
d="M484 855h60l117 -112h-45l-94 55l-8 8l-8 -8l-94 -55h-46zM68 665l-59 9l3 27l137 -2l130 2l3 -27l-79 -10l157 -502l1 -33l122 401l-45 135l-57 9l3 27l136 -2l129 2l2 -27l-78 -10l158 -502l1 -33l163 536l-84 9l3 27l100 -2l87 2l3 -27l-63 -9l-207 -655l-74 -21
l-151 458l-1 32l-144 -469l-74 -21z" />
    <glyph glyph-name="Wdieresis.ss02" horiz-adv-x="1013" 
d="M363 760l-5 49l9 40l61 5l25 -5l5 -48l-10 -41l-60 -5zM574 760l-5 49l9 40l60 5l25 -5l5 -48l-9 -41l-60 -5zM68 665l-59 9l3 27l137 -2l130 2l3 -27l-79 -10l157 -502l1 -33l122 401l-45 135l-57 9l3 27l136 -2l129 2l2 -27l-78 -10l158 -502l1 -33l163 536l-84 9l3 27
l100 -2l87 2l3 -27l-63 -9l-207 -655l-74 -21l-151 458l-1 32l-144 -469l-74 -21z" />
    <glyph glyph-name="Wgrave.ss02" horiz-adv-x="1013" 
d="M372 850h114l49 -105h-45zM68 665l-59 9l3 27l137 -2l130 2l3 -27l-79 -10l157 -502l1 -33l122 401l-45 135l-57 9l3 27l136 -2l129 2l2 -27l-78 -10l158 -502l1 -33l163 536l-84 9l3 27l100 -2l87 2l3 -27l-63 -9l-207 -655l-74 -21l-151 458l-1 32l-144 -469l-74 -21z
" />
    <glyph glyph-name="Yacute.ss02" horiz-adv-x="705" 
d="M412 850h114l-118 -105h-44zM185 26l110 10v238l-220 391l-70 9l3 27l144 -2l144 2l3 -27l-81 -10l179 -325l2 -22l183 347l-86 10l2 27l109 -2l90 2l3 -27l-70 -9l-209 -385l1 -244l107 -10l-2 -27l-167 2l-172 -2z" />
    <glyph glyph-name="Ycircumflex.ss02" horiz-adv-x="705" 
d="M363 855h60l117 -112h-45l-94 55l-8 8l-8 -8l-94 -55h-46zM185 26l110 10v238l-220 391l-70 9l3 27l144 -2l144 2l3 -27l-81 -10l179 -325l2 -22l183 347l-86 10l2 27l109 -2l90 2l3 -27l-70 -9l-209 -385l1 -244l107 -10l-2 -27l-167 2l-172 -2z" />
    <glyph glyph-name="Ydieresis.ss02" horiz-adv-x="705" 
d="M242 760l-5 49l9 40l61 5l25 -5l5 -48l-10 -41l-60 -5zM453 760l-5 49l9 40l60 5l25 -5l5 -48l-9 -41l-60 -5zM185 26l110 10v238l-220 391l-70 9l3 27l144 -2l144 2l3 -27l-81 -10l179 -325l2 -22l183 347l-86 10l2 27l109 -2l90 2l3 -27l-70 -9l-209 -385l1 -244
l107 -10l-2 -27l-167 2l-172 -2z" />
    <glyph glyph-name="Ygrave.ss02" horiz-adv-x="705" 
d="M251 850h114l49 -105h-45zM185 26l110 10v238l-220 391l-70 9l3 27l144 -2l144 2l3 -27l-81 -10l179 -325l2 -22l183 347l-86 10l2 27l109 -2l90 2l3 -27l-70 -9l-209 -385l1 -244l107 -10l-2 -27l-167 2l-172 -2z" />
    <glyph glyph-name="Zacute.ss02" horiz-adv-x="579" 
d="M310 850h114l-118 -105h-44zM17 30l377 619l22 17l-270 -2l-66 -155h-32v191h498l5 -27l-377 -622l-22 -17l286 2l81 162h32l-17 -198h-511z" />
    <glyph glyph-name="Zcaron.ss02" horiz-adv-x="579" 
d="M143 857h45l94 -57l8 -7l8 7l94 57h45l-116 -112h-62zM17 30l377 619l22 17l-270 -2l-66 -155h-32v191h498l5 -27l-377 -622l-22 -17l286 2l81 162h32l-17 -198h-511z" />
    <glyph glyph-name="Zdotaccent.ss02" horiz-adv-x="579" 
d="M242 756l-5 52l9 42l62 5l28 -5l5 -50l-9 -44l-61 -5zM17 30l377 619l22 17l-270 -2l-66 -155h-32v191h498l5 -27l-377 -622l-22 -17l286 2l81 162h32l-17 -198h-511z" />
    <glyph glyph-name="i.loclTRK" horiz-adv-x="293" 
d="M94 583l-7 61l11 50l79 5l30 -5l6 -59l-11 -52l-80 -6zM34 26l62 9v390l-63 -9l-3 27l146 34l34 1v-443l63 -9l-2 -27l-118 2l-116 -2z" />
    <glyph glyph-name="aogonek.ss01" horiz-adv-x="488" 
d="M342.5 -139.5q22.5 -16.5 71.5 -16.5v-23q-95 0 -133.5 22.5t-38.5 71.5v24l83 62l-24 73l-127 -89q-64 0 -104.5 33.5t-40.5 92.5t48 101l220 71v64q0 49 -12.5 70t-54.5 21q-29 0 -62 -13l-19 -100h-104v79l195 83q67 0 104.5 -14.5t53.5 -47t16 -90.5v-207
q0 -44 15 -82l50 3l4 -26l-119 -24l-44 -70v-18q0 -34 22.5 -50.5zM297 256l-117 -47q-33 -28 -33 -77q0 -36 17 -56t42 -20q29 0 63 24l28 19v157z" />
    <glyph glyph-name="ccedilla.ss01" horiz-adv-x="457" 
d="M296 -52q22 -14 22 -37q0 -26 -24.5 -41t-64.5 -27l-67 -20h-43l32 39h79q25 14 25 35q0 17 -20 25.5t-51 9.5l50 55q-90 9 -145.5 71t-55.5 161q0 111 69.5 178t175.5 90q37 0 77 -15t67 -37v-106h-93l-30 108q-15 9 -39 9q-49 0 -81.5 -45.5t-32.5 -129.5
q0 -56 20 -102t56.5 -72t84.5 -26q30 0 57 10.5t55 29.5l13 -24q-39 -34 -79 -58t-90 -44h-4l-17 -21q32 -2 54 -16z" />
    <glyph glyph-name="eogonek.ss01" horiz-adv-x="478" 
d="M295.5 -139.5q22.5 -16.5 71.5 -16.5v-23q-95 0 -133.5 22.5t-38.5 71.5v24l62 46q-62 2 -113.5 30.5t-81.5 81t-30 123.5q0 106 60.5 173.5t170.5 93.5q89 0 134.5 -50t45.5 -135v-41h-301q4 -87 48.5 -137.5t117.5 -50.5q60 0 124 40l13 -25q-57 -48 -121 -79l-51 -80
v-18q0 -34 22.5 -50.5zM169.5 405q-25.5 -40 -27.5 -115l181 4v13q0 68 -18 103t-66 35q-44 0 -69.5 -40z" />
    <glyph glyph-name="g.ss01" horiz-adv-x="523" 
d="M76 -154.5q-56 28.5 -56 92.5v17l114 68q-49 11 -69 36.5t-20 64.5v10l101 63q-46 17 -72.5 50t-26.5 77q0 61 49.5 99.5t151.5 63.5q58 0 103 -21.5t64 -57.5l46 82h55v-98h-79l-12 -9q7 -21 7 -37q-1 -61 -50 -100t-151 -63q-31 0 -58 6l-39 -34q0 -20 14 -31t37 -11
h191q55 0 85.5 -26.5t30.5 -72.5q0 -61 -69.5 -113t-186.5 -84q-104 0 -160 28.5zM301 246q19 28 19 79q0 55 -20.5 91.5t-66.5 36.5q-36 0 -55.5 -28t-19.5 -79q0 -56 20.5 -92t66.5 -36q37 0 56 28zM363.5 -96q41.5 27 41.5 66q0 25 -18 37t-58 12h-169q-24 -20 -32 -35
t-8 -31q0 -35 33.5 -55.5t98.5 -20.5q70 0 111.5 27z" />
    <glyph glyph-name="gbreve.ss01" horiz-adv-x="523" 
d="M76 -154.5q-56 28.5 -56 92.5v17l114 68q-49 11 -69 36.5t-20 64.5v10l101 63q-46 17 -72.5 50t-26.5 77q0 61 49.5 99.5t151.5 63.5q58 0 103 -21.5t64 -57.5l46 82h55v-98h-79l-12 -9q7 -21 7 -37q-1 -61 -50 -100t-151 -63q-31 0 -58 6l-39 -34q0 -20 14 -31t37 -11
h191q55 0 85.5 -26.5t30.5 -72.5q0 -61 -69.5 -113t-186.5 -84q-104 0 -160 28.5zM301 246q19 28 19 79q0 55 -20.5 91.5t-66.5 36.5q-36 0 -55.5 -28t-19.5 -79q0 -56 20.5 -92t66.5 -36q37 0 56 28zM363.5 -96q41.5 27 41.5 66q0 25 -18 37t-58 12h-169q-24 -20 -32 -35
t-8 -31q0 -35 33.5 -55.5t98.5 -20.5q70 0 111.5 27zM175 598.5q-43 36.5 -61 87.5l21 16q20 -30 52 -50.5t75 -20.5q42 0 69 20t51 51l22 -16q-18 -39 -48.5 -69.5t-81.5 -54.5q-56 0 -99 36.5z" />
    <glyph glyph-name="gcircumflex.ss01" horiz-adv-x="523" 
d="M76 -154.5q-56 28.5 -56 92.5v17l114 68q-49 11 -69 36.5t-20 64.5v10l101 63q-46 17 -72.5 50t-26.5 77q0 61 49.5 99.5t151.5 63.5q58 0 103 -21.5t64 -57.5l46 82h55v-98h-79l-12 -9q7 -21 7 -37q-1 -61 -50 -100t-151 -63q-31 0 -58 6l-39 -34q0 -20 14 -31t37 -11
h191q55 0 85.5 -26.5t30.5 -72.5q0 -61 -69.5 -113t-186.5 -84q-104 0 -160 28.5zM301 246q19 28 19 79q0 55 -20.5 91.5t-66.5 36.5q-36 0 -55.5 -28t-19.5 -79q0 -56 20.5 -92t66.5 -36q37 0 56 28zM363.5 -96q41.5 27 41.5 66q0 25 -18 37t-58 12h-169q-24 -20 -32 -35
t-8 -31q0 -35 33.5 -55.5t98.5 -20.5q70 0 111.5 27zM235 710h54l118 -159h-41l-95 79l-9 14l-9 -14l-94 -79h-42z" />
    <glyph glyph-name="uni0123.ss01" horiz-adv-x="523" 
d="M76 -154.5q-56 28.5 -56 92.5v17l114 68q-49 11 -69 36.5t-20 64.5v10l101 63q-46 17 -72.5 50t-26.5 77q0 61 49.5 99.5t151.5 63.5q58 0 103 -21.5t64 -57.5l46 82h55v-98h-79l-12 -9q7 -21 7 -37q-1 -61 -50 -100t-151 -63q-31 0 -58 6l-39 -34q0 -20 14 -31t37 -11
h191q55 0 85.5 -26.5t30.5 -72.5q0 -61 -69.5 -113t-186.5 -84q-104 0 -160 28.5zM301 246q19 28 19 79q0 55 -20.5 91.5t-66.5 36.5q-36 0 -55.5 -28t-19.5 -79q0 -56 20.5 -92t66.5 -36q37 0 56 28zM363.5 -96q41.5 27 41.5 66q0 25 -18 37t-58 12h-169q-24 -20 -32 -35
t-8 -31q0 -35 33.5 -55.5t98.5 -20.5q70 0 111.5 27zM205 625l86 91l28 -6l-39 -83l34 -34v-42h-109v74z" />
    <glyph glyph-name="gdotaccent.ss01" horiz-adv-x="523" 
d="M76 -154.5q-56 28.5 -56 92.5v17l114 68q-49 11 -69 36.5t-20 64.5v10l101 63q-46 17 -72.5 50t-26.5 77q0 61 49.5 99.5t151.5 63.5q58 0 103 -21.5t64 -57.5l46 82h55v-98h-79l-12 -9q7 -21 7 -37q-1 -61 -50 -100t-151 -63q-31 0 -58 6l-39 -34q0 -20 14 -31t37 -11
h191q55 0 85.5 -26.5t30.5 -72.5q0 -61 -69.5 -113t-186.5 -84q-104 0 -160 28.5zM301 246q19 28 19 79q0 55 -20.5 91.5t-66.5 36.5q-36 0 -55.5 -28t-19.5 -79q0 -56 20.5 -92t66.5 -36q37 0 56 28zM363.5 -96q41.5 27 41.5 66q0 25 -18 37t-58 12h-169q-24 -20 -32 -35
t-8 -31q0 -35 33.5 -55.5t98.5 -20.5q70 0 111.5 27zM207 585l-5 57l10 48l71 5l32 -5l5 -57l-11 -48l-70 -6z" />
    <glyph glyph-name="ij.ss01" horiz-adv-x="569" 
d="M94 583l-7 61l11 50l79 5l30 -5l6 -59l-11 -52l-80 -6zM34 26l62 9v390l-63 -9l-3 27l146 34l34 1v-443l63 -9l-2 -27l-118 2l-116 -2zM391 583l-7 61l11 50l79 5l30 -5l6 -59l-11 -52l-80 -6zM270 -75h104l5 19q11 42 11 112v369l-62 -9l-3 27l145 34l35 1v-397
q0 -52 -16.5 -86t-50.5 -70l-92 -101h-76v101z" />
    <glyph glyph-name="iogonek.ss01" horiz-adv-x="293" 
d="M94 583l-7 61l11 50l79 5l30 -5l6 -59l-11 -52l-80 -6zM129 -71v-18q0 -34 22.5 -50.5t71.5 -16.5v-23q-95 0 -133.5 22.5t-38.5 71.5v24l82 62l-96 -2l-3 27l62 9v390l-63 -9l-3 27l146 34l34 1v-443l63 -9l-2 -27l-97 2z" />
    <glyph glyph-name="j.ss01" horiz-adv-x="276" 
d="M98 583l-7 61l11 50l79 5l30 -5l6 -59l-11 -52l-80 -6zM-23 -75h104l5 19q11 42 11 112v369l-62 -9l-3 27l145 34l35 1v-397q0 -52 -16.5 -86t-50.5 -70l-92 -101h-76v101z" />
    <glyph glyph-name="uni0237.ss01" horiz-adv-x="276" 
d="M-23 -75h104l5 19q11 42 11 112v369l-62 -9l-3 27l145 34l35 1v-397q0 -52 -16.5 -86t-50.5 -70l-92 -101h-76v101z" />
    <glyph glyph-name="uni0137.ss01" horiz-adv-x="563" 
d="M34 26l61 9v624l-61 -6l-4 28l145 31l35 1v-444l13 6l196 162l-57 8v27l89 -1l83 1l3 -27l-63 -8l-205 -164h55l193 -238l41 -9l-3 -27l-93 2l-67 -2l-178 240l-7 17v-221l53 -9l-3 -27l-108 2l-116 -2zM245 -172l39 59l-46 27v37h107v-67l-78 -64z" />
    <glyph glyph-name="uni013C.ss01" horiz-adv-x="287" 
d="M33 26l61 9v624l-61 -6l-4 28l145 31l34 1v-678l64 -9l-3 -27l-116 2l-118 -2zM98 -172l39 59l-46 27v37h107v-67l-78 -64z" />
    <glyph glyph-name="uni0146.ss01" horiz-adv-x="593" 
d="M35 26l61 9v389l-63 -9l-3 28l146 34l32 1l2 -95l165 104q54 0 83 -15t40 -47.5t11 -90.5v-299l67 -9l-2 -27l-120 2l-104 -2l-3 27l45 9v302q0 37 -14.5 53.5t-43.5 16.5q-22 0 -41 -9t-52 -30l-30 -19v-314l46 -9l-2 -27l-101 2l-117 -2zM251 -172l39 59l-46 27v37h107
v-67l-78 -64z" />
    <glyph glyph-name="eng.ss01" horiz-adv-x="557" 
d="M272 -76h104l5 19q11 42 11 115v279q0 37 -14.5 53.5t-43.5 16.5q-22 0 -41 -9t-52 -30l-30 -19v-314l46 -9l-2 -27l-101 2l-117 -2l-2 27l61 9v389l-63 -9l-3 28l146 34l32 1l2 -95l165 104q54 0 83 -15t40 -47.5t11 -90.5v-262q0 -34 -10.5 -60.5t-24 -44t-41.5 -49.5
l-83 -93h-78v99z" />
    <glyph glyph-name="p.ss01" horiz-adv-x="550" 
d="M19 -144l62 9v560l-63 -9l-3 27l142 33l32 2l5 -89l136 98q54 0 97.5 -28t68 -79t24.5 -116q0 -233 -240 -279q-50 0 -85 23v-143l94 -9l-2 -27l-147 2l-119 -2zM365 77.5q32 53.5 32 143.5q0 85 -27.5 135t-74.5 50q-19 0 -34 -7.5t-45 -28.5l-21 -14v-289
q14 -20 36 -31.5t49 -11.5q53 0 85 53.5z" />
    <glyph glyph-name="thorn.ss01" horiz-adv-x="549" 
d="M19 -144l62 9v797l-62 -9l-3 27l146 31l34 2v-323l135 97q54 0 97 -28t67.5 -79t24.5 -116q0 -233 -240 -279q-49 0 -84 23v-143l94 -9l-2 -27l-148 2l-118 -2zM366 77.5q32 53.5 32 143.5q0 85 -27.5 135t-74.5 50q-19 0 -35 -8t-44 -28l-21 -14v-289q14 -20 36 -31.5
t49 -11.5q53 0 85 53.5z" />
    <glyph glyph-name="q.ss01" horiz-adv-x="540" 
d="M263 -144l94 8v212l-127 -91q-57 0 -102 27.5t-70.5 79t-25.5 119.5q0 114 66 186t181 90q76 0 143 -37l31 32h19v-618l63 -8l-2 -27l-117 2l-150 -2zM294 71.5q14 5.5 32 17.5l31 21v290q-23 48 -78 48q-56 0 -90 -51.5t-34 -145.5q0 -82 28 -133.5t78 -51.5
q19 0 33 5.5z" />
    <glyph glyph-name="uni0157.ss01" horiz-adv-x="400" 
d="M34 26l62 9v390l-63 -9l-3 27l140 34l30 1l6 -152l102 156h78v-118h-104q-11 -4 -36.5 -33t-27.5 -32l-8 -9v-254l97 -9l-3 -28l-149 2l-118 -2zM115 -172l39 59l-46 27v37h107v-67l-78 -64z" />
    <glyph glyph-name="scedilla.ss01" horiz-adv-x="413" 
d="M362.5 209.5q20.5 -28.5 20.5 -68.5q0 -59 -43.5 -96t-131.5 -59l-18 -22q32 -2 54 -16t22 -37q0 -26 -24.5 -41t-64.5 -27l-67 -20h-43l32 39h79q25 14 25 35q0 17 -20 25.5t-51 9.5l48 53q-35 3 -73 14.5t-66 26.5l-9 133h38l43 -95q43 -40 91 -40q37 0 57 18.5
t20 46.5q0 29 -15.5 46.5t-57.5 41.5l-81 48q-40 22 -63 49.5t-23 69.5q0 52 42.5 86t134.5 57q83 0 149 -37v-124h-34l-40 92q-35 32 -81 32q-32 0 -51.5 -16t-19.5 -43q0 -25 16.5 -41.5t57.5 -39.5l82 -47q45 -25 65.5 -53.5z" />
    <glyph glyph-name="uni0219.ss01" horiz-adv-x="413" 
d="M117 -3.5q-44 12.5 -76 29.5l-9 133h38l43 -95q43 -40 91 -40q37 0 57 18.5t20 46.5q0 29 -15.5 46.5t-57.5 41.5l-81 48q-40 22 -63 49.5t-23 69.5q0 52 42.5 86t134.5 57q83 0 149 -37v-124h-34l-40 92q-35 32 -81 32q-32 0 -51.5 -16t-19.5 -43q0 -25 16.5 -41.5
t57.5 -39.5l82 -47q45 -25 65.5 -53.5t20.5 -68.5q0 -61 -45 -98.5t-139 -58.5q-38 0 -82 12.5zM162 -172l39 59l-46 27v37h107v-67l-78 -64z" />
    <glyph glyph-name="uni0163.ss01" horiz-adv-x="358" 
d="M245 -52q22 -14 22 -37q0 -26 -24.5 -41t-64.5 -27l-67 -20h-43l32 39h79q25 14 25 35q0 17 -20 25.5t-51 9.5l50 55q-96 16 -96 135v307h-82v9l19 25h64v70l95 66h18v-139h139v-31h-138v-306q0 -30 15 -46.5t40 -16.5q21 0 39.5 5.5t42.5 18.5l13 -25l-138 -74h-6
l-17 -21q32 -2 54 -16z" />
    <glyph glyph-name="uni021B.ss01" horiz-adv-x="358" 
d="M117.5 20q-30.5 35 -30.5 102v307h-82v9l19 25h64v70l95 66h18v-139h139v-31h-138v-306q0 -30 15 -46.5t40 -16.5q21 0 39.5 5.5t42.5 18.5l13 -25l-138 -74q-66 0 -96.5 35zM162 -172l39 59l-46 27v37h107v-67l-78 -64z" />
    <glyph glyph-name="uogonek.ss01" horiz-adv-x="567" 
d="M398.5 -139.5q22.5 -16.5 71.5 -16.5v-23q-95 0 -133.5 22.5t-38.5 71.5v24l91 69l-19 76l-156 -99q-56 0 -85.5 15.5t-41 47.5t-11.5 89v287l-61 -6l-3 29l143 28l38 2v-339q0 -38 15 -55.5t45 -17.5q18 0 37 8.5t48 26.5l28 18v306l-57 -6l-3 29l138 28l37 2v-346
q0 -28 3 -46.5t10 -39.5l47 3l3 -27l-125 -23l-43 -69v-18q0 -34 22.5 -50.5z" />
    <glyph glyph-name="y.ss01" horiz-adv-x="545" 
d="M86 -63h115l106 121l-90 -30l-160 409l-52 8l3 27l119 -1l112 1l2 -27l-57 -8l121 -309l5 -41l123 350l-56 8l3 27l82 -1l76 1l2 -27l-57 -8l-147 -383l-122 -229h-128v112z" />
    <glyph glyph-name="yacute.ss01" horiz-adv-x="545" 
d="M86 -63h115l106 121l-90 -30l-160 409l-52 8l3 27l119 -1l112 1l2 -27l-57 -8l121 -309l5 -41l123 350l-56 8l3 27l82 -1l76 1l2 -27l-57 -8l-147 -383l-122 -229h-128v112zM328 710h113l-128 -159h-36z" />
    <glyph glyph-name="ycircumflex.ss01" horiz-adv-x="545" 
d="M86 -63h115l106 121l-90 -30l-160 409l-52 8l3 27l119 -1l112 1l2 -27l-57 -8l121 -309l5 -41l123 350l-56 8l3 27l82 -1l76 1l2 -27l-57 -8l-147 -383l-122 -229h-128v112zM267 710h54l118 -159h-41l-95 79l-9 14l-9 -14l-94 -79h-42z" />
    <glyph glyph-name="ydieresis.ss01" horiz-adv-x="545" 
d="M86 -63h115l106 121l-90 -30l-160 409l-52 8l3 27l119 -1l112 1l2 -27l-57 -8l121 -309l5 -41l123 350l-56 8l3 27l82 -1l76 1l2 -27l-57 -8l-147 -383l-122 -229h-128v112zM156 584l-5 52l9 42l64 6l26 -6l6 -50l-10 -44l-63 -5zM337 584l-6 52l10 42l64 6l26 -6l6 -50
l-11 -44l-63 -5z" />
    <glyph glyph-name="ygrave.ss01" horiz-adv-x="545" 
d="M86 -63h115l106 121l-90 -30l-160 409l-52 8l3 27l119 -1l112 1l2 -27l-57 -8l121 -309l5 -41l123 350l-56 8l3 27l82 -1l76 1l2 -27l-57 -8l-147 -383l-122 -229h-128v112zM152 710h112l51 -159h-35z" />
    <glyph glyph-name="hcircumflex.ss02" horiz-adv-x="591" 
d="M118 855h60l117 -112h-45l-94 55l-8 8l-8 -8l-94 -55h-46zM33 26l61 9v625l-61 -6l-4 27l145 31l35 1v-329l164 103q55 0 84 -17t39.5 -50.5t10.5 -88.5v-296l67 -9l-3 -27l-120 2l-103 -2l-3 27l45 9v302q0 37 -14.5 53.5t-42.5 16.5q-21 0 -41 -9.5t-53 -29.5l-30 -18
v-315l46 -9l-2 -27l-102 2l-116 -2z" />
    <glyph glyph-name="lacute.ss02" horiz-adv-x="287" 
d="M167 850h114l-118 -105h-44zM33 26l61 9v624l-61 -6l-4 28l145 31l34 1v-678l64 -9l-3 -27l-116 2l-118 -2z" />
    <glyph glyph-name="f_f_j.liga.ss01" horiz-adv-x="891" 
d="M595 -86h102l6 20q12 40 12 114v363l3 21l-19 -4h-175v-393l89 -8l-3 -28l-146 2l-109 -2l-2 27l56 9v393h-197v-393l89 -8l-2 -28l-150 2l-112 -2l-3 27l64 9v393h-74v10l17 25h57v5q0 43 13.5 72.5t43.5 59.5l98 98h177l-87 -87h-108l-9 -18q-8 -17 -11 -40t-3 -69v-23
h197v13q0 44 13 75.5t42 60.5l101 100h269v-113h-20l-87 27h-179l-11 -18q-7 -17 -10 -40.5t-3 -70.5v-34h176l96 16l34 1v-408q0 -52 -16 -86t-52 -70l-91 -100h-76v100z" />
    <glyph glyph-name="f_j.liga.ss01" horiz-adv-x="579" 
d="M284 -78h102l5 20q12 38 12 113v356l3 21l-19 -4h-175v-393l87 -8l-3 -28l-146 2l-113 -2l-3 27l64 9v393h-74v10l17 25h57v11q0 45 12.5 76t41.5 59l101 101h269v-113h-20l-87 27h-179l-10 -19q-8 -17 -11 -40t-3 -70v-34h176l96 16l34 1v-397q0 -52 -16 -85.5
t-51 -69.5l-91 -101h-76v97z" />
    <glyph glyph-name="f_y.liga.ss01" horiz-adv-x="834" 
d="M374 -63h115l106 121l-92 -28l-161 409h-130v-404l104 -8l-2 -28l-162 2l-115 -2l-2 27l63 9v397h-74v10l17 25h57v11q0 43 13 73t42 59l100 100h120v-86h-137l-10 -19q-8 -17 -11 -40.5t-3 -67.5v-25h312l3 -27l-57 -8l122 -309l5 -41l125 350l-56 8l2 27l84 -1l74 1
l3 -27l-58 -8l-147 -383l-122 -229h-128v112z" />
    <glyph glyph-name="g_g.liga.ss01" horiz-adv-x="1000" 
d="M70.5 -152.5q-52.5 27.5 -52.5 87.5v19l115 69q-48 13 -69 38t-21 61v16l102 59q-48 18 -75 50t-27 72q1 63 51 103t153 65q58 0 101 -22.5t64 -61.5l50 84h50l-17 -98h-56l-15 -11q8 -16 8 -33q-1 -61 -49 -98.5t-153 -64.5q-35 0 -59 7l-40 -31q0 -23 14 -34.5
t38 -11.5h168q58 0 89.5 -27.5t31.5 -70.5q0 -61 -66 -110t-183 -84q-100 0 -152.5 27.5zM566 -152.5q-53 27.5 -53 87.5v19l109 69q-52 13 -73 37.5t-21 61.5v16l101 59q-48 18 -75.5 50t-27.5 72q0 63 50 103t153 65q59 0 101.5 -22.5t64.5 -61.5l50 84h50v-98h-74
l-15 -11q8 -16 8 -33q-1 -61 -49 -98.5t-153 -64.5q-33 0 -58 7l-40 -31q0 -23 14 -34.5t38 -11.5h189q57 0 88.5 -27.5t31.5 -70.5q0 -61 -68 -110.5t-187 -83.5q-101 0 -154 27.5zM300.5 243.5q19.5 26.5 19.5 73.5q0 58 -21.5 96t-68.5 38q-36 0 -55.5 -28.5t-19.5 -80.5
q0 -54 21.5 -89.5t68.5 -35.5q36 0 55.5 26.5zM783 243.5q19 26.5 19 73.5q0 59 -21 96.5t-69 37.5q-36 0 -55.5 -29.5t-19.5 -81.5t21.5 -87.5t69.5 -35.5q36 0 55 26.5zM345 -92.5q42 25.5 42 62.5q0 49 -79 49h-149q-41 -28 -41 -67q0 -31 31.5 -51t88.5 -20
q65 1 107 26.5zM847 -92.5q43 25.5 43 62.5q0 49 -78 49h-164q-21 -18 -28.5 -34t-7.5 -33q0 -31 32.5 -51t91.5 -20q68 1 111 26.5z" />
    <glyph glyph-name="k_y.liga.ss01" horiz-adv-x="1019" 
d="M565 -67h109l105 125l-90 -30l-162 409h-53l-205 -163l55 -1l192 -238l39 -8l-4 -28l-90 2l-67 -2l-178 241l-7 15v-220l53 -9l-2 -27l-111 2l-113 -2l-3 27l62 9v625l-61 -6l-4 27l144 31l35 1v-443l15 6l193 161l-56 11v24h348l3 -27l-57 -8l122 -309l5 -41l124 350
l-56 8l3 28l83 -2l75 2l2 -28l-58 -8l-146 -383l-123 -229h-121v108z" />
    <glyph glyph-name="t_y.liga.ss01" horiz-adv-x="818" 
d="M358 -63h112l109 122l-90 -31l-164 412h-123v-318q0 -29 15 -45.5t40 -16.5q20 0 37.5 4.5t39.5 16.5l12 -25l-131 -71q-128 0 -128 137v315h-82v8l18 25h65v63l95 66h18v-127h307l3 -27l-57 -8l122 -307l5 -41l125 348l-56 8l2 27l84 -1l74 1l3 -27l-58 -8l-147 -384
l-121 -228h-129v112z" />
    <glyph glyph-name="a.sc" horiz-adv-x="624" 
d="M22 24l52 8l190 461l91 29l193 -491l54 -7l-2 -25l-130 2l-111 -2l-2 25l63 8l-53 139h-196l-55 -139l66 -8l-2 -25l-85 2l-71 -2zM356 199l-81 217l-1 22l-92 -239h174z" />
    <glyph glyph-name="aacute.sc" horiz-adv-x="624" 
d="M344 710h113l-127 -146h-36zM22 24l52 8l190 461l91 29l193 -491l54 -7l-2 -25l-130 2l-111 -2l-2 25l63 8l-53 139h-196l-55 -139l66 -8l-2 -25l-85 2l-71 -2zM356 199l-81 217l-1 22l-92 -239h174z" />
    <glyph glyph-name="abreve.sc" horiz-adv-x="624" 
d="M223 601q-42 37 -59 86l20 16q51 -70 125 -71q42 0 70 20t52 51l22 -15q-17 -38 -47 -68.5t-83 -55.5q-58 0 -100 37zM22 24l52 8l190 461l91 29l193 -491l54 -7l-2 -25l-130 2l-111 -2l-2 25l63 8l-53 139h-196l-55 -139l66 -8l-2 -25l-85 2l-71 -2zM356 199l-81 217
l-1 22l-92 -239h174z" />
    <glyph glyph-name="acircumflex.sc" horiz-adv-x="624" 
d="M285 710h54l116 -146h-40l-94 65l-9 10l-9 -10l-94 -65h-40zM22 24l52 8l190 461l91 29l193 -491l54 -7l-2 -25l-130 2l-111 -2l-2 25l63 8l-53 139h-196l-55 -139l66 -8l-2 -25l-85 2l-71 -2zM356 199l-81 217l-1 22l-92 -239h174z" />
    <glyph glyph-name="adieresis.sc" horiz-adv-x="624" 
d="M175 589l-5 52l9 43l64 5l26 -5l6 -51l-11 -44l-63 -5zM355 589l-5 52l10 43l63 5l26 -5l6 -51l-10 -44l-63 -5zM22 24l52 8l190 461l91 29l193 -491l54 -7l-2 -25l-130 2l-111 -2l-2 25l63 8l-53 139h-196l-55 -139l66 -8l-2 -25l-85 2l-71 -2zM356 199l-81 217l-1 22
l-92 -239h174z" />
    <glyph glyph-name="agrave.sc" horiz-adv-x="624" 
d="M166 710h112l51 -146h-36zM22 24l52 8l190 461l91 29l193 -491l54 -7l-2 -25l-130 2l-111 -2l-2 25l63 8l-53 139h-196l-55 -139l66 -8l-2 -25l-85 2l-71 -2zM356 199l-81 217l-1 22l-92 -239h174z" />
    <glyph glyph-name="amacron.sc" horiz-adv-x="624" 
d="M169 667h287v-54h-287v54zM22 24l52 8l190 461l91 29l193 -491l54 -7l-2 -25l-130 2l-111 -2l-2 25l63 8l-53 139h-196l-55 -139l66 -8l-2 -25l-85 2l-71 -2zM356 199l-81 217l-1 22l-92 -239h174z" />
    <glyph glyph-name="aogonek.sc" horiz-adv-x="624" 
d="M398 -112v-43q0 -68 109 -68v-23q-101 0 -145 24.5t-44 76.5v51l108 109l-59 156h-196l-55 -139l66 -8l-2 -25l-85 2l-71 -2l-2 25l52 8l190 461l91 29l193 -491l54 -7l-2 -24l-150 1zM356 199l-81 217l-1 22l-92 -239h174z" />
    </font>
</defs>
</svg>
